<mxfile host="app.diagrams.net" modified="2023-04-17T15:43:03.456Z" agent="Mozilla/5.0 (Windows NT 10.0; Win64; x64) AppleWebKit/537.36 (KHTML, like Gecko) Chrome/112.0.0.0 Safari/537.36" etag="LRGXfwzD0X3OohG1lypJ" version="21.1.8" type="device">
  <diagram name="Page-1" id="yaG4nBT-4X2hK0o5VILm">
    <mxGraphModel dx="3021" dy="2420" grid="1" gridSize="10" guides="1" tooltips="1" connect="1" arrows="1" fold="1" page="1" pageScale="1" pageWidth="850" pageHeight="1100" math="0" shadow="0">
      <root>
        <mxCell id="0" />
        <mxCell id="1" parent="0" />
        <mxCell id="b9N4R5i_NIoSZ153W1rB-74" value="Docker container" style="swimlane;whiteSpace=wrap;html=1;" vertex="1" parent="1">
          <mxGeometry x="240" y="-70" width="480" height="310" as="geometry" />
        </mxCell>
        <mxCell id="b9N4R5i_NIoSZ153W1rB-11" value="" style="group" vertex="1" connectable="0" parent="b9N4R5i_NIoSZ153W1rB-74">
          <mxGeometry x="30" y="90" width="410" height="160" as="geometry" />
        </mxCell>
        <mxCell id="b9N4R5i_NIoSZ153W1rB-5" value="" style="rounded=1;whiteSpace=wrap;html=1;" vertex="1" parent="b9N4R5i_NIoSZ153W1rB-11">
          <mxGeometry width="410" height="160" as="geometry" />
        </mxCell>
        <mxCell id="b9N4R5i_NIoSZ153W1rB-7" value="&lt;font size=&quot;1&quot;&gt;&lt;b style=&quot;font-size: 13px;&quot;&gt;Django Rest Framework&lt;/b&gt;&lt;/font&gt;" style="rounded=0;whiteSpace=wrap;html=1;" vertex="1" parent="b9N4R5i_NIoSZ153W1rB-11">
          <mxGeometry x="230" y="75.78947368421052" width="150" height="63.1578947368421" as="geometry" />
        </mxCell>
        <mxCell id="b9N4R5i_NIoSZ153W1rB-8" value="&lt;b&gt;&lt;font style=&quot;font-size: 17px;&quot;&gt;Django&lt;br&gt;Web&lt;br&gt;Application&lt;br&gt;&lt;/font&gt;&lt;/b&gt;" style="text;html=1;strokeColor=none;fillColor=none;align=center;verticalAlign=middle;whiteSpace=wrap;rounded=0;" vertex="1" parent="b9N4R5i_NIoSZ153W1rB-11">
          <mxGeometry x="65" y="94.73263157894738" width="60" height="25.263157894736842" as="geometry" />
        </mxCell>
        <mxCell id="b9N4R5i_NIoSZ153W1rB-10" style="edgeStyle=orthogonalEdgeStyle;rounded=0;orthogonalLoop=1;jettySize=auto;html=1;exitX=0.5;exitY=1;exitDx=0;exitDy=0;" edge="1" parent="b9N4R5i_NIoSZ153W1rB-11" source="b9N4R5i_NIoSZ153W1rB-7" target="b9N4R5i_NIoSZ153W1rB-7">
          <mxGeometry relative="1" as="geometry" />
        </mxCell>
        <mxCell id="b9N4R5i_NIoSZ153W1rB-17" value="" style="shape=image;verticalLabelPosition=bottom;labelBackgroundColor=default;verticalAlign=top;aspect=fixed;imageAspect=0;image=data:image/png,iVBORw0KGgoAAAANSUhEUgAABLAAAAJYCAMAAABFOO8oAAAABGdBTUEAALGPC/xhBQAAACBjSFJNAAB6JgAAgIQAAPoAAACA6AAAdTAAAOpgAAA6mAAAF3CculE8AAADAFBMVEX///+To51LZlt6jobEzcqdq6a3wr1qgXgJLiBKZVtrgnlpgHdpf3dofnamtK+SopxnfXX9/f3n6+nR2NXBy8eyvbmisKuElo98kIhvhX1mfXR3i4SDlY6Ropugr6mvu7a+yMTN1NK1wLyMnZdsgnpedm1OaV9DX1Q6WE0sTD8qSj4tTEA+W1BWcGaBlIyUpJ6ntK+7xcHT2dfz9fX19/bj5+bQ19SotbCVpZ9bdGpUbmRAXVIrSz8vTkI/XFFac2lyh39/kouls668xsPV29nq7ez+/v7y9PTm6ujY3tzM1NG9x8Suurahr6qHmZN7j4dddWxCXlR1ioKAk4y4wr7K0s/e4+H2+Pft7+7O1dK2wb2tubWksq2QoZqerKexvbjI0M3k6Ofv8fD7/Pu/ycWbqqR2i4NXcGckRTgNMSMjRDhVb2Wcq6WKnJUlRjluhHzr7u3f5OI8WU4TNikPMyUuTUFPamBxh37x9PPZ392WpqCClI1TbWMQNCYcPjE3VUqPoJq0v7v6+/vx8/LW3dq7xsKjsax4jIUxUEQfQTQLMCIZPC87WU1NZ13Hz8zh5uT3+PjL09AVOCru8O9geG8yUEUMMCOfrajW3Nltg3tMZ1wOMiQaPTBIY1nw8vFSbGIyUUZYcWiptrEwT0MUNypjenGruLPo6+o2VUni5uUdPzKGmZIoSDyfrqg4VksYOy4gQjVfd24RNSdNaF6Jm5TGz8sKLyE1VEgnRzuImpPP1tNHYlhQa2GYp6H5+voWOSsXOSyFmJGqt7L4+fnDzMmEl5BGYlfFzss9Wk95jYXb4d9ziIAiQzcSNShBXlNJZFqOn5kpST1cdGseQDO5w7/S2Nb09vVheXCZqKLs7+5ieXDX3dsbPjEhQjaaqaP8/fxke3IXOi0mRzrU2tjg5ePc4eCXpqHAysZwhn7p7OuwvLfJ0c59kIllfHOLnZba4N40U0fd4uBEYFUzUkY5V0ysubTCy8h0iYGzvrpFYVZZcmm6xMDl6ed+kYqNnphRa2IenhBCAAAAAWJLR0QAiAUdSAAAAAd0SU1FB+YKHg4qKz/2clAAADo3SURBVHja7d15nE/V/wfwj9Fwja1JMlTEiGlK9mUsLWKsCWWXbQqDMEKypAZhkJFosWRNSJYYVIZClEIpWbIrCVlS2nz7zozZ53PvPfe8z73n3M/n9fzn9/s9Hr/Odo/X3M+9557j8QAAAAAAAAAAAAAAAAAAAAAAAAAAAAAAAAAAAAAAAAAAAAAAAAAAAAAAAAAAAAAAAAAAAAAAAAAAAAAAAAAAAAAAAAAAAAAAAAAAAAAAAAAAAAAAAAAAAAAAAAAAAAAAAAAAAAAAAAAAAAAAAAAAAAAAAAAAAAAAAAAAAAAAAAAAAAAAAAAAAAAAAAAAAAAAAAAAAAAAAAAAAAAAAAAAAAAAAAAAAAAAAAAAAAAAAAAAAAAAAAAAAAAAAAAAAAAAAAAAAAAAAAAAAAAAAAAAAAAAAAAAAAAAAAAAAAAAAAAAAAAAAAAAAAAAAAAAAAAAAAAAAAAAAAAAAPiKXAH8cjOUf1MgvzyyBwcA1JJX45ePofwgm8sHAD+CwAIA10BgAYBrILAAwDUQWADgGggsAHANBBYAuAYCCwBcA4EFAK6BwAIA10BgAYBrILAAwDUQWADgGggsAHANBBYAuAYCCwBcA4EFAK6RH4EFAG6BwAIA10BgAYBrILAAwDUQWADgGggsAHANBBYAuAYCCwBcA4EFAK6BwAIA10BgAYBrILAAwDUQWADgGggsAHANBBYAuAYCCwBcA4EFAK6BwAIA10BgAYBrFEBgAYBbILAAwDUQWADgGggsAHANBBYAuAYCCwBcA4EFAK6BwAIA10BgAYBrILAAwDUQWADgGggsAHANBBYAuAYCCwBcA4EFAK6BwAIA10BgAYBrILAAwDUKIrAAwC0QWADgGggsAHANBBYAuAYCCwBcA4EFAK6BwAIA17B7HVahIH6FZQ8OAKjF7jssAABhEFgA4BoILABwDQQWALgGAgsAXAOBBQCugcACANdAYAGAayCwAMA1EFgA4Bo3I7AAwC0QWADgGggsAHANBBYAuAYCCwBcA4EFAK6BwAIA10BgAYBrILAAwDUQWADgGggsAHANBBYAuAYCCwBcA4EFAK6BwAIA10BgAdgm+JYitxa9LVexkJDiQUElgoKCbg+5486Spe4qckuw7KYpJfiW0mUCQ0PK3l2ufFhY2D3h4feGhd0XEFAh6P6KlSpXqZrp/9PPA6ta9RqVa9a6o3j+iIjaAQF1wsLqhtdLGrEHAh68+aGH76z/SIOGkbKbqKdR4yZNmzV/tGKLx4JaprQ+uflhSRc6LKxVQO2WQa0fL1z/iTZt28lup1hV27dt0KFZx06dA5PkCk3yZPL/1qVTp67NunVo271HlOwW3tD9qad79qrTO1r3H090n/v63t7vqeqyGypZuyqlnrm5VZ9o46Tpn29ArcoDU/4D/wysqJi7AkMiBvV/1ryTg4cMfa5wHlXm1bDnb+o0fESBkff1H8V6lV4YPbL4iy89Hyu76fzGjB338jPjS9QuP2FitHl/4ybVnTyl5YCHnyxZ9JWp8c63Nn7a03nDXmX+R/TsoKB+TSU0U77pd7342oyZFvKmXonX34j0t8DqcdeTb75Vd5blvs6e07pmd3nNnluj650PvT2PIWD1RN87v0WexrKH35LpTRe0KDFn4SLCFNVmz8u3OHeud9oscaTFDZs/9C5Dpua8OJNvf2m67OF20tJCQRO4ruekZYTJ4LLAatxxea/3KJNfe2/xilscbnT7mwLHz39/JanZmayan6u0Ij+aDETGlHlm9aBJojqdYs3CD4LWVlpnX3C1e6L4jARCA+PW575V/UsjQNWueTcIvbTMWALrlVBjG0P0vS5sjNo9NaLcRCF9Tphc7ENnrmv3ZrXe/Ijy90TPqx9vautMFzgkTtsU9MBmGyftlsmvffLph1XpLc1iSZfahLvfdCtbFhom+wrYa2rhAOaHGcKxBNZym8s3t3Xb9s/EjtHCtUttvaiNdtQquHOLrZeu3ufTbO0Cly8q7brPqdn85ZwBT9/UQ0y7h90WYOVRjLGvIopulX0h7LJk+G7KPSiZ+oEVu67Fnq9s6HlcQBl7XktPb7b37npxjly9r0Oq2NIFPs8//c0+R7qdRZ8pn99Wuhqp4cHffiN6hq188zvZl8MG8TXziYt1PooH1v7m3wt79pPTkAO0iZ7DwTwtiI/YLNu5Yr9t89OCxiUPfelsx7OIG9Iy9JH2nBdtb7gtbarTOV72VRHrcM8fJF7iVCoHVvtHa9txa5XZkaOilgocq/L08SFOXrl0J3ZNdWC2GogsXSxM6s+ENCf7bi9j9TVwg+NrbGvPC8t957VhZMePZF/eFMoG1tJacxy5+6z7Dv1i9vh2RICdD5nNRB865eDUzSr22wKrJHY9pyArrW/T196kfXW8u1ah6Em8bZ7s65pKzcAatqKVc3+yy52mXMq2jxacIP/2IiHiRxnzOPjWsgr8Ssg6EkXYm/9KPvvbM6r1QRlXRqjEn/rIvqzpFAysyDOLRbxeZreoMOe3O6dvO37S0ZYamPVzQ6fncZGe6szjdEOZm9+klzMt2tJCiaeM3KIe3SD7omaiXGCd3v6186PwsfXntUs7l3D48bqZSf2c/Bi3UZdBsjvs1U2M7T9blmc5O59V9ZX9mtXcL/VkX9Is1Aqs+PpznFkPkN3Jc1aa2b7+zfa8WCLa3cCpWVw6r8xndgbKs7U/+KiNL5+9+GysU1dGsMMBsq9oNioF1pIRdiwKZ7Omq4WGvi6tmSZG8f64tSS4ayvZHdX1BFMPaux0ul2zzsc7cGVEGzbe+he7NlMnsIpckLfeP8nMfuzXUdnA0rRyZ+2exO2O3iu7k/pGswT21hDnfg1mmOfQ52AC5VHwGaUigRVcZo7skdAKM19IhQNLO9LG1jk8bPkLsntohGWNyqn1cto2a7m7vovucVz21fRGicCqukmFP9oJL7NeSpUDS1tT0745vP9X1VYxZHXvMdMuBO+VdyNfR+LmRpZ1PCL7anqlRGA9IHsUboguw3gtu8huqaGEYjZN4XZ3SvhU0BLzvUGml5PZvmXNbLo0wiW2lr+40CslAut92aOQavNFtqupdmBpWk87Hr1H1lfwiUZWvRPNOvGh5KUoMze6Y4FDWzXXrGgIrKwusX0MrXpgaWXFr8hqqshtsBHTp5Al7ftukNU38cIvjXhFT8geJl0IrCzyM11P5QNLe07wDF5SQs76OEteMFlRHhkiu4XJdiv/qU7kRoUvNgIri4RbWdqrfmBp24XO4EB1/+Jm8olxL7a2lN3AG+75QuS1Ea/datkjZASBlVU9lq0iXRBYWqC4GXxZ/pITFpuN93KZfkV2A9NMdOyDBB4Nd8oeH0MIrGyeYWhvoOxGMpjFdK/I4FhhZz9F5/a5YTcGviu7fRleqCHo2thgqpxN3ZghsLL5oZF5e90QWNoPYk6pWKruZzhZrTE8DOnsb7Lbl9kkBXfjv+Fwb9ljYwKBlV2oeXtdEVjaZNOX/AyKzpbdDVZljbpxywTZzctqpaI7vndQ+juGZAis7PaZL21wR2Bp48nzN/452X1gFm10Q3lwoezmZbfqsqiMEamG2HMk7YDAyuE20/a6JLASqOuq246W3QV2rxn0o5GCyyDDnT7Ol8Ep5e+vEFhe7DFtr0sCSwunHQp0Ru0PB7NIMNjVfqsDOyFbt57hYamzmog5p9heCKwc4qqbtdctgaXlpszfo8rthWRgpH4/IiNkN867vk5uEMuguvKfXiVDYOX0q1l7+8luIavo57mnb+wA2Y23pJt+T+6Q3TY9jwvPHIphl2SPBxMEVk67zdrrmsDSevFO32pDZTfdko/0e9Jc0W0Hkn7GfmpD7vCKnSJ7ONggsHKKNnu64J7A0l7hm75zy8tuuDXjdHtSZJHstul7lf8GWLj8sgeDEQLLizwm7XVRYJXjmr1nXfR6MNlk3Z7MlXAGE7vR8TbFj2VHZQ8FKwSWFz1N2uuiwEqowjF7p6qwAawVpXS7ougD9zSid9Xg1Waw7JFghcDyYrJJe10UWNoh67O38T2yG23RQt33baq/z014yc4YYjawv+yBYIbA8uIrk63Bn5bdQAtGWT4jduAM2W22Snepb4OvZDfNzJEeNmcRi+C3ZA8DOwSWN02M2+umwNIqWpy9PVz2/ErTTsbqdCXqquymmStoexyZyyV7ECxAYHnzu3F7XRVY661N3v0u2Ao5m+F6fflVdssYJDxiex6ZGSt/42h2CCxv7jdur6sCSztsZfIGV5DdXMt0v1Z/3hX/EL9u50QoGYh1wX1oBgSWN/ON2+uuwFprZfY+Jru14voX7JK1ZMudSCUDxWQPgCUILG9MXhO6K7AGWZi8JWU31roTY1zel0Vyj1dtIu9gWR4ILG8mGrfXXYGV0JB58v7hmuU4Gc7r9GXYKtktY/Ua8/WxQaQ7NuxPh8DyJsH4KArXLAu+4R3WybvEDfuLZPPVWZ3O5JbdMmYJbRyLp5w6y+69RQgsr4z3g3RZYL3JOHfdtBwnnd5a8csu+qUzxbl8ym7uPtmdt8jtgbVlwpxDQddCPgn9KbDmp4GbQrf3rHBJwCkvxkfOuCywFjJO3u2yG8ph1lSdzjwou2VW3ORcQmVzXnbXrXJrYK3K93Phmtsuen+j3fjPaxtow7LAsL0uC6yEMR4WZ2bKbiiH4zqd+c6eTWWi7enFR0wXyAbdbfwUYEv/8Kv3BQT8FXY1vI+4cXNfYPWf0rPLOtMPGiJv/ZgyLJsMCxceWAmrwoeEhe1Jvrqj+4h/8H2G5SKMccWGk9nE6S0y6yu0muiwQ890bRDTIzZpmLofrvzizYME78Yq6hBJq26246JsCRj/U8cGWfZoCm7c9KVcJdYLyC1XBdaaVrn/PMtSYIpxJ/mb3cKwZHGBdXJkyPCu3bpn/bakR5Xfi81fJqwOTdvLMly2bYiUcHJO3rUrum5r0DbdI6LK1tugsLTAG6wvCzSfm6OCMZ2Oi7xCHzPPaqFOCb+p7pO/5Bv6Wz/HNx1ejria1zWBdeTvwt0sHrRHOHTbeIOZA7QxTzFzdIlcZwxuFCOrvCjso77vGQbrLjt+Q0W/m79LDS9vXA+LqqCpTm/eFlVBwgd59P79xX66U9hAJVj6HEEYwZvvvDe+m/k+9dU6vkmJelcE1uB8T3Jd0On1eJtdwrDcA5SrmmzeQ3/OZWh/lfxifvuHmVe1X/xGdxNa/6P30Qx/YP31Rbcy7zxapPO1K5uT/q8AnfKbCErfmfkvGo7aOmHvVfPyzG+qJnGimp8kumU31nqDCNWoH1i983blPhCpKe8tb1/DYg9QLux7BWsuYe7Ajy0pVaXZHGlaUWsR9WRIaHXA6Owh/sDKmE/Bz9cc302nfMq/iEz+KmI6bp16i6nqq4G8c5zggpi2Jzvx+VL2en04sHaG8uyYmeE4Z7OvGJZ6gHJlLfbgdxFnxf9rVsthoa+/6rWIMamOu2im+TRQyLuvlQtY6qoq6HDsvYRZzum0sDcHs8YPs1KxrwbWwuU/Uq9JEc5mXzUs9QBhQKwGlmcq9+/aDH+YVSLyjJyAb01v6L7gLpxpPglZUPY+62HylQSs+0sKefO7YNGuCbrg2gdNrFXsk4HV//MaIi4K5+7kMwwLPUAYEMuB5WlIf/he36SKb8k1pIlbzHJLfJq7fJb5dEzEAo0C8cwXqMh7IkbO8cWj+1eKueQvdLVas+8F1omy2wQdi8v5sv5rw0IPEAbEemB5lpD/AW40riBqArWCNHvMn/ok+5e7Apb5lEdARx6zcoGqhwuo8YL1iUHTRcwlb2V9swlfC6zRXfYLuyqcGyscMSx0E2FAOALLc476XVxZ4/JFHapRrwxjhxpyVzGHofRe9J5YPJR56gZ6lc9W5ZgZFEJWzSQ8FmW9Zp8KrFGHuom8Kpw/dlYaFup0YJFPW3/bsPTYDcTib/iqxVbG7nh6cFdieiq3x3OW/izZ8iHyMV/Sx495Uw0xuom45rO4Dq/2ocB679eBYi9LDb5mrzEs1PHAakd8StLKsPQVtMJT/dWWvT9VuWu5al74i+Su9LL+APwVekr+zTMz+OUVcM1H8Z1S5jOB9VlHQU+uMlzka3aC4ZR1PLA8hQg1aibvEKLq0gpPEb38GGtfkmy1pyc3TKb2ZR7Pur9a5CF8VtyDEJZLMIl+0Z8dx1e3jwRWuR02XJepnO2ONyrU+cCKpT13N3wkJ2ILtxe2WepOMHdF4aZlt6X25cQXXJfobvIg/s5VL6df6Bd9VjPOun0hsOJ6dbDluvAGluETUOcDy7OWUKXxL9zIeaSiU8xgXbOUhvuj2y9Niw6lduZpvis0nbwVnqNbJQt4M3GUt273B9bM1xrYdF14A8tw5e5PhAHhDKyltK/jDI6SOkMqOMVOy8cXc3+y/4Np0WHEzpTnfSxBvlNdJvyBiL659A1Zn+Ou3PWBtZe8ol0Xb2AZ/hOUEFjEf4eN9QueTyo4WR22DQIz28Jb1yKzkvnXpN4winvfhMjPqAPZlLdq6xaQr3o+jvUMqVwfWDbiDaz2RoXKCKwWhDo17Q3dcquTvyIcbek7sht+4K1splnJ1L3KQvjnWgPq5gct+Ou2ajX1qp8gHE6GwNLHG1iGR2PJCKxthDo1Tf99xuOkcpNsaGyhF2n4j+CKNSm5Nq03mw8SJht1e6lWhLqtiSV/lvM6oXYElj7ewDLcAUZGYO0n3Ql11Cv2GPX0vlffsNKLNP256zNZcpC4mdad65TJRt1IflY1Su1WPEW86loA5VttBJY+3sAyvG2QEVi0Lyl+0St1HKXUZGbfVXvH//HdQOOCia8QNrdnar4e4u2dc1u7305s6FcxlNoRWPp4A8to+zk5gbWYUKn+Zx8lKKUmKcjXGf4tc0wenVyndacnW/P1rCOO5kZa9eyoJ4HSxgmBpY83sKYaFTqcMCDcgUXa5KmQTqHx3K/rbujPuRnsb9w1mrxQvkLrz1jidFtIq34osXpWPYivBxaxHwXjDQJLn+8EViVCpdptOoU2pxSahHV7huz4/8IbL9jbSjuTheHTamP/ow3nSodWYv1JvOyWNt/JCYGlz3cC6xVCpVoXnUKJ5yP3stSDTHZyV1navkHStEep0+0W4iIRvq+CLCPuNUp6lepBYBnxncDi31Y4yQHvZRLfqUU/z9uZVtx1Gn9wupfUn0X0z49Jx/dqWnNyA5gQH2GVJVaPwNIR9W/TkpztVi+wphMq1Sp6L5P4dpt/4vIvCr/LsNwKpP70ZWu8kUDaiFreiItLPHEvnNLE+hFYWWxt3KFMYLFdEa3CCefaGgZWLcKAcAdWMOWU3ie9lzmeUKSmzbJwslM2+bgrzWNY7gZShyiLIVN1py3FepveAgbTSG3U1lPrR2DdsOSVQp9cuNJHyCGa6gWWh7KB0a/ei5xBGiOWA6V1fMBdaSmjYueSrn2C6WloDNaThrS/gBaYI36+VItav98H1tlmw1vX/k3IaUtpFAysiYRal3stkfihMNuBE17xP+qpZFTsH6T+MOxmau48bUwd2di9AKmJ0bTFtR6/Dqyqbbrs2vMCbY54pWBg8X/OomnFvJb4KGmI7iNcN/4l4SvsujCk754zEB8LEv4IsKM9cy9Prt8/A6txqYf7hgv5+eeNgoFF2cnYe2BxnoGWinv/Ng9lT5tNRsUWJHXI8vl63jSircksRW+BqWDawdj05fh+F1hRHYav3kAadFMKBhZlFbX3wJpAGaFRlnfty+Qb7mrvNCqWf7VEMp5tJ3KibeAaKqQNxohPAj4kN8CvAqt9x4c/WkQbcRYKBtYEQq1eA2s66f70Y8pV5N+Oaa1RsZTHfKIeeNO+zswvphGGKpNaOJGyT8MNfhNY8c0ee5+6SRojfwgs2gnJnFuf38D/JfcIg1KHkToUIWaS0l7BBYhphKFapBYS3g2n8Y/AmvrTFNpvb0sMA6sioWCFAou0dx9tDQD/bch5g1I/pHRIe0bMPG1DagTDMWZkxUktvJPeAD8IrCIjhByszc4fAuttygDNI11P/sf9uQ1K/Z3SIVHPu/lPtU42SUwjDNE+H3qK3gBfD6yxd/Bvn8TLHwKLdJw07XuyN7nrvd2gVNoJX1UETNVk3PvVp2hHb4AZ2trW6fQG+HRgta/4Lml8OflBYA0jPXPn22k0zXPc9V4zKJW0CUGCqIOXH6C0QiNt5cmGlKgbBDTAdwMr8pGW9PPTuPhBYHUjDRDtZDb+aDE6DY9/sUSSPqQOZULaGlZ7RVQzdLUjta+2gBb4amBVPeD8T8E0fhBYXSjj8yptqzn+r64HGJRK2m70M1KHMiFtDWvycbcIP5La11pAC3wzsBqPP0EaWRrDwMpFKFidwGpNGR/KdzlJQrgrDjIo9R5Kj1rSepSBtsPMAlHN0HUTqX0vCmiBLwbW1OKSfgum8oPAIu0dRVzg+DB3xQUMSiUtKOY/eT2brpRW0Ja3MXmJ1L5PBbTA9wLrlrLELcbI/CCwrlLG51fLzc/iDu6KL+gXupXSIe0TWo8y7CA143+imqHrZVL7dtAb4HOBtT+UeJaLAH4QWLMp40P85fIJd8WL9QttSOmQuFubJqRm2L/naC1S+0S8xfSxwKpEPYxYBN8PrKqk8VlHm7JruSterV8oadd7cduptyc14xq9ASb4/1gkE7FOzKcC6yL/7rki+X5gvUEaH/7dkVPwH4f1jX6hpUk9ErCC+4Zg0vq24qKaoasnpXlx9E+ffSqwjoXKfdaezvcDi/bNPnFnzDu5K/5bv9C7SD0StwCKNIXzCmuGnrKU5j0rogW+E1hty1MGUyTDwCpMKFiZwKpJGZ7BxClbi7vmCvqFFqX0iHwUTAbSE9gSwpqhh7TL4Q8iWuAzgVXzVcpYCuX7gfUTZXhWEafsJu6aR+oXSvv2+RSxSxmWUZohYPcWE6SV+EK+B/CRwIolnkcrlO8HFunZ673EKduPu2aDfQMrUXqkcR8Km0MfSjO+oddv4m5K8+4R0QLfCKyDpA8rRPP9wCL9eaBu27SCu+YP9Au9jdIj7TSxSxnCKc1oKawZevj30xdw4VP4RGDFDKGMo3C+H1ikXwajiVOWP1sMJtTrlB5pIg4lvIH0BewhYc3Qw39iUZK6IlrgC4H1oQqLrzLx/cAibd83iDhlC3HX/JF+obTNicXt60K6w7pZWDP09KI0D8+wbuiwkjKKNjAMLP6X8goFVgBleCYTp+yn3DVf0S+U9BpBlWdYQfT6TURQmoe3hCm+o+3SaAPfD6y/KMNziThlO3HXvFu/UNodlri3hKTJLOwbbF2vUZqHdVjJLtpxdjON7wdWHcrwUF8W8S+ZMtjXhvYMS9w6rM2UZvQU1gw9FyjNixPRArcHVvt7KUNoD98PrDDK8FDP8OvIXbPBj1HaNgTiVrqTdhq5Q1gz9NDO+xaxkbTLAyue9LfeJr4fWKSjCF4gTln+74Le1y+UtHZfu4vYpXTHSN8SPimqGbpop3xdFNAClwcW6dsmu/h+YC2kDA/1UQb/Z3/r9QvlfzCW7Hdil9INJDWji6hm6DpPat8ZAS1wd2DxvzCyk+8HFqU4TWtEm7J/cFdssHKxDKlHm2g9yjCW1AxhuanrGVL7aKcl3eDqwGorf7M+bwwD60lCwcoE1iXS+BAXAazjrriefqHbSD0qxt56Y/xhnKyyqGboOkBqH3Gr2RRuDqxINba/ysH3A4u0QzL1lwH/ee4G7ye/I/VI2EZUzUnNmCaqGbpon1z+LKAFbg6skqTRs4/vB9Z9pPGpSZuyH3JX/LV+oadJPYqg9SgDbTlYdVHN0MX/hjbZHgEtcHFgTSdtLG4j3w+sVqTx2UubslW4Kz6pX2gPUo/K03qUYQSlFXGxopqhi3aA7mwBLXBxYN1OGjwb+X5gvUUan4K0Kcv/YNrgY7ZjcZQeTaT1KANp+5Z9olqhj3YjSt0cO5l7AyvG1g2RR9X9bPHj/Z7g+ovn+4H1IGlsiV8/X+SueJVBqRNJXRpG61K6MEojqNtgMNhKWiemvURvgXsDqwRp6PRsDnuwda5S025J3S+f64sNw8B6kdA4ZQKrAGmMn6UdVR/DXfEyg1JHk7rUgdSjDKTX3h/T6zdF+3BXwPmNrg2s7oNJQ5fTkXK39zvTOFstCCyvgUX8Nf4Facp25653i0GpQ0k9EnGmcZIlpEYMENMIQ7QFLbxnuWfi2sAS+QTrnu9ffGSg11oQWF4DazttvEuRpiz/v2qj4y9IxyuIOvqZthrsTjGNMDSF1MJR9K8J3RpY+wWtGY0uf/6lhvrVILC8BtYB2qDTtkFpz1/xMf1SHyf1aCR7841QdncU8oTI1ADalS9DboBbA4u2B3eq8AFFTZ6WIrC8BlZX2rhPIE3ZYfwVG/yB70LqkaAXdC1JjRgrphGGKF+WaSKWjro1sOinTvTftcP8JFrxgbWX0GRlAusccey7U6ZsNf56p+uXeobWIzGbJG+gNCFOxEnwZvLQhimc3ACXBlYM7fWqNuvudUznZuMOy2tgTaWNvtaZMmVj+es1OCyC/1F+igWUHqU5S2rCeyKaYIZ/TckN5J3DXBpYlAPfNW3Lw6zHnOAOy2tgJRL/XpA+ZYnkr/eyQanPknq0i9KjNC+RmtBXRBPMxJJ2GBRwToZLA+sjQrGDdx1kHh4ElvetCEhnJWjamjGUORvNXe8bBqXSXtgvpHQozc+kJgjbMsLQDNqVX0TcW8j2wKKcEaxffg/+OavVsbIKCIHl/R/CZ4Tykq2gzNmvuKs12nuddCCMpv1I6VGqDaQWFBXQAnPfE688dZNBuwOrmC3l/8ld5swQS1+Iig+s/xEGRJ3Aoi1117Q5lDnL/+NtnUGpG2k9ykXp0Q38X3WnEHf8tBHia0JtPe0zB9sDi/L5uX7543mLHGXxzxDusLwHViihvGRxly13IQN/YDUzKJX4/iuA0KFUv5IaMInpLRIZ8W2qpr1Dq9/uwKKsx9MvfxBnic8+YnF4EFjeA+sXQnkpKGd+8gdWR4NSia8JB09nbr8e2i5jQ8n1M5lLfN+iLTxGqt/uwLpuR/mJvK8qLG8dh5+E3gPrC0J5KUaxvqf1gj+wmhsVSzzgshZ/h26g7eeubaTWz4h8rt7LpOrtDqwQO8rn3c/W+tehCCzvgRX8KqHAFLfzz1n+wDI8BYH2mZzRkTxsiF/H/kGtnxHtaMIkG6pSqrc7sHLbUX59vvJWWR8pBJbO6/LdhAJTLOJf7c4fWIavqCgvtJM15e5QisRlpNoHO7HOPVkh6pWn7Sphd2BxPx43Kp8zBQ9YHx4Elk5gET+CTfI3d2f4A2u4UbHUx8l5uTuUgnb+hFaHVju76uQrn/AUoXq7A6unHeXzbXg5O9H68CCwdAJrBaHAVE/wdoY/sP5nVGw14iLuNYTHch5P5GRa7fYfU5/ma/KVf4+wetTuwLpmR/l8LwnzcwwPAksnsA4TCkwVXo2zM/yBZbxtFe0tHXHXHNp5NJrWjVK5JeSHWEl31/yLsewOrF12lL+Pq7h/OIYHgaUTWJHEd2rJLnB2hj+wrhuW+xixP6RbLN6VOqlm0xYLWPEn/cprIdy12x1Yz9lQPuent+05hkd8YFGWXCoUWJ7ahBLT9OPrDH9g9TQsl7wmknCeahli1S35q7Zq/xoBl74kb+12B1ZxG8rn24WjP8/wILD0AouyADbNKL6jivkD603DchM3E/szszRjD3JoV5dYNW1xkzX/Cbj0s3i3R7U7sN60oXy+FXZcn68hsPQCqwihxHSrnufpDH9glTAuuAK1P+9HcV4fyvrqZLPo6+zZPS3i0kdz7olmd2DZUf4OrtK4tgtCYOkFVuQRQpHpvuQ5QIc/sO42LjiQ3J+9fJenAfEFpVaOe2ZwWDJTxKVPqMhVud2BRXmloFd+Za7SDvEMDwJLd5+lC4QiM/Tm+AqaP7BM/mg1Jh3/nOzZ73iuTvxVar3cj4S4lBNy6bWeHOuMbA8syulJeuXzPaDkeieFwNINrE8JRWay7IzlzvAHltmNCHWbL00L5/ltRs5+R38RejyVxFx6LYzj/truwKKcz6xXPt9WAVzb8ooPLMoeIkoFVg9BJ9lGW/5pYF9gHaB3Z4r19QU/kSt14sznTPaTvyRN9ar1dwV2BxZlg0K98vn+tu/huTQILP2td0W8LEpx90BrnbEvsM4KeDrznNV9qSpTH2BRT6a17rioS6/NqWGxarsD628byi/FVRrXoSIILP3AeplQZlazV1j6R25fYHnyCejNLmuJVZm+rGkfz8Mgim7CLr0Wd3NjS1XbHVhv21D+E1ylzeQ5+ACBpR9YcwX9Jkx2xcrxTzYGFn0rAs3iPdY4Acswc3PPC15hoi58kkVvvmGhZrsD6y1C+VN0yuRckfwtx4VBYBmcxtKXUGgOn7F+OdX+U/6fUKaB1W6SiL7czb6P0aMC8iqBazUbibi765QO7OnK/OTP7sD6i1C+3qavbfiKK8txYRBYBoFF/Zwkm3fvNN0iK3ja9gcoj5nMlytRPiXLMKMJ22XZmldEbSz/DgWLp23eldMPx0uxpbzdgUX5Av4/nTI5TxdZybE7AALLILCihKwdzSTuyvAGut/x7/9j7cgfiBWYBxbvZrbZbF7Bsh9BA+KWMqm49+khoJyGpWPN0I2VTb73Da6+LYBQA0tgjSaUX1unzB85y/sfQ3uzER9YzxAGRLHA8pwnlKpn0n9ry7yR9U/L/u9Khea/SjiKMh3DgnDyVqqpdppuQDqmtYguadoEZ47LyarHCUHjlE34N+cPdKzSI2tdSxts+7Ti9QtT7iU+NWUJrAmE8ivolPkvZ3mTrO/Ki8AyCqzL5JXheiYOCqgdERS0+O+A+y4JvI9jCCzyeUBp4i6cMqqn6k+rBFX0OvesoKCc38dgy6TwIWFh94aHT9wirlCWwAonlK+3ie5W3n8neyx/m4rAMjwCnfy1sMMYAiv4HnHVzdF9lny5p7A7lInx3LOCYrrAIHEKS2D1IZT/jV6hX/KWuNjqTocILMPAuolQrAws3wgfEFnhD6sLHcxeQXCb+69SD/fLRMCR01zucPjaCcASWJSNKXW/ra/DXWRfiwfnILAMA4u6T6bTWAKrGt9+trrihsx/eMG2Gm0P9mj8fOl/fip7RcjKiXR94rknBU1V7tsGaVgCi7In2vd6ha7mL/Meayd2ILCMA4t41IvTmHZhKSy7lZYc5Z4TVGLXYjmBJbAoz/WP6xVKeTuV8PY51iuS2KTo3TxV+FFgRb5LKNh5TIHVjvIYw2nvOf1VToZgMYsyHMQQWMGU8nX3hyRuebj+SZN1fbGnbw0c/989vG+dDQNrLaHh6gWWpyjtUjiMbZ+7o7KbacEC7ilB94ptL4ltwhBY8ZTyC+iVOo7c9JPfhHbMttrH02hqjbs6Df+85e4viRfCnwIrMox8LRzEFliJ9JP3nNJKxhqsdGI+C3AOQ2D1oJQfpFfqEkEdWDPp6xlhAXPCwi6Fh0+kb/KRxp8Cy3OXsGFzAOO+UcLWYtktrgMlb8j2UxYtScAQWKcp5Q/QLVbtFxSGgbWRULCKgSX2E2ibjWQcrg9kN5QRz9nAIj0icHmGAxgCi/Rp1s+6xVI2rbGfX91heX4cJXu82VVgGy3PWHG323ZaNpB7QghC+RTZeQyBRVpZuEu3WMrxyfbzr8DyhMgeb3Z/Mw1Wkp6yW8pE5hP3G9r9JnsMrGAIrI6U8m/XLXaa7K4b8q+fhJ5q1ENAnfMN02B5XPJ0pjZrb2x0eJHsUbCAIbBI52s8rltslE3fiovhZ4Hleco1TzJWMw+YC/q00trewjZZIHsYLGAIrAOU8tfql9tSdt+N+FtgeYRsQ+cEC2dTUo4sd0Yl7tkg1ADZ48COIbAo29VphfXLrSm770b8LrDGuGXhkoWzKRup3qcC7H2xVdQU2SPBjCGwrlPKf1q/3Lkqv5ryu8DynHPHWzWtoIUhmybwjA0bTNjPPRkEGzND9liwYgis4pTyjU5ZjJDdeQP+F1i0O2nn5LUyZnfKbq2Rr05Z6Yq9YibKHg1GDIFFOUdV62RQcB7ZnTfgh4EV7I7fBW9aGbPIkbKbqy+hJvdUsMEp6l77DmEILNIKz44GBUf1l917fYaB1YJQsLqB5ZkucKNO+/zM0pWMPt0ru726znPPBFsUEbvHl10YAqs8pXzDrav2yu69Pn8MLE8TpVeapNrF1JV0z6+U3WAdHzAf4+eQda5YjsUQWJco5XczKnnuq7K7r8svA8vzEuXAQIf0tDhsldXs0/ph3BPBLuvccI/FEFiUHZK1IoZFPyy7+7r8M7Cou5Q54XOr4zZcdou9+foW7nlgn7Eu2PbQPLASSeuFLxqWPXe27P7rMQys5YSC1Q4szyeyB95UiOWBu192k3Na5vzJ9Czaqv+FlnlgTSWVX924cGWfYvnpHZYLNnR72PrIkRbm2GHLh9yzwF5nW8keGjPmgdWNVP5B48JjVV2w5q93WJ7In2UPvYkR1kcu+DXZjc5qZRvuSWC3RNU/0TIPLNrWjWZreW9V9ANVvw0sT+Qu2WNvbCPH0EUplVg/qHp/lWKT2l88mAfWT5Tio033q1b0n4f/BpbH85jswTdU2EpX0gQXkN3sDPuqcE8BR6zbIHuEjJgHFulTwmWmxbdT80ehPweWp5bKR6kEcg2eOr90w9V83p7JMKXuR7MxD6wLlOIXmg+PmqsVDQOL8irNDYHlKfqs7PHXV4lz+CqqkcKDznJPAOeUVHeBpHlgkb4w280wOl1VfIzl13dYHk+b3rIvgK6uvOO3QIXdQfpW422+o06Xkz1QeswDi7TjM9MRJyru7u7ngeVp+JHsK6BnHPcA7iAtgRYh4bxq3+PoqrRM9mB5Zx5YpLWdJRiGxuPJLXsUcvLvn4RJosareOObZAf/P8LTkg9mP/Enf9sd1z6/kt80mQYW6RhVgzMoMot8SPYw5OD3geXxVD4i+yJ4VYPwj3Cr1L2AL31BaLoEVQJkX2svTAOLdrjNWpaB8Sj4USECK+lv7HzZV8GbizxdSVdps6x2JzzUjtRyGZ5Q7xW+aWCRzszR+rEOzfBo2SORFQIr2aerZF+HnLpzD2CKmM/kNPtL/mdvEgUvmCf7emdjGljFSMV3YhmVFI+otbcFAivF3AFqLAbIpAf3AN4QfOcaCa2+ezqx2bIEN39X9hXPwjSwVpOKf4plTG44XUf2WGSGwEo1jbR/ow22cnclzWHHb7Lq/kNutDyRlYcq9FfLNLBI2/dp31kYmKj7FfqKyTCwthMKdltgeTxF68m+GJlFE3qSJrKQoz91B9/vvqdXWV18SNqjv+zMAiuRdlCStQcO3+2UPRzpEFgZYl9XaJsk/vHLbMw1x/44JsynvSZQw7AVV9RY5mIWWFVoF8vi/fuxp1U5bQiBlVlUIcGvi/j/YB+h9STd5dXO/ANs1U1Qg6W7XEz+ubSb67xo0spCpPL3WR6VRo+r8RkTAiur4Cc+Fvcg42Supdz/7T3UnqSr8YGwDum66qaloqYiS1+X9nggoe787V0vm27+4rmdVMv7HKPSfoQK55wgsHK4PH6fkKEdXSjW05D7vw4T0JM0Tefb+zS5/LcCG6uIN1rsdnoF0r45xfudq8rYPtqWqUyfEubQaNMEh4ckJwSWF1F5VlO3cTjxZtPkkvjvsKYI6Uma5wva9kX0zL7bhDZVHWOKFnfotMf+U1oH3tTeStsSaWtWBnAOSeSZC5J+GSb0+avE8prnBho2z18DK0mj37/n/7h01NDOqZsVfMFdxmpRPUk1cK8tbxT2XZ9Kb5vC/v392k4b31tMGrR6ROdpHCehNaXVy/pljhf7a/7t5MGOCUceiBhfq+PYeJa2URbTujywkkSdCbmP41fBytc6NUov4xR3T6wd/MwieNzfgpeSRg9dQF8tpr522yrefFXsHerM3q0OfVKpjaWbqiwq0uqvRBuQMsWHiJ1JOS27NDTv8s63Xk600jD/Dqxkjb69/paFTxNeqJCrQ5aNVUpz9+QOwT1JMea2D4RtTZBQ56eGdrRRUVENFhRbPZm6CefseR+XXVv/ptOx1ObUprXjHHk8lha61kr49pcJ++a9dfz68F9eWcr3h7BDIL/buIfi9VB+hD1Z9F3+fcQ3o00uTvSQv7eX+iLHy50d3Neulh09SdKwSwUBd/SjPjiw1KYGqu3suk+fvPZgnT4W7lVXfv3+nrt3bXy0Y9Pulm4XjEQRk3OgmFacerR4HeobqpkvDKlTO//9tWo+1eBssKzL6oMi/32lecXxi0deudR/0qTkf/IJkyZN2vDblZHHd4XW3FE9yvt/dRf3daxkX1e2jrt2ifLacGHZUqzvsnzX/qUfVq4ZGLo9JOh4xIMBSXaHtUr+H+UiIiJKBOW+HporsFLzuzq0pX4S6t05WkhsEdmWRt91fbJ4uQkTGR+fxE1679LuDyLyjl979J1HOsSMceJiAavm3HPK5k0Ppr90+06OjztmjR7wzhLZgwqkvYA1vmVY5sa0nfZPpVqhv4aE5A4KKhgR8U1QspCQkDtCKwbW7/REs3Mdvlhidh4iSMV/dtwp+xsXW6Tkz61+YG3QiUEFjk6Llz2gkOIqLbAiZLcfFPU495w6SK+czfRz9e8/HjBD96HIV0M+OxTy+jY3HILjN5YSP7cS/W4KfAX3uaaDzT/OEKxaTI0zRW+rGBq6PCTlLj70xdebN+twea7sIYSciIsatOayOwCK+o93Sp2U3XJQGHXvtiayOwCKCuOdUjtltxzUFUP8RTgqit4G8Encuwj1ld1yUBfxHaH2ruwOgKIOcs+pXbKbDsqKpH6SfbPsHoCibuWeU4VlNx2U1YyYV9rTsnsAihrOPaeKym46KKsCNbBKy+4BKKos95yycqoJ+JWl1O/XB/vDFhvAg39bSHxiBTo+p95gTZbdA1BUFPcZFJNkNx1U1YN8EtntsrsAinqFe05hGRbooK5p0LSXZHcBFMV/cvYF2U0HRTV6gZpXcfbseAPu9xf3pPpVdtNBUfQbrNGyuwCKqsa/D7hPHfMH4kynnw2IR1jg3bf8k8oXTn0HG+Qm55XWTHYfQFHfc8+pwfg6Fby5TD+851WswgKvhvEfKiLy2GfwISPpN1i9ZPcBFBXIP6nKym47KOkJel5pXWR3AhT1AP+kCpTddlDRsP70vIoeKLsXoKY3CLOqg+zGg4qCBNxgTZHdCVDUcf5Jha9TwYvKxI1GU6yQ3QtQU8ws/kmFD3MgpyXc29dm/ls4XXY3QE2LCbPqc9mNB/UEvyUgr7T5srsBaqpBOQu+jOzWg3r4j7jM7AnZ3QAlBfPvhIWvU8GLUiIeYGl9jsnuByiJ/4h6DYeaQE5N+VchZ3a/7H6Aki6+SplV12Q3H1Tzo4gH7po2q7rsjoCKtr5Pmlb4OhWy+vc9IXmlrZbdEWBzsHmwk9VdIM0qfJ0KWS2ZICavtKayewJsYrQJ9Z3bAOEZ2qyqIHu0QC2N6wnKq/KyewKMYpKuVniXRGcqCyS+z8HXqZDZ0nsE5ZX2reyuAKOYlOvVu1Y7B+p6lLICK8nMJbJHC1RS5UtReYUPKFwjJvWSTby/u91VhVLXy+STPVigkjMnROWV1lF2X4BVTPpFi57fLNLGirbmJU+r12UPFiiky2BheTXZzokPQsVkvnD1Ks61q57TO8nTajCWuUOaxDeFxZWmjZPdG2AWk/XSLcp/ky3LHF4nH8qraSNljxUoozvlA6/s8KjBRWJyXL7e40uLrmTsHhHzCh8+Q6qO5DNTM0nAGiwXifF2Ce8dMVZgFUt2ETbAynASX6dCiq2thXzunAaL3N0kRucqrr++Tcx60urjxXycqrWQPVSghg6/iYwrbZHtr8dBoBj9K7mlV7/TxNKPNbtbyN1Vklm3yB4qUEHsHaJmFP4QulGM8dWsd63TUu6y21w7Im5eLZY9UqCCc+vFxpVWN152l8CKGPNLuqr2xmZjrJY78Jdrwr6bSJbwhuyRAvnGFCd+LJFzXj0lu09gCUNgJYub8ODDnduwLYTaWqXmgHlCH4smqS17oEC6yEIC79hTFZDdKbCGMbBSLStfcPuBrjsuNvJWVOK/Rf4p+djIe2YKn1VJuskeKJBt22Tx0+oIFiO7jLXASrem/9WwgIAKEYeCgoKOR0QEBOxeOMmOnEqDQy793RcRom/akyTkkd0tsIgzsBwW96HscQKpeoSMsmNePSS7X2CVOwLrkOxhApkS77Tn9n2eE5sqgVCuCKzBMbKHCeRJ7LfBnmm1+bDsroFlrgisENmjBNIkdq5r06xK6CS7b2CdGwKrf1XZowSSbN3U37Zp9bnszgEHNwRWUdmDBHLE/9Tbvlk1Eh/Tu5ELAus/2WMEckwTtme7F1dx2+5K6gfWJHxN7686/C36S5x0JxvL7hxwUT+wasoeIpDn8i5b1l9p+5rI7hnwUT6w5sseIZBq6S5B+6lltrKG7G4BJ9UD68vpskcIJDt7fovgSTVJ+Cbg4BTFAyuhsuwBAvnmblwmclItKyK7Q8BN8cAaL3t8QAlbA8Wtx1rVQHZvgJ/agZVPzL7y4H6JJYeImVP12sruChAoHVhft5c9PKCO4DKDBMyp3Qdl9wMoVA6sr7CpDGQW+e0V6pz6fqvsTgCJwoGV8I7swQHl3DSUso/fzL2RsjsANAoH1ieyxwZUVGUx9x7cs8fJbjxQqRtYz8keGlDUxYKDuWbUIGyr5n7KBtYF3LyDniUh1pe/J+xKlN1soFM1sGpjQQMYGPj4SmsTaiJ+DvoERQMrX7zsgQHFVa1oZfeZiIGy2wtCqBlY/+F0ADC1tTPr4eIrA2W3FQRRMrBei5U9LOAKsS9PYJlPDy6R3VAQRcXAeihY9qiAWwSXuc9sOvX5RXYjQRwFAwtn5IAV4z4zmk2zHqsmu4EgkHKBteZR2UMCbvOh/jH2e7A1g29RLbD6tJE9IuBCpxZHe5tN/TvLbhgIplhgXcHjUeDyY/4cy99n/w9fOvsctQKrNZaLAq9/ey7KPJcWXZ8ru0UgnkqBta+r7NEAV2tfbHbaXJoVdIvs1oAdFAqsjzHFgKhqxT7JUykh4kfZLQF7KBNYJ7AYGQSIP/q19nYV2a0Au6gSWOVwvjOIEXVYdgvAPmoEVt0/ZY8DALiACoG1qFi87GEAADeQH1gJEUtlDwIAuIPswEp4u4PsIQAAt5AbWHFv15A9AADgHlG/vz1LVlxFH2oiu/sA4DI9AltRznrjtSpkquyeA4AbTQ1l3WxWlFadsKsoAHCK7DBivWNp9d5jF2X3FwBcbmqgE8+zeu/agSMHAUCA9vWP97Yzrb5+aAc2bAcAcdp2DrIltBYFhGLNFQAIF9lg+KGFcQLD6kRAsXXYnA8AbFN1R8XFM+gLHmbOWFyxA34HAoD9enQrGVKhHt+z+FkLe12vXxqnLAGAo2Ivdtz0+IWAGVuYgmpU+JXvc9cq2gQrrQBApv2H1z2x4OivIWVbDg0I+CssLCw8PHxIWNjkgICA+ReuFct1W9cz352V3UgAAAAAAAAAAAAAAAAAAAAAAAAAAAAAAAAAAAAAAAAAAAAAAAAAAAAAAAAAAAAAAAAAAAAAAAAAAAAAAAAAAAAAAAAAAAAAAAAAAAAAAAAAAAAAAAAAAAAAAAAAAAAAAAAAAAAAAAAAAAAAAAAAAAAAAAAAAAAAAAAAAAAAAAAAAAAAAAAAAAAAAAAAAAAAAAAAAAAAAAAAAAAAAAAAAAAAAAAAAAAAAAAAAAAAAAAAAAAAAAAAAAAAAAAAAAAAAAAAAAAAAAAAAAAAAAAAAAAAAAAAAAAAAAAAAAAAAAAAAAAAAAAAAAAAAAAAAAAAAAAAAAAAAAAAAABI8X830GNPB1xL5gAAAHx0RVh0Y29tbWVudABUaGlzIGltYWdlIGlzIGZyb20gW1ZlY3RvckxvZ29ab25lXShodHRwczovL3d3dy52ZWN0b3Jsb2dvLnpvbmUvbG9nb3MvZGphbmdvcHJvamVjdC9kamFuZ29wcm9qZWN0LWFyMjEuc3ZnKS4gIEVuam95IUyhD1oAAAAldEVYdGRhdGU6Y3JlYXRlADIwMjItMTAtMzBUMTQ6NDI6NDMrMDA6MDBICfOIAAAAJXRFWHRkYXRlOm1vZGlmeQAyMDIyLTEwLTMwVDE0OjQyOjQzKzAwOjAwOVRLNAAAAABJRU5ErkJggg==;" vertex="1" parent="b9N4R5i_NIoSZ153W1rB-11">
          <mxGeometry x="163.68" y="10.003684210526316" width="92.63157894736841" height="46.315789473684205" as="geometry" />
        </mxCell>
        <mxCell id="b9N4R5i_NIoSZ153W1rB-20" value="&lt;b&gt;&lt;font style=&quot;font-size: 17px;&quot;&gt;Django&lt;br&gt;Web&lt;br&gt;Application&lt;br&gt;&lt;/font&gt;&lt;/b&gt;" style="text;html=1;strokeColor=none;fillColor=none;align=center;verticalAlign=middle;whiteSpace=wrap;rounded=0;" vertex="1" parent="b9N4R5i_NIoSZ153W1rB-11">
          <mxGeometry x="65" y="94.73263157894738" width="60" height="25.263157894736842" as="geometry" />
        </mxCell>
        <mxCell id="b9N4R5i_NIoSZ153W1rB-21" value="" style="shape=image;verticalLabelPosition=bottom;labelBackgroundColor=default;verticalAlign=top;aspect=fixed;imageAspect=0;image=data:image/png,iVBORw0KGgoAAAANSUhEUgAABLAAAAJYCAMAAABFOO8oAAAABGdBTUEAALGPC/xhBQAAACBjSFJNAAB6JgAAgIQAAPoAAACA6AAAdTAAAOpgAAA6mAAAF3CculE8AAADAFBMVEX///+To51LZlt6jobEzcqdq6a3wr1qgXgJLiBKZVtrgnlpgHdpf3dofnamtK+SopxnfXX9/f3n6+nR2NXBy8eyvbmisKuElo98kIhvhX1mfXR3i4SDlY6Ropugr6mvu7a+yMTN1NK1wLyMnZdsgnpedm1OaV9DX1Q6WE0sTD8qSj4tTEA+W1BWcGaBlIyUpJ6ntK+7xcHT2dfz9fX19/bj5+bQ19SotbCVpZ9bdGpUbmRAXVIrSz8vTkI/XFFac2lyh39/kouls668xsPV29nq7ez+/v7y9PTm6ujY3tzM1NG9x8Suurahr6qHmZN7j4dddWxCXlR1ioKAk4y4wr7K0s/e4+H2+Pft7+7O1dK2wb2tubWksq2QoZqerKexvbjI0M3k6Ofv8fD7/Pu/ycWbqqR2i4NXcGckRTgNMSMjRDhVb2Wcq6WKnJUlRjluhHzr7u3f5OI8WU4TNikPMyUuTUFPamBxh37x9PPZ392WpqCClI1TbWMQNCYcPjE3VUqPoJq0v7v6+/vx8/LW3dq7xsKjsax4jIUxUEQfQTQLMCIZPC87WU1NZ13Hz8zh5uT3+PjL09AVOCru8O9geG8yUEUMMCOfrajW3Nltg3tMZ1wOMiQaPTBIY1nw8vFSbGIyUUZYcWiptrEwT0MUNypjenGruLPo6+o2VUni5uUdPzKGmZIoSDyfrqg4VksYOy4gQjVfd24RNSdNaF6Jm5TGz8sKLyE1VEgnRzuImpPP1tNHYlhQa2GYp6H5+voWOSsXOSyFmJGqt7L4+fnDzMmEl5BGYlfFzss9Wk95jYXb4d9ziIAiQzcSNShBXlNJZFqOn5kpST1cdGseQDO5w7/S2Nb09vVheXCZqKLs7+5ieXDX3dsbPjEhQjaaqaP8/fxke3IXOi0mRzrU2tjg5ePc4eCXpqHAysZwhn7p7OuwvLfJ0c59kIllfHOLnZba4N40U0fd4uBEYFUzUkY5V0ysubTCy8h0iYGzvrpFYVZZcmm6xMDl6ed+kYqNnphRa2IenhBCAAAAAWJLR0QAiAUdSAAAAAd0SU1FB+YKHg4qKz/2clAAADo3SURBVHja7d15nE/V/wfwj9Fwja1JMlTEiGlK9mUsLWKsCWWXbQqDMEKypAZhkJFosWRNSJYYVIZClEIpWbIrCVlS2nz7zozZ53PvPfe8z73n3M/n9fzn9/s9Hr/Odo/X3M+9557j8QAAAAAAAAAAAAAAAAAAAAAAAAAAAAAAAAAAAAAAAAAAAAAAAAAAAAAAAAAAAAAAAAAAAAAAAAAAAAAAAAAAAAAAAAAAAAAAAAAAAAAAAAAAAAAAAAAAAAAAAAAAAAAAAAAAAAAAAAAAAAAAAAAAAAAAAAAAAAAAAAAAAAAAAAAAAAAAAAAAAAAAAAAAAAAAAAAAAAAAAAAAAAAAAAAAAAAAAAAAAAAAAAAAAAAAAAAAAAAAAAAAAAAAAAAAAAAAAAAAAAAAAAAAAAAAAAAAAAAAAAAAAAAAAAAAAAAAAAAAAAAAAAAAAAAAAAAAAAAAAAAAAAAAAAAAAPiKXAH8cjOUf1MgvzyyBwcA1JJX45ePofwgm8sHAD+CwAIA10BgAYBrILAAwDUQWADgGggsAHANBBYAuAYCCwBcA4EFAK6BwAIA10BgAYBrILAAwDUQWADgGggsAHANBBYAuAYCCwBcA4EFAK6RH4EFAG6BwAIA10BgAYBrILAAwDUQWADgGggsAHANBBYAuAYCCwBcA4EFAK6BwAIA10BgAYBrILAAwDUQWADgGggsAHANBBYAuAYCCwBcA4EFAK6BwAIA10BgAYBrFEBgAYBbILAAwDUQWADgGggsAHANBBYAuAYCCwBcA4EFAK6BwAIA10BgAYBrILAAwDUQWADgGggsAHANBBYAuAYCCwBcA4EFAK6BwAIA10BgAYBrILAAwDUKIrAAwC0QWADgGggsAHANBBYAuAYCCwBcA4EFAK6BwAIA17B7HVahIH6FZQ8OAKjF7jssAABhEFgA4BoILABwDQQWALgGAgsAXAOBBQCugcACANdAYAGAayCwAMA1EFgA4Bo3I7AAwC0QWADgGggsAHANBBYAuAYCCwBcA4EFAK6BwAIA10BgAYBrILAAwDUQWADgGggsAHANBBYAuAYCCwBcA4EFAK6BwAIA10BgAdgm+JYitxa9LVexkJDiQUElgoKCbg+5486Spe4qckuw7KYpJfiW0mUCQ0PK3l2ufFhY2D3h4feGhd0XEFAh6P6KlSpXqZrp/9PPA6ta9RqVa9a6o3j+iIjaAQF1wsLqhtdLGrEHAh68+aGH76z/SIOGkbKbqKdR4yZNmzV/tGKLx4JaprQ+uflhSRc6LKxVQO2WQa0fL1z/iTZt28lup1hV27dt0KFZx06dA5PkCk3yZPL/1qVTp67NunVo271HlOwW3tD9qad79qrTO1r3H090n/v63t7vqeqyGypZuyqlnrm5VZ9o46Tpn29ArcoDU/4D/wysqJi7AkMiBvV/1ryTg4cMfa5wHlXm1bDnb+o0fESBkff1H8V6lV4YPbL4iy89Hyu76fzGjB338jPjS9QuP2FitHl/4ybVnTyl5YCHnyxZ9JWp8c63Nn7a03nDXmX+R/TsoKB+TSU0U77pd7342oyZFvKmXonX34j0t8DqcdeTb75Vd5blvs6e07pmd3nNnluj650PvT2PIWD1RN87v0WexrKH35LpTRe0KDFn4SLCFNVmz8u3OHeud9oscaTFDZs/9C5Dpua8OJNvf2m67OF20tJCQRO4ruekZYTJ4LLAatxxea/3KJNfe2/xilscbnT7mwLHz39/JanZmayan6u0Ij+aDETGlHlm9aBJojqdYs3CD4LWVlpnX3C1e6L4jARCA+PW575V/UsjQNWueTcIvbTMWALrlVBjG0P0vS5sjNo9NaLcRCF9Tphc7ENnrmv3ZrXe/Ijy90TPqx9vautMFzgkTtsU9MBmGyftlsmvffLph1XpLc1iSZfahLvfdCtbFhom+wrYa2rhAOaHGcKxBNZym8s3t3Xb9s/EjtHCtUttvaiNdtQquHOLrZeu3ufTbO0Cly8q7brPqdn85ZwBT9/UQ0y7h90WYOVRjLGvIopulX0h7LJk+G7KPSiZ+oEVu67Fnq9s6HlcQBl7XktPb7b37npxjly9r0Oq2NIFPs8//c0+R7qdRZ8pn99Wuhqp4cHffiN6hq188zvZl8MG8TXziYt1PooH1v7m3wt79pPTkAO0iZ7DwTwtiI/YLNu5Yr9t89OCxiUPfelsx7OIG9Iy9JH2nBdtb7gtbarTOV72VRHrcM8fJF7iVCoHVvtHa9txa5XZkaOilgocq/L08SFOXrl0J3ZNdWC2GogsXSxM6s+ENCf7bi9j9TVwg+NrbGvPC8t957VhZMePZF/eFMoG1tJacxy5+6z7Dv1i9vh2RICdD5nNRB865eDUzSr22wKrJHY9pyArrW/T196kfXW8u1ah6Em8bZ7s65pKzcAatqKVc3+yy52mXMq2jxacIP/2IiHiRxnzOPjWsgr8Ssg6EkXYm/9KPvvbM6r1QRlXRqjEn/rIvqzpFAysyDOLRbxeZreoMOe3O6dvO37S0ZYamPVzQ6fncZGe6szjdEOZm9+klzMt2tJCiaeM3KIe3SD7omaiXGCd3v6186PwsfXntUs7l3D48bqZSf2c/Bi3UZdBsjvs1U2M7T9blmc5O59V9ZX9mtXcL/VkX9Is1Aqs+PpznFkPkN3Jc1aa2b7+zfa8WCLa3cCpWVw6r8xndgbKs7U/+KiNL5+9+GysU1dGsMMBsq9oNioF1pIRdiwKZ7Omq4WGvi6tmSZG8f64tSS4ayvZHdX1BFMPaux0ul2zzsc7cGVEGzbe+he7NlMnsIpckLfeP8nMfuzXUdnA0rRyZ+2exO2O3iu7k/pGswT21hDnfg1mmOfQ52AC5VHwGaUigRVcZo7skdAKM19IhQNLO9LG1jk8bPkLsntohGWNyqn1cto2a7m7vovucVz21fRGicCqukmFP9oJL7NeSpUDS1tT0745vP9X1VYxZHXvMdMuBO+VdyNfR+LmRpZ1PCL7anqlRGA9IHsUboguw3gtu8huqaGEYjZN4XZ3SvhU0BLzvUGml5PZvmXNbLo0wiW2lr+40CslAut92aOQavNFtqupdmBpWk87Hr1H1lfwiUZWvRPNOvGh5KUoMze6Y4FDWzXXrGgIrKwusX0MrXpgaWXFr8hqqshtsBHTp5Al7ftukNU38cIvjXhFT8geJl0IrCzyM11P5QNLe07wDF5SQs76OEteMFlRHhkiu4XJdiv/qU7kRoUvNgIri4RbWdqrfmBp24XO4EB1/+Jm8olxL7a2lN3AG+75QuS1Ea/datkjZASBlVU9lq0iXRBYWqC4GXxZ/pITFpuN93KZfkV2A9NMdOyDBB4Nd8oeH0MIrGyeYWhvoOxGMpjFdK/I4FhhZz9F5/a5YTcGviu7fRleqCHo2thgqpxN3ZghsLL5oZF5e90QWNoPYk6pWKruZzhZrTE8DOnsb7Lbl9kkBXfjv+Fwb9ljYwKBlV2oeXtdEVjaZNOX/AyKzpbdDVZljbpxywTZzctqpaI7vndQ+juGZAis7PaZL21wR2Bp48nzN/452X1gFm10Q3lwoezmZbfqsqiMEamG2HMk7YDAyuE20/a6JLASqOuq246W3QV2rxn0o5GCyyDDnT7Ol8Ep5e+vEFhe7DFtr0sCSwunHQp0Ru0PB7NIMNjVfqsDOyFbt57hYamzmog5p9heCKwc4qqbtdctgaXlpszfo8rthWRgpH4/IiNkN867vk5uEMuguvKfXiVDYOX0q1l7+8luIavo57mnb+wA2Y23pJt+T+6Q3TY9jwvPHIphl2SPBxMEVk67zdrrmsDSevFO32pDZTfdko/0e9Jc0W0Hkn7GfmpD7vCKnSJ7ONggsHKKNnu64J7A0l7hm75zy8tuuDXjdHtSZJHstul7lf8GWLj8sgeDEQLLizwm7XVRYJXjmr1nXfR6MNlk3Z7MlXAGE7vR8TbFj2VHZQ8FKwSWFz1N2uuiwEqowjF7p6qwAawVpXS7ougD9zSid9Xg1Waw7JFghcDyYrJJe10UWNoh67O38T2yG23RQt33baq/z014yc4YYjawv+yBYIbA8uIrk63Bn5bdQAtGWT4jduAM2W22Snepb4OvZDfNzJEeNmcRi+C3ZA8DOwSWN02M2+umwNIqWpy9PVz2/ErTTsbqdCXqquymmStoexyZyyV7ECxAYHnzu3F7XRVY661N3v0u2Ao5m+F6fflVdssYJDxiex6ZGSt/42h2CCxv7jdur6sCSztsZfIGV5DdXMt0v1Z/3hX/EL9u50QoGYh1wX1oBgSWN/ON2+uuwFprZfY+Jru14voX7JK1ZMudSCUDxWQPgCUILG9MXhO6K7AGWZi8JWU31roTY1zel0Vyj1dtIu9gWR4ILG8mGrfXXYGV0JB58v7hmuU4Gc7r9GXYKtktY/Ua8/WxQaQ7NuxPh8DyJsH4KArXLAu+4R3WybvEDfuLZPPVWZ3O5JbdMmYJbRyLp5w6y+69RQgsr4z3g3RZYL3JOHfdtBwnnd5a8csu+qUzxbl8ym7uPtmdt8jtgbVlwpxDQddCPgn9KbDmp4GbQrf3rHBJwCkvxkfOuCywFjJO3u2yG8ph1lSdzjwou2VW3ORcQmVzXnbXrXJrYK3K93Phmtsuen+j3fjPaxtow7LAsL0uC6yEMR4WZ2bKbiiH4zqd+c6eTWWi7enFR0wXyAbdbfwUYEv/8Kv3BQT8FXY1vI+4cXNfYPWf0rPLOtMPGiJv/ZgyLJsMCxceWAmrwoeEhe1Jvrqj+4h/8H2G5SKMccWGk9nE6S0y6yu0muiwQ890bRDTIzZpmLofrvzizYME78Yq6hBJq26246JsCRj/U8cGWfZoCm7c9KVcJdYLyC1XBdaaVrn/PMtSYIpxJ/mb3cKwZHGBdXJkyPCu3bpn/bakR5Xfi81fJqwOTdvLMly2bYiUcHJO3rUrum5r0DbdI6LK1tugsLTAG6wvCzSfm6OCMZ2Oi7xCHzPPaqFOCb+p7pO/5Bv6Wz/HNx1ejria1zWBdeTvwt0sHrRHOHTbeIOZA7QxTzFzdIlcZwxuFCOrvCjso77vGQbrLjt+Q0W/m79LDS9vXA+LqqCpTm/eFlVBwgd59P79xX66U9hAJVj6HEEYwZvvvDe+m/k+9dU6vkmJelcE1uB8T3Jd0On1eJtdwrDcA5SrmmzeQ3/OZWh/lfxifvuHmVe1X/xGdxNa/6P30Qx/YP31Rbcy7zxapPO1K5uT/q8AnfKbCErfmfkvGo7aOmHvVfPyzG+qJnGimp8kumU31nqDCNWoH1i983blPhCpKe8tb1/DYg9QLux7BWsuYe7Ajy0pVaXZHGlaUWsR9WRIaHXA6Owh/sDKmE/Bz9cc302nfMq/iEz+KmI6bp16i6nqq4G8c5zggpi2Jzvx+VL2en04sHaG8uyYmeE4Z7OvGJZ6gHJlLfbgdxFnxf9rVsthoa+/6rWIMamOu2im+TRQyLuvlQtY6qoq6HDsvYRZzum0sDcHs8YPs1KxrwbWwuU/Uq9JEc5mXzUs9QBhQKwGlmcq9+/aDH+YVSLyjJyAb01v6L7gLpxpPglZUPY+62HylQSs+0sKefO7YNGuCbrg2gdNrFXsk4HV//MaIi4K5+7kMwwLPUAYEMuB5WlIf/he36SKb8k1pIlbzHJLfJq7fJb5dEzEAo0C8cwXqMh7IkbO8cWj+1eKueQvdLVas+8F1omy2wQdi8v5sv5rw0IPEAbEemB5lpD/AW40riBqArWCNHvMn/ok+5e7Apb5lEdARx6zcoGqhwuo8YL1iUHTRcwlb2V9swlfC6zRXfYLuyqcGyscMSx0E2FAOALLc476XVxZ4/JFHapRrwxjhxpyVzGHofRe9J5YPJR56gZ6lc9W5ZgZFEJWzSQ8FmW9Zp8KrFGHuom8Kpw/dlYaFup0YJFPW3/bsPTYDcTib/iqxVbG7nh6cFdieiq3x3OW/izZ8iHyMV/Sx495Uw0xuom45rO4Dq/2ocB679eBYi9LDb5mrzEs1PHAakd8StLKsPQVtMJT/dWWvT9VuWu5al74i+Su9LL+APwVekr+zTMz+OUVcM1H8Z1S5jOB9VlHQU+uMlzka3aC4ZR1PLA8hQg1aibvEKLq0gpPEb38GGtfkmy1pyc3TKb2ZR7Pur9a5CF8VtyDEJZLMIl+0Z8dx1e3jwRWuR02XJepnO2ONyrU+cCKpT13N3wkJ2ILtxe2WepOMHdF4aZlt6X25cQXXJfobvIg/s5VL6df6Bd9VjPOun0hsOJ6dbDluvAGluETUOcDy7OWUKXxL9zIeaSiU8xgXbOUhvuj2y9Niw6lduZpvis0nbwVnqNbJQt4M3GUt273B9bM1xrYdF14A8tw5e5PhAHhDKyltK/jDI6SOkMqOMVOy8cXc3+y/4Np0WHEzpTnfSxBvlNdJvyBiL659A1Zn+Ou3PWBtZe8ol0Xb2AZ/hOUEFjEf4eN9QueTyo4WR22DQIz28Jb1yKzkvnXpN4winvfhMjPqAPZlLdq6xaQr3o+jvUMqVwfWDbiDaz2RoXKCKwWhDo17Q3dcquTvyIcbek7sht+4K1splnJ1L3KQvjnWgPq5gct+Ou2ajX1qp8gHE6GwNLHG1iGR2PJCKxthDo1Tf99xuOkcpNsaGyhF2n4j+CKNSm5Nq03mw8SJht1e6lWhLqtiSV/lvM6oXYElj7ewDLcAUZGYO0n3Ql11Cv2GPX0vlffsNKLNP256zNZcpC4mdad65TJRt1IflY1Su1WPEW86loA5VttBJY+3sAyvG2QEVi0Lyl+0St1HKXUZGbfVXvH//HdQOOCia8QNrdnar4e4u2dc1u7305s6FcxlNoRWPp4A8to+zk5gbWYUKn+Zx8lKKUmKcjXGf4tc0wenVyndacnW/P1rCOO5kZa9eyoJ4HSxgmBpY83sKYaFTqcMCDcgUXa5KmQTqHx3K/rbujPuRnsb9w1mrxQvkLrz1jidFtIq34osXpWPYivBxaxHwXjDQJLn+8EViVCpdptOoU2pxSahHV7huz4/8IbL9jbSjuTheHTamP/ow3nSodWYv1JvOyWNt/JCYGlz3cC6xVCpVoXnUKJ5yP3stSDTHZyV1navkHStEep0+0W4iIRvq+CLCPuNUp6lepBYBnxncDi31Y4yQHvZRLfqUU/z9uZVtx1Gn9wupfUn0X0z49Jx/dqWnNyA5gQH2GVJVaPwNIR9W/TkpztVi+wphMq1Sp6L5P4dpt/4vIvCr/LsNwKpP70ZWu8kUDaiFreiItLPHEvnNLE+hFYWWxt3KFMYLFdEa3CCefaGgZWLcKAcAdWMOWU3ie9lzmeUKSmzbJwslM2+bgrzWNY7gZShyiLIVN1py3FepveAgbTSG3U1lPrR2DdsOSVQp9cuNJHyCGa6gWWh7KB0a/ei5xBGiOWA6V1fMBdaSmjYueSrn2C6WloDNaThrS/gBaYI36+VItav98H1tlmw1vX/k3IaUtpFAysiYRal3stkfihMNuBE17xP+qpZFTsH6T+MOxmau48bUwd2di9AKmJ0bTFtR6/Dqyqbbrs2vMCbY54pWBg8X/OomnFvJb4KGmI7iNcN/4l4SvsujCk754zEB8LEv4IsKM9cy9Prt8/A6txqYf7hgv5+eeNgoFF2cnYe2BxnoGWinv/Ng9lT5tNRsUWJHXI8vl63jSircksRW+BqWDawdj05fh+F1hRHYav3kAadFMKBhZlFbX3wJpAGaFRlnfty+Qb7mrvNCqWf7VEMp5tJ3KibeAaKqQNxohPAj4kN8CvAqt9x4c/WkQbcRYKBtYEQq1eA2s66f70Y8pV5N+Oaa1RsZTHfKIeeNO+zswvphGGKpNaOJGyT8MNfhNY8c0ee5+6SRojfwgs2gnJnFuf38D/JfcIg1KHkToUIWaS0l7BBYhphKFapBYS3g2n8Y/AmvrTFNpvb0sMA6sioWCFAou0dx9tDQD/bch5g1I/pHRIe0bMPG1DagTDMWZkxUktvJPeAD8IrCIjhByszc4fAuttygDNI11P/sf9uQ1K/Z3SIVHPu/lPtU42SUwjDNE+H3qK3gBfD6yxd/Bvn8TLHwKLdJw07XuyN7nrvd2gVNoJX1UETNVk3PvVp2hHb4AZ2trW6fQG+HRgta/4Lml8OflBYA0jPXPn22k0zXPc9V4zKJW0CUGCqIOXH6C0QiNt5cmGlKgbBDTAdwMr8pGW9PPTuPhBYHUjDRDtZDb+aDE6DY9/sUSSPqQOZULaGlZ7RVQzdLUjta+2gBb4amBVPeD8T8E0fhBYXSjj8yptqzn+r64HGJRK2m70M1KHMiFtDWvycbcIP5La11pAC3wzsBqPP0EaWRrDwMpFKFidwGpNGR/KdzlJQrgrDjIo9R5Kj1rSepSBtsPMAlHN0HUTqX0vCmiBLwbW1OKSfgum8oPAIu0dRVzg+DB3xQUMSiUtKOY/eT2brpRW0Ja3MXmJ1L5PBbTA9wLrlrLELcbI/CCwrlLG51fLzc/iDu6KL+gXupXSIe0TWo8y7CA143+imqHrZVL7dtAb4HOBtT+UeJaLAH4QWLMp40P85fIJd8WL9QttSOmQuFubJqRm2L/naC1S+0S8xfSxwKpEPYxYBN8PrKqk8VlHm7JruSterV8oadd7cduptyc14xq9ASb4/1gkE7FOzKcC6yL/7rki+X5gvUEaH/7dkVPwH4f1jX6hpUk9ErCC+4Zg0vq24qKaoasnpXlx9E+ffSqwjoXKfdaezvcDi/bNPnFnzDu5K/5bv9C7SD0StwCKNIXzCmuGnrKU5j0rogW+E1hty1MGUyTDwCpMKFiZwKpJGZ7BxClbi7vmCvqFFqX0iHwUTAbSE9gSwpqhh7TL4Q8iWuAzgVXzVcpYCuX7gfUTZXhWEafsJu6aR+oXSvv2+RSxSxmWUZohYPcWE6SV+EK+B/CRwIolnkcrlO8HFunZ673EKduPu2aDfQMrUXqkcR8Km0MfSjO+oddv4m5K8+4R0QLfCKyDpA8rRPP9wCL9eaBu27SCu+YP9Au9jdIj7TSxSxnCKc1oKawZevj30xdw4VP4RGDFDKGMo3C+H1ikXwajiVOWP1sMJtTrlB5pIg4lvIH0BewhYc3Qw39iUZK6IlrgC4H1oQqLrzLx/cAibd83iDhlC3HX/JF+obTNicXt60K6w7pZWDP09KI0D8+wbuiwkjKKNjAMLP6X8goFVgBleCYTp+yn3DVf0S+U9BpBlWdYQfT6TURQmoe3hCm+o+3SaAPfD6y/KMNziThlO3HXvFu/UNodlri3hKTJLOwbbF2vUZqHdVjJLtpxdjON7wdWHcrwUF8W8S+ZMtjXhvYMS9w6rM2UZvQU1gw9FyjNixPRArcHVvt7KUNoD98PrDDK8FDP8OvIXbPBj1HaNgTiVrqTdhq5Q1gz9NDO+xaxkbTLAyue9LfeJr4fWKSjCF4gTln+74Le1y+UtHZfu4vYpXTHSN8SPimqGbpop3xdFNAClwcW6dsmu/h+YC2kDA/1UQb/Z3/r9QvlfzCW7Hdil9INJDWji6hm6DpPat8ZAS1wd2DxvzCyk+8HFqU4TWtEm7J/cFdssHKxDKlHm2g9yjCW1AxhuanrGVL7aKcl3eDqwGorf7M+bwwD60lCwcoE1iXS+BAXAazjrriefqHbSD0qxt56Y/xhnKyyqGboOkBqH3Gr2RRuDqxINba/ysH3A4u0QzL1lwH/ee4G7ye/I/VI2EZUzUnNmCaqGbpon1z+LKAFbg6skqTRs4/vB9Z9pPGpSZuyH3JX/LV+oadJPYqg9SgDbTlYdVHN0MX/hjbZHgEtcHFgTSdtLG4j3w+sVqTx2UubslW4Kz6pX2gPUo/K03qUYQSlFXGxopqhi3aA7mwBLXBxYN1OGjwb+X5gvUUan4K0Kcv/YNrgY7ZjcZQeTaT1KANp+5Z9olqhj3YjSt0cO5l7AyvG1g2RR9X9bPHj/Z7g+ovn+4H1IGlsiV8/X+SueJVBqRNJXRpG61K6MEojqNtgMNhKWiemvURvgXsDqwRp6PRsDnuwda5S025J3S+f64sNw8B6kdA4ZQKrAGmMn6UdVR/DXfEyg1JHk7rUgdSjDKTX3h/T6zdF+3BXwPmNrg2s7oNJQ5fTkXK39zvTOFstCCyvgUX8Nf4Facp25653i0GpQ0k9EnGmcZIlpEYMENMIQ7QFLbxnuWfi2sAS+QTrnu9ffGSg11oQWF4DazttvEuRpiz/v2qj4y9IxyuIOvqZthrsTjGNMDSF1MJR9K8J3RpY+wWtGY0uf/6lhvrVILC8BtYB2qDTtkFpz1/xMf1SHyf1aCR7841QdncU8oTI1ADalS9DboBbA4u2B3eq8AFFTZ6WIrC8BlZX2rhPIE3ZYfwVG/yB70LqkaAXdC1JjRgrphGGKF+WaSKWjro1sOinTvTftcP8JFrxgbWX0GRlAusccey7U6ZsNf56p+uXeobWIzGbJG+gNCFOxEnwZvLQhimc3ACXBlYM7fWqNuvudUznZuMOy2tgTaWNvtaZMmVj+es1OCyC/1F+igWUHqU5S2rCeyKaYIZ/TckN5J3DXBpYlAPfNW3Lw6zHnOAOy2tgJRL/XpA+ZYnkr/eyQanPknq0i9KjNC+RmtBXRBPMxJJ2GBRwToZLA+sjQrGDdx1kHh4ElvetCEhnJWjamjGUORvNXe8bBqXSXtgvpHQozc+kJgjbMsLQDNqVX0TcW8j2wKKcEaxffg/+OavVsbIKCIHl/R/CZ4Tykq2gzNmvuKs12nuddCCMpv1I6VGqDaQWFBXQAnPfE688dZNBuwOrmC3l/8ld5swQS1+Iig+s/xEGRJ3Aoi1117Q5lDnL/+NtnUGpG2k9ykXp0Q38X3WnEHf8tBHia0JtPe0zB9sDi/L5uX7543mLHGXxzxDusLwHViihvGRxly13IQN/YDUzKJX4/iuA0KFUv5IaMInpLRIZ8W2qpr1Dq9/uwKKsx9MvfxBnic8+YnF4EFjeA+sXQnkpKGd+8gdWR4NSia8JB09nbr8e2i5jQ8n1M5lLfN+iLTxGqt/uwLpuR/mJvK8qLG8dh5+E3gPrC0J5KUaxvqf1gj+wmhsVSzzgshZ/h26g7eeubaTWz4h8rt7LpOrtDqwQO8rn3c/W+tehCCzvgRX8KqHAFLfzz1n+wDI8BYH2mZzRkTxsiF/H/kGtnxHtaMIkG6pSqrc7sHLbUX59vvJWWR8pBJbO6/LdhAJTLOJf7c4fWIavqCgvtJM15e5QisRlpNoHO7HOPVkh6pWn7Sphd2BxPx43Kp8zBQ9YHx4Elk5gET+CTfI3d2f4A2u4UbHUx8l5uTuUgnb+hFaHVju76uQrn/AUoXq7A6unHeXzbXg5O9H68CCwdAJrBaHAVE/wdoY/sP5nVGw14iLuNYTHch5P5GRa7fYfU5/ma/KVf4+wetTuwLpmR/l8LwnzcwwPAksnsA4TCkwVXo2zM/yBZbxtFe0tHXHXHNp5NJrWjVK5JeSHWEl31/yLsewOrF12lL+Pq7h/OIYHgaUTWJHEd2rJLnB2hj+wrhuW+xixP6RbLN6VOqlm0xYLWPEn/cprIdy12x1Yz9lQPuent+05hkd8YFGWXCoUWJ7ahBLT9OPrDH9g9TQsl7wmknCeahli1S35q7Zq/xoBl74kb+12B1ZxG8rn24WjP8/wILD0AouyADbNKL6jivkD603DchM3E/szszRjD3JoV5dYNW1xkzX/Cbj0s3i3R7U7sN60oXy+FXZcn68hsPQCqwihxHSrnufpDH9glTAuuAK1P+9HcV4fyvrqZLPo6+zZPS3i0kdz7olmd2DZUf4OrtK4tgtCYOkFVuQRQpHpvuQ5QIc/sO42LjiQ3J+9fJenAfEFpVaOe2ZwWDJTxKVPqMhVud2BRXmloFd+Za7SDvEMDwJLd5+lC4QiM/Tm+AqaP7BM/mg1Jh3/nOzZ73iuTvxVar3cj4S4lBNy6bWeHOuMbA8syulJeuXzPaDkeieFwNINrE8JRWay7IzlzvAHltmNCHWbL00L5/ltRs5+R38RejyVxFx6LYzj/truwKKcz6xXPt9WAVzb8ooPLMoeIkoFVg9BJ9lGW/5pYF9gHaB3Z4r19QU/kSt14sznTPaTvyRN9ar1dwV2BxZlg0K98vn+tu/huTQILP2td0W8LEpx90BrnbEvsM4KeDrznNV9qSpTH2BRT6a17rioS6/NqWGxarsD628byi/FVRrXoSIILP3AeplQZlazV1j6R25fYHnyCejNLmuJVZm+rGkfz8Mgim7CLr0Wd3NjS1XbHVhv21D+E1ylzeQ5+ACBpR9YcwX9Jkx2xcrxTzYGFn0rAs3iPdY4Acswc3PPC15hoi58kkVvvmGhZrsD6y1C+VN0yuRckfwtx4VBYBmcxtKXUGgOn7F+OdX+U/6fUKaB1W6SiL7czb6P0aMC8iqBazUbibi765QO7OnK/OTP7sD6i1C+3qavbfiKK8txYRBYBoFF/Zwkm3fvNN0iK3ja9gcoj5nMlytRPiXLMKMJ22XZmldEbSz/DgWLp23eldMPx0uxpbzdgUX5Av4/nTI5TxdZybE7AALLILCihKwdzSTuyvAGut/x7/9j7cgfiBWYBxbvZrbZbF7Bsh9BA+KWMqm49+khoJyGpWPN0I2VTb73Da6+LYBQA0tgjSaUX1unzB85y/sfQ3uzER9YzxAGRLHA8pwnlKpn0n9ry7yR9U/L/u9Khea/SjiKMh3DgnDyVqqpdppuQDqmtYguadoEZ47LyarHCUHjlE34N+cPdKzSI2tdSxts+7Ti9QtT7iU+NWUJrAmE8ivolPkvZ3mTrO/Ki8AyCqzL5JXheiYOCqgdERS0+O+A+y4JvI9jCCzyeUBp4i6cMqqn6k+rBFX0OvesoKCc38dgy6TwIWFh94aHT9wirlCWwAonlK+3ie5W3n8neyx/m4rAMjwCnfy1sMMYAiv4HnHVzdF9lny5p7A7lInx3LOCYrrAIHEKS2D1IZT/jV6hX/KWuNjqTocILMPAuolQrAws3wgfEFnhD6sLHcxeQXCb+69SD/fLRMCR01zucPjaCcASWJSNKXW/ra/DXWRfiwfnILAMA4u6T6bTWAKrGt9+trrihsx/eMG2Gm0P9mj8fOl/fip7RcjKiXR94rknBU1V7tsGaVgCi7In2vd6ha7mL/Meayd2ILCMA4t41IvTmHZhKSy7lZYc5Z4TVGLXYjmBJbAoz/WP6xVKeTuV8PY51iuS2KTo3TxV+FFgRb5LKNh5TIHVjvIYw2nvOf1VToZgMYsyHMQQWMGU8nX3hyRuebj+SZN1fbGnbw0c/989vG+dDQNrLaHh6gWWpyjtUjiMbZ+7o7KbacEC7ilB94ptL4ltwhBY8ZTyC+iVOo7c9JPfhHbMttrH02hqjbs6Df+85e4viRfCnwIrMox8LRzEFliJ9JP3nNJKxhqsdGI+C3AOQ2D1oJQfpFfqEkEdWDPp6xlhAXPCwi6Fh0+kb/KRxp8Cy3OXsGFzAOO+UcLWYtktrgMlb8j2UxYtScAQWKcp5Q/QLVbtFxSGgbWRULCKgSX2E2ibjWQcrg9kN5QRz9nAIj0icHmGAxgCi/Rp1s+6xVI2rbGfX91heX4cJXu82VVgGy3PWHG323ZaNpB7QghC+RTZeQyBRVpZuEu3WMrxyfbzr8DyhMgeb3Z/Mw1Wkp6yW8pE5hP3G9r9JnsMrGAIrI6U8m/XLXaa7K4b8q+fhJ5q1ENAnfMN02B5XPJ0pjZrb2x0eJHsUbCAIbBI52s8rltslE3fiovhZ4Hleco1TzJWMw+YC/q00trewjZZIHsYLGAIrAOU8tfql9tSdt+N+FtgeYRsQ+cEC2dTUo4sd0Yl7tkg1ADZ48COIbAo29VphfXLrSm770b8LrDGuGXhkoWzKRup3qcC7H2xVdQU2SPBjCGwrlPKf1q/3Lkqv5ryu8DynHPHWzWtoIUhmybwjA0bTNjPPRkEGzND9liwYgis4pTyjU5ZjJDdeQP+F1i0O2nn5LUyZnfKbq2Rr05Z6Yq9YibKHg1GDIFFOUdV62RQcB7ZnTfgh4EV7I7fBW9aGbPIkbKbqy+hJvdUsMEp6l77DmEILNIKz44GBUf1l917fYaB1YJQsLqB5ZkucKNO+/zM0pWMPt0ru726znPPBFsUEbvHl10YAqs8pXzDrav2yu69Pn8MLE8TpVeapNrF1JV0z6+U3WAdHzAf4+eQda5YjsUQWJco5XczKnnuq7K7r8svA8vzEuXAQIf0tDhsldXs0/ph3BPBLuvccI/FEFiUHZK1IoZFPyy7+7r8M7Cou5Q54XOr4zZcdou9+foW7nlgn7Eu2PbQPLASSeuFLxqWPXe27P7rMQys5YSC1Q4szyeyB95UiOWBu192k3Na5vzJ9Czaqv+FlnlgTSWVX924cGWfYvnpHZYLNnR72PrIkRbm2GHLh9yzwF5nW8keGjPmgdWNVP5B48JjVV2w5q93WJ7In2UPvYkR1kcu+DXZjc5qZRvuSWC3RNU/0TIPLNrWjWZreW9V9ANVvw0sT+Qu2WNvbCPH0EUplVg/qHp/lWKT2l88mAfWT5Tio033q1b0n4f/BpbH85jswTdU2EpX0gQXkN3sDPuqcE8BR6zbIHuEjJgHFulTwmWmxbdT80ehPweWp5bKR6kEcg2eOr90w9V83p7JMKXuR7MxD6wLlOIXmg+PmqsVDQOL8irNDYHlKfqs7PHXV4lz+CqqkcKDznJPAOeUVHeBpHlgkb4w280wOl1VfIzl13dYHk+b3rIvgK6uvOO3QIXdQfpW422+o06Xkz1QeswDi7TjM9MRJyru7u7ngeVp+JHsK6BnHPcA7iAtgRYh4bxq3+PoqrRM9mB5Zx5YpLWdJRiGxuPJLXsUcvLvn4RJosareOObZAf/P8LTkg9mP/Enf9sd1z6/kt80mQYW6RhVgzMoMot8SPYw5OD3geXxVD4i+yJ4VYPwj3Cr1L2AL31BaLoEVQJkX2svTAOLdrjNWpaB8Sj4USECK+lv7HzZV8GbizxdSVdps6x2JzzUjtRyGZ5Q7xW+aWCRzszR+rEOzfBo2SORFQIr2aerZF+HnLpzD2CKmM/kNPtL/mdvEgUvmCf7emdjGljFSMV3YhmVFI+otbcFAivF3AFqLAbIpAf3AN4QfOcaCa2+ezqx2bIEN39X9hXPwjSwVpOKf4plTG44XUf2WGSGwEo1jbR/ow22cnclzWHHb7Lq/kNutDyRlYcq9FfLNLBI2/dp31kYmKj7FfqKyTCwthMKdltgeTxF68m+GJlFE3qSJrKQoz91B9/vvqdXWV18SNqjv+zMAiuRdlCStQcO3+2UPRzpEFgZYl9XaJsk/vHLbMw1x/44JsynvSZQw7AVV9RY5mIWWFVoF8vi/fuxp1U5bQiBlVlUIcGvi/j/YB+h9STd5dXO/ANs1U1Qg6W7XEz+ubSb67xo0spCpPL3WR6VRo+r8RkTAiur4Cc+Fvcg42Supdz/7T3UnqSr8YGwDum66qaloqYiS1+X9nggoe787V0vm27+4rmdVMv7HKPSfoQK55wgsHK4PH6fkKEdXSjW05D7vw4T0JM0Tefb+zS5/LcCG6uIN1rsdnoF0r45xfudq8rYPtqWqUyfEubQaNMEh4ckJwSWF1F5VlO3cTjxZtPkkvjvsKYI6Uma5wva9kX0zL7bhDZVHWOKFnfotMf+U1oH3tTeStsSaWtWBnAOSeSZC5J+GSb0+avE8prnBho2z18DK0mj37/n/7h01NDOqZsVfMFdxmpRPUk1cK8tbxT2XZ9Kb5vC/v392k4b31tMGrR6ROdpHCehNaXVy/pljhf7a/7t5MGOCUceiBhfq+PYeJa2URbTujywkkSdCbmP41fBytc6NUov4xR3T6wd/MwieNzfgpeSRg9dQF8tpr522yrefFXsHerM3q0OfVKpjaWbqiwq0uqvRBuQMsWHiJ1JOS27NDTv8s63Xk600jD/Dqxkjb69/paFTxNeqJCrQ5aNVUpz9+QOwT1JMea2D4RtTZBQ56eGdrRRUVENFhRbPZm6CefseR+XXVv/ptOx1ObUprXjHHk8lha61kr49pcJ++a9dfz68F9eWcr3h7BDIL/buIfi9VB+hD1Z9F3+fcQ3o00uTvSQv7eX+iLHy50d3Neulh09SdKwSwUBd/SjPjiw1KYGqu3suk+fvPZgnT4W7lVXfv3+nrt3bXy0Y9Pulm4XjEQRk3OgmFacerR4HeobqpkvDKlTO//9tWo+1eBssKzL6oMi/32lecXxi0deudR/0qTkf/IJkyZN2vDblZHHd4XW3FE9yvt/dRf3daxkX1e2jrt2ifLacGHZUqzvsnzX/qUfVq4ZGLo9JOh4xIMBSXaHtUr+H+UiIiJKBOW+HporsFLzuzq0pX4S6t05WkhsEdmWRt91fbJ4uQkTGR+fxE1679LuDyLyjl979J1HOsSMceJiAavm3HPK5k0Ppr90+06OjztmjR7wzhLZgwqkvYA1vmVY5sa0nfZPpVqhv4aE5A4KKhgR8U1QspCQkDtCKwbW7/REs3Mdvlhidh4iSMV/dtwp+xsXW6Tkz61+YG3QiUEFjk6Llz2gkOIqLbAiZLcfFPU495w6SK+czfRz9e8/HjBD96HIV0M+OxTy+jY3HILjN5YSP7cS/W4KfAX3uaaDzT/OEKxaTI0zRW+rGBq6PCTlLj70xdebN+twea7sIYSciIsatOayOwCK+o93Sp2U3XJQGHXvtiayOwCKCuOdUjtltxzUFUP8RTgqit4G8Encuwj1ld1yUBfxHaH2ruwOgKIOcs+pXbKbDsqKpH6SfbPsHoCibuWeU4VlNx2U1YyYV9rTsnsAihrOPaeKym46KKsCNbBKy+4BKKos95yycqoJ+JWl1O/XB/vDFhvAg39bSHxiBTo+p95gTZbdA1BUFPcZFJNkNx1U1YN8EtntsrsAinqFe05hGRbooK5p0LSXZHcBFMV/cvYF2U0HRTV6gZpXcfbseAPu9xf3pPpVdtNBUfQbrNGyuwCKqsa/D7hPHfMH4kynnw2IR1jg3bf8k8oXTn0HG+Qm55XWTHYfQFHfc8+pwfg6Fby5TD+851WswgKvhvEfKiLy2GfwISPpN1i9ZPcBFBXIP6nKym47KOkJel5pXWR3AhT1AP+kCpTddlDRsP70vIoeKLsXoKY3CLOqg+zGg4qCBNxgTZHdCVDUcf5Jha9TwYvKxI1GU6yQ3QtQU8ws/kmFD3MgpyXc29dm/ls4XXY3QE2LCbPqc9mNB/UEvyUgr7T5srsBaqpBOQu+jOzWg3r4j7jM7AnZ3QAlBfPvhIWvU8GLUiIeYGl9jsnuByiJ/4h6DYeaQE5N+VchZ3a/7H6Aki6+SplV12Q3H1Tzo4gH7po2q7rsjoCKtr5Pmlb4OhWy+vc9IXmlrZbdEWBzsHmwk9VdIM0qfJ0KWS2ZICavtKayewJsYrQJ9Z3bAOEZ2qyqIHu0QC2N6wnKq/KyewKMYpKuVniXRGcqCyS+z8HXqZDZ0nsE5ZX2reyuAKOYlOvVu1Y7B+p6lLICK8nMJbJHC1RS5UtReYUPKFwjJvWSTby/u91VhVLXy+STPVigkjMnROWV1lF2X4BVTPpFi57fLNLGirbmJU+r12UPFiiky2BheTXZzokPQsVkvnD1Ks61q57TO8nTajCWuUOaxDeFxZWmjZPdG2AWk/XSLcp/ky3LHF4nH8qraSNljxUoozvlA6/s8KjBRWJyXL7e40uLrmTsHhHzCh8+Q6qO5DNTM0nAGiwXifF2Ce8dMVZgFUt2ETbAynASX6dCiq2thXzunAaL3N0kRucqrr++Tcx60urjxXycqrWQPVSghg6/iYwrbZHtr8dBoBj9K7mlV7/TxNKPNbtbyN1Vklm3yB4qUEHsHaJmFP4QulGM8dWsd63TUu6y21w7Im5eLZY9UqCCc+vFxpVWN152l8CKGPNLuqr2xmZjrJY78Jdrwr6bSJbwhuyRAvnGFCd+LJFzXj0lu09gCUNgJYub8ODDnduwLYTaWqXmgHlCH4smqS17oEC6yEIC79hTFZDdKbCGMbBSLStfcPuBrjsuNvJWVOK/Rf4p+djIe2YKn1VJuskeKJBt22Tx0+oIFiO7jLXASrem/9WwgIAKEYeCgoKOR0QEBOxeOMmOnEqDQy793RcRom/akyTkkd0tsIgzsBwW96HscQKpeoSMsmNePSS7X2CVOwLrkOxhApkS77Tn9n2eE5sqgVCuCKzBMbKHCeRJ7LfBnmm1+bDsroFlrgisENmjBNIkdq5r06xK6CS7b2CdGwKrf1XZowSSbN3U37Zp9bnszgEHNwRWUdmDBHLE/9Tbvlk1Eh/Tu5ELAus/2WMEckwTtme7F1dx2+5K6gfWJHxN7686/C36S5x0JxvL7hxwUT+wasoeIpDn8i5b1l9p+5rI7hnwUT6w5sseIZBq6S5B+6lltrKG7G4BJ9UD68vpskcIJDt7fovgSTVJ+Cbg4BTFAyuhsuwBAvnmblwmclItKyK7Q8BN8cAaL3t8QAlbA8Wtx1rVQHZvgJ/agZVPzL7y4H6JJYeImVP12sruChAoHVhft5c9PKCO4DKDBMyp3Qdl9wMoVA6sr7CpDGQW+e0V6pz6fqvsTgCJwoGV8I7swQHl3DSUso/fzL2RsjsANAoH1ieyxwZUVGUx9x7cs8fJbjxQqRtYz8keGlDUxYKDuWbUIGyr5n7KBtYF3LyDniUh1pe/J+xKlN1soFM1sGpjQQMYGPj4SmsTaiJ+DvoERQMrX7zsgQHFVa1oZfeZiIGy2wtCqBlY/+F0ADC1tTPr4eIrA2W3FQRRMrBei5U9LOAKsS9PYJlPDy6R3VAQRcXAeihY9qiAWwSXuc9sOvX5RXYjQRwFAwtn5IAV4z4zmk2zHqsmu4EgkHKBteZR2UMCbvOh/jH2e7A1g29RLbD6tJE9IuBCpxZHe5tN/TvLbhgIplhgXcHjUeDyY/4cy99n/w9fOvsctQKrNZaLAq9/ey7KPJcWXZ8ru0UgnkqBta+r7NEAV2tfbHbaXJoVdIvs1oAdFAqsjzHFgKhqxT7JUykh4kfZLQF7KBNYJ7AYGQSIP/q19nYV2a0Au6gSWOVwvjOIEXVYdgvAPmoEVt0/ZY8DALiACoG1qFi87GEAADeQH1gJEUtlDwIAuIPswEp4u4PsIQAAt5AbWHFv15A9AADgHlG/vz1LVlxFH2oiu/sA4DI9AltRznrjtSpkquyeA4AbTQ1l3WxWlFadsKsoAHCK7DBivWNp9d5jF2X3FwBcbmqgE8+zeu/agSMHAUCA9vWP97Yzrb5+aAc2bAcAcdp2DrIltBYFhGLNFQAIF9lg+KGFcQLD6kRAsXXYnA8AbFN1R8XFM+gLHmbOWFyxA34HAoD9enQrGVKhHt+z+FkLe12vXxqnLAGAo2Ivdtz0+IWAGVuYgmpU+JXvc9cq2gQrrQBApv2H1z2x4OivIWVbDg0I+CssLCw8PHxIWNjkgICA+ReuFct1W9cz352V3UgAAAAAAAAAAAAAAAAAAAAAAAAAAAAAAAAAAAAAAAAAAAAAAAAAAAAAAAAAAAAAAAAAAAAAAAAAAAAAAAAAAAAAAAAAAAAAAAAAAAAAAAAAAAAAAAAAAAAAAAAAAAAAAAAAAAAAAAAAAAAAAAAAAAAAAAAAAAAAAAAAAAAAAAAAAAAAAAAAAAAAAAAAAAAAAAAAAAAAAAAAAAAAAAAAAAAAAAAAAAAAAAAAAAAAAAAAAAAAAAAAAAAAAAAAAAAAAAAAAAAAAAAAAAAAAAAAAAAAAAAAAAAAAAAAAAAAAAAAAAAAAAAAAAAAAAAAAAAAAAAAAAAAAAAAAABI8X830GNPB1xL5gAAAHx0RVh0Y29tbWVudABUaGlzIGltYWdlIGlzIGZyb20gW1ZlY3RvckxvZ29ab25lXShodHRwczovL3d3dy52ZWN0b3Jsb2dvLnpvbmUvbG9nb3MvZGphbmdvcHJvamVjdC9kamFuZ29wcm9qZWN0LWFyMjEuc3ZnKS4gIEVuam95IUyhD1oAAAAldEVYdGRhdGU6Y3JlYXRlADIwMjItMTAtMzBUMTQ6NDI6NDMrMDA6MDBICfOIAAAAJXRFWHRkYXRlOm1vZGlmeQAyMDIyLTEwLTMwVDE0OjQyOjQzKzAwOjAwOVRLNAAAAABJRU5ErkJggg==;" vertex="1" parent="b9N4R5i_NIoSZ153W1rB-11">
          <mxGeometry x="163.68" y="10.003684210526316" width="92.63157894736841" height="46.315789473684205" as="geometry" />
        </mxCell>
        <mxCell id="b9N4R5i_NIoSZ153W1rB-24" value="&lt;h1&gt;Backend server&lt;/h1&gt;" style="text;html=1;align=center;verticalAlign=middle;resizable=0;points=[];autosize=1;strokeColor=none;fillColor=none;" vertex="1" parent="b9N4R5i_NIoSZ153W1rB-11">
          <mxGeometry x="115" y="-60" width="200" height="70" as="geometry" />
        </mxCell>
        <mxCell id="b9N4R5i_NIoSZ153W1rB-25" value="" style="group" vertex="1" connectable="0" parent="b9N4R5i_NIoSZ153W1rB-11">
          <mxGeometry width="410" height="160" as="geometry" />
        </mxCell>
        <mxCell id="b9N4R5i_NIoSZ153W1rB-26" value="" style="rounded=1;whiteSpace=wrap;html=1;" vertex="1" parent="b9N4R5i_NIoSZ153W1rB-25">
          <mxGeometry width="410" height="160" as="geometry" />
        </mxCell>
        <mxCell id="b9N4R5i_NIoSZ153W1rB-27" value="&lt;font size=&quot;1&quot;&gt;&lt;b style=&quot;font-size: 13px;&quot;&gt;Django Rest Framework&lt;/b&gt;&lt;/font&gt;" style="rounded=0;whiteSpace=wrap;html=1;" vertex="1" parent="b9N4R5i_NIoSZ153W1rB-25">
          <mxGeometry x="230" y="75.78947368421052" width="150" height="63.1578947368421" as="geometry" />
        </mxCell>
        <mxCell id="b9N4R5i_NIoSZ153W1rB-28" value="&lt;b&gt;&lt;font style=&quot;font-size: 17px;&quot;&gt;Django&lt;br&gt;Web&lt;br&gt;Application&lt;br&gt;&lt;/font&gt;&lt;/b&gt;" style="text;html=1;strokeColor=none;fillColor=none;align=center;verticalAlign=middle;whiteSpace=wrap;rounded=0;" vertex="1" parent="b9N4R5i_NIoSZ153W1rB-25">
          <mxGeometry x="65" y="94.73263157894738" width="60" height="25.263157894736842" as="geometry" />
        </mxCell>
        <mxCell id="b9N4R5i_NIoSZ153W1rB-29" style="edgeStyle=orthogonalEdgeStyle;rounded=0;orthogonalLoop=1;jettySize=auto;html=1;exitX=0.5;exitY=1;exitDx=0;exitDy=0;" edge="1" parent="b9N4R5i_NIoSZ153W1rB-25" source="b9N4R5i_NIoSZ153W1rB-27" target="b9N4R5i_NIoSZ153W1rB-27">
          <mxGeometry relative="1" as="geometry" />
        </mxCell>
        <mxCell id="b9N4R5i_NIoSZ153W1rB-30" value="" style="shape=image;verticalLabelPosition=bottom;labelBackgroundColor=default;verticalAlign=top;aspect=fixed;imageAspect=0;image=data:image/png,iVBORw0KGgoAAAANSUhEUgAABLAAAAJYCAMAAABFOO8oAAAABGdBTUEAALGPC/xhBQAAACBjSFJNAAB6JgAAgIQAAPoAAACA6AAAdTAAAOpgAAA6mAAAF3CculE8AAADAFBMVEX///+To51LZlt6jobEzcqdq6a3wr1qgXgJLiBKZVtrgnlpgHdpf3dofnamtK+SopxnfXX9/f3n6+nR2NXBy8eyvbmisKuElo98kIhvhX1mfXR3i4SDlY6Ropugr6mvu7a+yMTN1NK1wLyMnZdsgnpedm1OaV9DX1Q6WE0sTD8qSj4tTEA+W1BWcGaBlIyUpJ6ntK+7xcHT2dfz9fX19/bj5+bQ19SotbCVpZ9bdGpUbmRAXVIrSz8vTkI/XFFac2lyh39/kouls668xsPV29nq7ez+/v7y9PTm6ujY3tzM1NG9x8Suurahr6qHmZN7j4dddWxCXlR1ioKAk4y4wr7K0s/e4+H2+Pft7+7O1dK2wb2tubWksq2QoZqerKexvbjI0M3k6Ofv8fD7/Pu/ycWbqqR2i4NXcGckRTgNMSMjRDhVb2Wcq6WKnJUlRjluhHzr7u3f5OI8WU4TNikPMyUuTUFPamBxh37x9PPZ392WpqCClI1TbWMQNCYcPjE3VUqPoJq0v7v6+/vx8/LW3dq7xsKjsax4jIUxUEQfQTQLMCIZPC87WU1NZ13Hz8zh5uT3+PjL09AVOCru8O9geG8yUEUMMCOfrajW3Nltg3tMZ1wOMiQaPTBIY1nw8vFSbGIyUUZYcWiptrEwT0MUNypjenGruLPo6+o2VUni5uUdPzKGmZIoSDyfrqg4VksYOy4gQjVfd24RNSdNaF6Jm5TGz8sKLyE1VEgnRzuImpPP1tNHYlhQa2GYp6H5+voWOSsXOSyFmJGqt7L4+fnDzMmEl5BGYlfFzss9Wk95jYXb4d9ziIAiQzcSNShBXlNJZFqOn5kpST1cdGseQDO5w7/S2Nb09vVheXCZqKLs7+5ieXDX3dsbPjEhQjaaqaP8/fxke3IXOi0mRzrU2tjg5ePc4eCXpqHAysZwhn7p7OuwvLfJ0c59kIllfHOLnZba4N40U0fd4uBEYFUzUkY5V0ysubTCy8h0iYGzvrpFYVZZcmm6xMDl6ed+kYqNnphRa2IenhBCAAAAAWJLR0QAiAUdSAAAAAd0SU1FB+YKHg4qKz/2clAAADo3SURBVHja7d15nE/V/wfwj9Fwja1JMlTEiGlK9mUsLWKsCWWXbQqDMEKypAZhkJFosWRNSJYYVIZClEIpWbIrCVlS2nz7zozZ53PvPfe8z73n3M/n9fzn9/s9Hr/Odo/X3M+9557j8QAAAAAAAAAAAAAAAAAAAAAAAAAAAAAAAAAAAAAAAAAAAAAAAAAAAAAAAAAAAAAAAAAAAAAAAAAAAAAAAAAAAAAAAAAAAAAAAAAAAAAAAAAAAAAAAAAAAAAAAAAAAAAAAAAAAAAAAAAAAAAAAAAAAAAAAAAAAAAAAAAAAAAAAAAAAAAAAAAAAAAAAAAAAAAAAAAAAAAAAAAAAAAAAAAAAAAAAAAAAAAAAAAAAAAAAAAAAAAAAAAAAAAAAAAAAAAAAAAAAAAAAAAAAAAAAAAAAAAAAAAAAAAAAAAAAAAAAAAAAAAAAAAAAAAAAAAAAAAAAAAAAAAAAAAAAPiKXAH8cjOUf1MgvzyyBwcA1JJX45ePofwgm8sHAD+CwAIA10BgAYBrILAAwDUQWADgGggsAHANBBYAuAYCCwBcA4EFAK6BwAIA10BgAYBrILAAwDUQWADgGggsAHANBBYAuAYCCwBcA4EFAK6RH4EFAG6BwAIA10BgAYBrILAAwDUQWADgGggsAHANBBYAuAYCCwBcA4EFAK6BwAIA10BgAYBrILAAwDUQWADgGggsAHANBBYAuAYCCwBcA4EFAK6BwAIA10BgAYBrFEBgAYBbILAAwDUQWADgGggsAHANBBYAuAYCCwBcA4EFAK6BwAIA10BgAYBrILAAwDUQWADgGggsAHANBBYAuAYCCwBcA4EFAK6BwAIA10BgAYBrILAAwDUKIrAAwC0QWADgGggsAHANBBYAuAYCCwBcA4EFAK6BwAIA17B7HVahIH6FZQ8OAKjF7jssAABhEFgA4BoILABwDQQWALgGAgsAXAOBBQCugcACANdAYAGAayCwAMA1EFgA4Bo3I7AAwC0QWADgGggsAHANBBYAuAYCCwBcA4EFAK6BwAIA10BgAYBrILAAwDUQWADgGggsAHANBBYAuAYCCwBcA4EFAK6BwAIA10BgAdgm+JYitxa9LVexkJDiQUElgoKCbg+5486Spe4qckuw7KYpJfiW0mUCQ0PK3l2ufFhY2D3h4feGhd0XEFAh6P6KlSpXqZrp/9PPA6ta9RqVa9a6o3j+iIjaAQF1wsLqhtdLGrEHAh68+aGH76z/SIOGkbKbqKdR4yZNmzV/tGKLx4JaprQ+uflhSRc6LKxVQO2WQa0fL1z/iTZt28lup1hV27dt0KFZx06dA5PkCk3yZPL/1qVTp67NunVo271HlOwW3tD9qad79qrTO1r3H090n/v63t7vqeqyGypZuyqlnrm5VZ9o46Tpn29ArcoDU/4D/wysqJi7AkMiBvV/1ryTg4cMfa5wHlXm1bDnb+o0fESBkff1H8V6lV4YPbL4iy89Hyu76fzGjB338jPjS9QuP2FitHl/4ybVnTyl5YCHnyxZ9JWp8c63Nn7a03nDXmX+R/TsoKB+TSU0U77pd7342oyZFvKmXonX34j0t8DqcdeTb75Vd5blvs6e07pmd3nNnluj650PvT2PIWD1RN87v0WexrKH35LpTRe0KDFn4SLCFNVmz8u3OHeud9oscaTFDZs/9C5Dpua8OJNvf2m67OF20tJCQRO4ruekZYTJ4LLAatxxea/3KJNfe2/xilscbnT7mwLHz39/JanZmayan6u0Ij+aDETGlHlm9aBJojqdYs3CD4LWVlpnX3C1e6L4jARCA+PW575V/UsjQNWueTcIvbTMWALrlVBjG0P0vS5sjNo9NaLcRCF9Tphc7ENnrmv3ZrXe/Ijy90TPqx9vautMFzgkTtsU9MBmGyftlsmvffLph1XpLc1iSZfahLvfdCtbFhom+wrYa2rhAOaHGcKxBNZym8s3t3Xb9s/EjtHCtUttvaiNdtQquHOLrZeu3ufTbO0Cly8q7brPqdn85ZwBT9/UQ0y7h90WYOVRjLGvIopulX0h7LJk+G7KPSiZ+oEVu67Fnq9s6HlcQBl7XktPb7b37npxjly9r0Oq2NIFPs8//c0+R7qdRZ8pn99Wuhqp4cHffiN6hq188zvZl8MG8TXziYt1PooH1v7m3wt79pPTkAO0iZ7DwTwtiI/YLNu5Yr9t89OCxiUPfelsx7OIG9Iy9JH2nBdtb7gtbarTOV72VRHrcM8fJF7iVCoHVvtHa9txa5XZkaOilgocq/L08SFOXrl0J3ZNdWC2GogsXSxM6s+ENCf7bi9j9TVwg+NrbGvPC8t957VhZMePZF/eFMoG1tJacxy5+6z7Dv1i9vh2RICdD5nNRB865eDUzSr22wKrJHY9pyArrW/T196kfXW8u1ah6Em8bZ7s65pKzcAatqKVc3+yy52mXMq2jxacIP/2IiHiRxnzOPjWsgr8Ssg6EkXYm/9KPvvbM6r1QRlXRqjEn/rIvqzpFAysyDOLRbxeZreoMOe3O6dvO37S0ZYamPVzQ6fncZGe6szjdEOZm9+klzMt2tJCiaeM3KIe3SD7omaiXGCd3v6186PwsfXntUs7l3D48bqZSf2c/Bi3UZdBsjvs1U2M7T9blmc5O59V9ZX9mtXcL/VkX9Is1Aqs+PpznFkPkN3Jc1aa2b7+zfa8WCLa3cCpWVw6r8xndgbKs7U/+KiNL5+9+GysU1dGsMMBsq9oNioF1pIRdiwKZ7Omq4WGvi6tmSZG8f64tSS4ayvZHdX1BFMPaux0ul2zzsc7cGVEGzbe+he7NlMnsIpckLfeP8nMfuzXUdnA0rRyZ+2exO2O3iu7k/pGswT21hDnfg1mmOfQ52AC5VHwGaUigRVcZo7skdAKM19IhQNLO9LG1jk8bPkLsntohGWNyqn1cto2a7m7vovucVz21fRGicCqukmFP9oJL7NeSpUDS1tT0745vP9X1VYxZHXvMdMuBO+VdyNfR+LmRpZ1PCL7anqlRGA9IHsUboguw3gtu8huqaGEYjZN4XZ3SvhU0BLzvUGml5PZvmXNbLo0wiW2lr+40CslAut92aOQavNFtqupdmBpWk87Hr1H1lfwiUZWvRPNOvGh5KUoMze6Y4FDWzXXrGgIrKwusX0MrXpgaWXFr8hqqshtsBHTp5Al7ftukNU38cIvjXhFT8geJl0IrCzyM11P5QNLe07wDF5SQs76OEteMFlRHhkiu4XJdiv/qU7kRoUvNgIri4RbWdqrfmBp24XO4EB1/+Jm8olxL7a2lN3AG+75QuS1Ea/datkjZASBlVU9lq0iXRBYWqC4GXxZ/pITFpuN93KZfkV2A9NMdOyDBB4Nd8oeH0MIrGyeYWhvoOxGMpjFdK/I4FhhZz9F5/a5YTcGviu7fRleqCHo2thgqpxN3ZghsLL5oZF5e90QWNoPYk6pWKruZzhZrTE8DOnsb7Lbl9kkBXfjv+Fwb9ljYwKBlV2oeXtdEVjaZNOX/AyKzpbdDVZljbpxywTZzctqpaI7vndQ+juGZAis7PaZL21wR2Bp48nzN/452X1gFm10Q3lwoezmZbfqsqiMEamG2HMk7YDAyuE20/a6JLASqOuq246W3QV2rxn0o5GCyyDDnT7Ol8Ep5e+vEFhe7DFtr0sCSwunHQp0Ru0PB7NIMNjVfqsDOyFbt57hYamzmog5p9heCKwc4qqbtdctgaXlpszfo8rthWRgpH4/IiNkN867vk5uEMuguvKfXiVDYOX0q1l7+8luIavo57mnb+wA2Y23pJt+T+6Q3TY9jwvPHIphl2SPBxMEVk67zdrrmsDSevFO32pDZTfdko/0e9Jc0W0Hkn7GfmpD7vCKnSJ7ONggsHKKNnu64J7A0l7hm75zy8tuuDXjdHtSZJHstul7lf8GWLj8sgeDEQLLizwm7XVRYJXjmr1nXfR6MNlk3Z7MlXAGE7vR8TbFj2VHZQ8FKwSWFz1N2uuiwEqowjF7p6qwAawVpXS7ougD9zSid9Xg1Waw7JFghcDyYrJJe10UWNoh67O38T2yG23RQt33baq/z014yc4YYjawv+yBYIbA8uIrk63Bn5bdQAtGWT4jduAM2W22Snepb4OvZDfNzJEeNmcRi+C3ZA8DOwSWN02M2+umwNIqWpy9PVz2/ErTTsbqdCXqquymmStoexyZyyV7ECxAYHnzu3F7XRVY661N3v0u2Ao5m+F6fflVdssYJDxiex6ZGSt/42h2CCxv7jdur6sCSztsZfIGV5DdXMt0v1Z/3hX/EL9u50QoGYh1wX1oBgSWN/ON2+uuwFprZfY+Jru14voX7JK1ZMudSCUDxWQPgCUILG9MXhO6K7AGWZi8JWU31roTY1zel0Vyj1dtIu9gWR4ILG8mGrfXXYGV0JB58v7hmuU4Gc7r9GXYKtktY/Ua8/WxQaQ7NuxPh8DyJsH4KArXLAu+4R3WybvEDfuLZPPVWZ3O5JbdMmYJbRyLp5w6y+69RQgsr4z3g3RZYL3JOHfdtBwnnd5a8csu+qUzxbl8ym7uPtmdt8jtgbVlwpxDQddCPgn9KbDmp4GbQrf3rHBJwCkvxkfOuCywFjJO3u2yG8ph1lSdzjwou2VW3ORcQmVzXnbXrXJrYK3K93Phmtsuen+j3fjPaxtow7LAsL0uC6yEMR4WZ2bKbiiH4zqd+c6eTWWi7enFR0wXyAbdbfwUYEv/8Kv3BQT8FXY1vI+4cXNfYPWf0rPLOtMPGiJv/ZgyLJsMCxceWAmrwoeEhe1Jvrqj+4h/8H2G5SKMccWGk9nE6S0y6yu0muiwQ890bRDTIzZpmLofrvzizYME78Yq6hBJq26246JsCRj/U8cGWfZoCm7c9KVcJdYLyC1XBdaaVrn/PMtSYIpxJ/mb3cKwZHGBdXJkyPCu3bpn/bakR5Xfi81fJqwOTdvLMly2bYiUcHJO3rUrum5r0DbdI6LK1tugsLTAG6wvCzSfm6OCMZ2Oi7xCHzPPaqFOCb+p7pO/5Bv6Wz/HNx1ejria1zWBdeTvwt0sHrRHOHTbeIOZA7QxTzFzdIlcZwxuFCOrvCjso77vGQbrLjt+Q0W/m79LDS9vXA+LqqCpTm/eFlVBwgd59P79xX66U9hAJVj6HEEYwZvvvDe+m/k+9dU6vkmJelcE1uB8T3Jd0On1eJtdwrDcA5SrmmzeQ3/OZWh/lfxifvuHmVe1X/xGdxNa/6P30Qx/YP31Rbcy7zxapPO1K5uT/q8AnfKbCErfmfkvGo7aOmHvVfPyzG+qJnGimp8kumU31nqDCNWoH1i983blPhCpKe8tb1/DYg9QLux7BWsuYe7Ajy0pVaXZHGlaUWsR9WRIaHXA6Owh/sDKmE/Bz9cc302nfMq/iEz+KmI6bp16i6nqq4G8c5zggpi2Jzvx+VL2en04sHaG8uyYmeE4Z7OvGJZ6gHJlLfbgdxFnxf9rVsthoa+/6rWIMamOu2im+TRQyLuvlQtY6qoq6HDsvYRZzum0sDcHs8YPs1KxrwbWwuU/Uq9JEc5mXzUs9QBhQKwGlmcq9+/aDH+YVSLyjJyAb01v6L7gLpxpPglZUPY+62HylQSs+0sKefO7YNGuCbrg2gdNrFXsk4HV//MaIi4K5+7kMwwLPUAYEMuB5WlIf/he36SKb8k1pIlbzHJLfJq7fJb5dEzEAo0C8cwXqMh7IkbO8cWj+1eKueQvdLVas+8F1omy2wQdi8v5sv5rw0IPEAbEemB5lpD/AW40riBqArWCNHvMn/ok+5e7Apb5lEdARx6zcoGqhwuo8YL1iUHTRcwlb2V9swlfC6zRXfYLuyqcGyscMSx0E2FAOALLc476XVxZ4/JFHapRrwxjhxpyVzGHofRe9J5YPJR56gZ6lc9W5ZgZFEJWzSQ8FmW9Zp8KrFGHuom8Kpw/dlYaFup0YJFPW3/bsPTYDcTib/iqxVbG7nh6cFdieiq3x3OW/izZ8iHyMV/Sx495Uw0xuom45rO4Dq/2ocB679eBYi9LDb5mrzEs1PHAakd8StLKsPQVtMJT/dWWvT9VuWu5al74i+Su9LL+APwVekr+zTMz+OUVcM1H8Z1S5jOB9VlHQU+uMlzka3aC4ZR1PLA8hQg1aibvEKLq0gpPEb38GGtfkmy1pyc3TKb2ZR7Pur9a5CF8VtyDEJZLMIl+0Z8dx1e3jwRWuR02XJepnO2ONyrU+cCKpT13N3wkJ2ILtxe2WepOMHdF4aZlt6X25cQXXJfobvIg/s5VL6df6Bd9VjPOun0hsOJ6dbDluvAGluETUOcDy7OWUKXxL9zIeaSiU8xgXbOUhvuj2y9Niw6lduZpvis0nbwVnqNbJQt4M3GUt273B9bM1xrYdF14A8tw5e5PhAHhDKyltK/jDI6SOkMqOMVOy8cXc3+y/4Np0WHEzpTnfSxBvlNdJvyBiL659A1Zn+Ou3PWBtZe8ol0Xb2AZ/hOUEFjEf4eN9QueTyo4WR22DQIz28Jb1yKzkvnXpN4winvfhMjPqAPZlLdq6xaQr3o+jvUMqVwfWDbiDaz2RoXKCKwWhDo17Q3dcquTvyIcbek7sht+4K1splnJ1L3KQvjnWgPq5gct+Ou2ajX1qp8gHE6GwNLHG1iGR2PJCKxthDo1Tf99xuOkcpNsaGyhF2n4j+CKNSm5Nq03mw8SJht1e6lWhLqtiSV/lvM6oXYElj7ewDLcAUZGYO0n3Ql11Cv2GPX0vlffsNKLNP256zNZcpC4mdad65TJRt1IflY1Su1WPEW86loA5VttBJY+3sAyvG2QEVi0Lyl+0St1HKXUZGbfVXvH//HdQOOCia8QNrdnar4e4u2dc1u7305s6FcxlNoRWPp4A8to+zk5gbWYUKn+Zx8lKKUmKcjXGf4tc0wenVyndacnW/P1rCOO5kZa9eyoJ4HSxgmBpY83sKYaFTqcMCDcgUXa5KmQTqHx3K/rbujPuRnsb9w1mrxQvkLrz1jidFtIq34osXpWPYivBxaxHwXjDQJLn+8EViVCpdptOoU2pxSahHV7huz4/8IbL9jbSjuTheHTamP/ow3nSodWYv1JvOyWNt/JCYGlz3cC6xVCpVoXnUKJ5yP3stSDTHZyV1navkHStEep0+0W4iIRvq+CLCPuNUp6lepBYBnxncDi31Y4yQHvZRLfqUU/z9uZVtx1Gn9wupfUn0X0z49Jx/dqWnNyA5gQH2GVJVaPwNIR9W/TkpztVi+wphMq1Sp6L5P4dpt/4vIvCr/LsNwKpP70ZWu8kUDaiFreiItLPHEvnNLE+hFYWWxt3KFMYLFdEa3CCefaGgZWLcKAcAdWMOWU3ie9lzmeUKSmzbJwslM2+bgrzWNY7gZShyiLIVN1py3FepveAgbTSG3U1lPrR2DdsOSVQp9cuNJHyCGa6gWWh7KB0a/ei5xBGiOWA6V1fMBdaSmjYueSrn2C6WloDNaThrS/gBaYI36+VItav98H1tlmw1vX/k3IaUtpFAysiYRal3stkfihMNuBE17xP+qpZFTsH6T+MOxmau48bUwd2di9AKmJ0bTFtR6/Dqyqbbrs2vMCbY54pWBg8X/OomnFvJb4KGmI7iNcN/4l4SvsujCk754zEB8LEv4IsKM9cy9Prt8/A6txqYf7hgv5+eeNgoFF2cnYe2BxnoGWinv/Ng9lT5tNRsUWJHXI8vl63jSircksRW+BqWDawdj05fh+F1hRHYav3kAadFMKBhZlFbX3wJpAGaFRlnfty+Qb7mrvNCqWf7VEMp5tJ3KibeAaKqQNxohPAj4kN8CvAqt9x4c/WkQbcRYKBtYEQq1eA2s66f70Y8pV5N+Oaa1RsZTHfKIeeNO+zswvphGGKpNaOJGyT8MNfhNY8c0ee5+6SRojfwgs2gnJnFuf38D/JfcIg1KHkToUIWaS0l7BBYhphKFapBYS3g2n8Y/AmvrTFNpvb0sMA6sioWCFAou0dx9tDQD/bch5g1I/pHRIe0bMPG1DagTDMWZkxUktvJPeAD8IrCIjhByszc4fAuttygDNI11P/sf9uQ1K/Z3SIVHPu/lPtU42SUwjDNE+H3qK3gBfD6yxd/Bvn8TLHwKLdJw07XuyN7nrvd2gVNoJX1UETNVk3PvVp2hHb4AZ2trW6fQG+HRgta/4Lml8OflBYA0jPXPn22k0zXPc9V4zKJW0CUGCqIOXH6C0QiNt5cmGlKgbBDTAdwMr8pGW9PPTuPhBYHUjDRDtZDb+aDE6DY9/sUSSPqQOZULaGlZ7RVQzdLUjta+2gBb4amBVPeD8T8E0fhBYXSjj8yptqzn+r64HGJRK2m70M1KHMiFtDWvycbcIP5La11pAC3wzsBqPP0EaWRrDwMpFKFidwGpNGR/KdzlJQrgrDjIo9R5Kj1rSepSBtsPMAlHN0HUTqX0vCmiBLwbW1OKSfgum8oPAIu0dRVzg+DB3xQUMSiUtKOY/eT2brpRW0Ja3MXmJ1L5PBbTA9wLrlrLELcbI/CCwrlLG51fLzc/iDu6KL+gXupXSIe0TWo8y7CA143+imqHrZVL7dtAb4HOBtT+UeJaLAH4QWLMp40P85fIJd8WL9QttSOmQuFubJqRm2L/naC1S+0S8xfSxwKpEPYxYBN8PrKqk8VlHm7JruSterV8oadd7cduptyc14xq9ASb4/1gkE7FOzKcC6yL/7rki+X5gvUEaH/7dkVPwH4f1jX6hpUk9ErCC+4Zg0vq24qKaoasnpXlx9E+ffSqwjoXKfdaezvcDi/bNPnFnzDu5K/5bv9C7SD0StwCKNIXzCmuGnrKU5j0rogW+E1hty1MGUyTDwCpMKFiZwKpJGZ7BxClbi7vmCvqFFqX0iHwUTAbSE9gSwpqhh7TL4Q8iWuAzgVXzVcpYCuX7gfUTZXhWEafsJu6aR+oXSvv2+RSxSxmWUZohYPcWE6SV+EK+B/CRwIolnkcrlO8HFunZ673EKduPu2aDfQMrUXqkcR8Km0MfSjO+oddv4m5K8+4R0QLfCKyDpA8rRPP9wCL9eaBu27SCu+YP9Au9jdIj7TSxSxnCKc1oKawZevj30xdw4VP4RGDFDKGMo3C+H1ikXwajiVOWP1sMJtTrlB5pIg4lvIH0BewhYc3Qw39iUZK6IlrgC4H1oQqLrzLx/cAibd83iDhlC3HX/JF+obTNicXt60K6w7pZWDP09KI0D8+wbuiwkjKKNjAMLP6X8goFVgBleCYTp+yn3DVf0S+U9BpBlWdYQfT6TURQmoe3hCm+o+3SaAPfD6y/KMNziThlO3HXvFu/UNodlri3hKTJLOwbbF2vUZqHdVjJLtpxdjON7wdWHcrwUF8W8S+ZMtjXhvYMS9w6rM2UZvQU1gw9FyjNixPRArcHVvt7KUNoD98PrDDK8FDP8OvIXbPBj1HaNgTiVrqTdhq5Q1gz9NDO+xaxkbTLAyue9LfeJr4fWKSjCF4gTln+74Le1y+UtHZfu4vYpXTHSN8SPimqGbpop3xdFNAClwcW6dsmu/h+YC2kDA/1UQb/Z3/r9QvlfzCW7Hdil9INJDWji6hm6DpPat8ZAS1wd2DxvzCyk+8HFqU4TWtEm7J/cFdssHKxDKlHm2g9yjCW1AxhuanrGVL7aKcl3eDqwGorf7M+bwwD60lCwcoE1iXS+BAXAazjrriefqHbSD0qxt56Y/xhnKyyqGboOkBqH3Gr2RRuDqxINba/ysH3A4u0QzL1lwH/ee4G7ye/I/VI2EZUzUnNmCaqGbpon1z+LKAFbg6skqTRs4/vB9Z9pPGpSZuyH3JX/LV+oadJPYqg9SgDbTlYdVHN0MX/hjbZHgEtcHFgTSdtLG4j3w+sVqTx2UubslW4Kz6pX2gPUo/K03qUYQSlFXGxopqhi3aA7mwBLXBxYN1OGjwb+X5gvUUan4K0Kcv/YNrgY7ZjcZQeTaT1KANp+5Z9olqhj3YjSt0cO5l7AyvG1g2RR9X9bPHj/Z7g+ovn+4H1IGlsiV8/X+SueJVBqRNJXRpG61K6MEojqNtgMNhKWiemvURvgXsDqwRp6PRsDnuwda5S025J3S+f64sNw8B6kdA4ZQKrAGmMn6UdVR/DXfEyg1JHk7rUgdSjDKTX3h/T6zdF+3BXwPmNrg2s7oNJQ5fTkXK39zvTOFstCCyvgUX8Nf4Facp25653i0GpQ0k9EnGmcZIlpEYMENMIQ7QFLbxnuWfi2sAS+QTrnu9ffGSg11oQWF4DazttvEuRpiz/v2qj4y9IxyuIOvqZthrsTjGNMDSF1MJR9K8J3RpY+wWtGY0uf/6lhvrVILC8BtYB2qDTtkFpz1/xMf1SHyf1aCR7841QdncU8oTI1ADalS9DboBbA4u2B3eq8AFFTZ6WIrC8BlZX2rhPIE3ZYfwVG/yB70LqkaAXdC1JjRgrphGGKF+WaSKWjro1sOinTvTftcP8JFrxgbWX0GRlAusccey7U6ZsNf56p+uXeobWIzGbJG+gNCFOxEnwZvLQhimc3ACXBlYM7fWqNuvudUznZuMOy2tgTaWNvtaZMmVj+es1OCyC/1F+igWUHqU5S2rCeyKaYIZ/TckN5J3DXBpYlAPfNW3Lw6zHnOAOy2tgJRL/XpA+ZYnkr/eyQanPknq0i9KjNC+RmtBXRBPMxJJ2GBRwToZLA+sjQrGDdx1kHh4ElvetCEhnJWjamjGUORvNXe8bBqXSXtgvpHQozc+kJgjbMsLQDNqVX0TcW8j2wKKcEaxffg/+OavVsbIKCIHl/R/CZ4Tykq2gzNmvuKs12nuddCCMpv1I6VGqDaQWFBXQAnPfE688dZNBuwOrmC3l/8ld5swQS1+Iig+s/xEGRJ3Aoi1117Q5lDnL/+NtnUGpG2k9ykXp0Q38X3WnEHf8tBHia0JtPe0zB9sDi/L5uX7543mLHGXxzxDusLwHViihvGRxly13IQN/YDUzKJX4/iuA0KFUv5IaMInpLRIZ8W2qpr1Dq9/uwKKsx9MvfxBnic8+YnF4EFjeA+sXQnkpKGd+8gdWR4NSia8JB09nbr8e2i5jQ8n1M5lLfN+iLTxGqt/uwLpuR/mJvK8qLG8dh5+E3gPrC0J5KUaxvqf1gj+wmhsVSzzgshZ/h26g7eeubaTWz4h8rt7LpOrtDqwQO8rn3c/W+tehCCzvgRX8KqHAFLfzz1n+wDI8BYH2mZzRkTxsiF/H/kGtnxHtaMIkG6pSqrc7sHLbUX59vvJWWR8pBJbO6/LdhAJTLOJf7c4fWIavqCgvtJM15e5QisRlpNoHO7HOPVkh6pWn7Sphd2BxPx43Kp8zBQ9YHx4Elk5gET+CTfI3d2f4A2u4UbHUx8l5uTuUgnb+hFaHVju76uQrn/AUoXq7A6unHeXzbXg5O9H68CCwdAJrBaHAVE/wdoY/sP5nVGw14iLuNYTHch5P5GRa7fYfU5/ma/KVf4+wetTuwLpmR/l8LwnzcwwPAksnsA4TCkwVXo2zM/yBZbxtFe0tHXHXHNp5NJrWjVK5JeSHWEl31/yLsewOrF12lL+Pq7h/OIYHgaUTWJHEd2rJLnB2hj+wrhuW+xixP6RbLN6VOqlm0xYLWPEn/cprIdy12x1Yz9lQPuent+05hkd8YFGWXCoUWJ7ahBLT9OPrDH9g9TQsl7wmknCeahli1S35q7Zq/xoBl74kb+12B1ZxG8rn24WjP8/wILD0AouyADbNKL6jivkD603DchM3E/szszRjD3JoV5dYNW1xkzX/Cbj0s3i3R7U7sN60oXy+FXZcn68hsPQCqwihxHSrnufpDH9glTAuuAK1P+9HcV4fyvrqZLPo6+zZPS3i0kdz7olmd2DZUf4OrtK4tgtCYOkFVuQRQpHpvuQ5QIc/sO42LjiQ3J+9fJenAfEFpVaOe2ZwWDJTxKVPqMhVud2BRXmloFd+Za7SDvEMDwJLd5+lC4QiM/Tm+AqaP7BM/mg1Jh3/nOzZ73iuTvxVar3cj4S4lBNy6bWeHOuMbA8syulJeuXzPaDkeieFwNINrE8JRWay7IzlzvAHltmNCHWbL00L5/ltRs5+R38RejyVxFx6LYzj/truwKKcz6xXPt9WAVzb8ooPLMoeIkoFVg9BJ9lGW/5pYF9gHaB3Z4r19QU/kSt14sznTPaTvyRN9ar1dwV2BxZlg0K98vn+tu/huTQILP2td0W8LEpx90BrnbEvsM4KeDrznNV9qSpTH2BRT6a17rioS6/NqWGxarsD628byi/FVRrXoSIILP3AeplQZlazV1j6R25fYHnyCejNLmuJVZm+rGkfz8Mgim7CLr0Wd3NjS1XbHVhv21D+E1ylzeQ5+ACBpR9YcwX9Jkx2xcrxTzYGFn0rAs3iPdY4Acswc3PPC15hoi58kkVvvmGhZrsD6y1C+VN0yuRckfwtx4VBYBmcxtKXUGgOn7F+OdX+U/6fUKaB1W6SiL7czb6P0aMC8iqBazUbibi765QO7OnK/OTP7sD6i1C+3qavbfiKK8txYRBYBoFF/Zwkm3fvNN0iK3ja9gcoj5nMlytRPiXLMKMJ22XZmldEbSz/DgWLp23eldMPx0uxpbzdgUX5Av4/nTI5TxdZybE7AALLILCihKwdzSTuyvAGut/x7/9j7cgfiBWYBxbvZrbZbF7Bsh9BA+KWMqm49+khoJyGpWPN0I2VTb73Da6+LYBQA0tgjSaUX1unzB85y/sfQ3uzER9YzxAGRLHA8pwnlKpn0n9ry7yR9U/L/u9Khea/SjiKMh3DgnDyVqqpdppuQDqmtYguadoEZ47LyarHCUHjlE34N+cPdKzSI2tdSxts+7Ti9QtT7iU+NWUJrAmE8ivolPkvZ3mTrO/Ki8AyCqzL5JXheiYOCqgdERS0+O+A+y4JvI9jCCzyeUBp4i6cMqqn6k+rBFX0OvesoKCc38dgy6TwIWFh94aHT9wirlCWwAonlK+3ie5W3n8neyx/m4rAMjwCnfy1sMMYAiv4HnHVzdF9lny5p7A7lInx3LOCYrrAIHEKS2D1IZT/jV6hX/KWuNjqTocILMPAuolQrAws3wgfEFnhD6sLHcxeQXCb+69SD/fLRMCR01zucPjaCcASWJSNKXW/ra/DXWRfiwfnILAMA4u6T6bTWAKrGt9+trrihsx/eMG2Gm0P9mj8fOl/fip7RcjKiXR94rknBU1V7tsGaVgCi7In2vd6ha7mL/Meayd2ILCMA4t41IvTmHZhKSy7lZYc5Z4TVGLXYjmBJbAoz/WP6xVKeTuV8PY51iuS2KTo3TxV+FFgRb5LKNh5TIHVjvIYw2nvOf1VToZgMYsyHMQQWMGU8nX3hyRuebj+SZN1fbGnbw0c/989vG+dDQNrLaHh6gWWpyjtUjiMbZ+7o7KbacEC7ilB94ptL4ltwhBY8ZTyC+iVOo7c9JPfhHbMttrH02hqjbs6Df+85e4viRfCnwIrMox8LRzEFliJ9JP3nNJKxhqsdGI+C3AOQ2D1oJQfpFfqEkEdWDPp6xlhAXPCwi6Fh0+kb/KRxp8Cy3OXsGFzAOO+UcLWYtktrgMlb8j2UxYtScAQWKcp5Q/QLVbtFxSGgbWRULCKgSX2E2ibjWQcrg9kN5QRz9nAIj0icHmGAxgCi/Rp1s+6xVI2rbGfX91heX4cJXu82VVgGy3PWHG323ZaNpB7QghC+RTZeQyBRVpZuEu3WMrxyfbzr8DyhMgeb3Z/Mw1Wkp6yW8pE5hP3G9r9JnsMrGAIrI6U8m/XLXaa7K4b8q+fhJ5q1ENAnfMN02B5XPJ0pjZrb2x0eJHsUbCAIbBI52s8rltslE3fiovhZ4Hleco1TzJWMw+YC/q00trewjZZIHsYLGAIrAOU8tfql9tSdt+N+FtgeYRsQ+cEC2dTUo4sd0Yl7tkg1ADZ48COIbAo29VphfXLrSm770b8LrDGuGXhkoWzKRup3qcC7H2xVdQU2SPBjCGwrlPKf1q/3Lkqv5ryu8DynHPHWzWtoIUhmybwjA0bTNjPPRkEGzND9liwYgis4pTyjU5ZjJDdeQP+F1i0O2nn5LUyZnfKbq2Rr05Z6Yq9YibKHg1GDIFFOUdV62RQcB7ZnTfgh4EV7I7fBW9aGbPIkbKbqy+hJvdUsMEp6l77DmEILNIKz44GBUf1l917fYaB1YJQsLqB5ZkucKNO+/zM0pWMPt0ru726znPPBFsUEbvHl10YAqs8pXzDrav2yu69Pn8MLE8TpVeapNrF1JV0z6+U3WAdHzAf4+eQda5YjsUQWJco5XczKnnuq7K7r8svA8vzEuXAQIf0tDhsldXs0/ph3BPBLuvccI/FEFiUHZK1IoZFPyy7+7r8M7Cou5Q54XOr4zZcdou9+foW7nlgn7Eu2PbQPLASSeuFLxqWPXe27P7rMQys5YSC1Q4szyeyB95UiOWBu192k3Na5vzJ9Czaqv+FlnlgTSWVX924cGWfYvnpHZYLNnR72PrIkRbm2GHLh9yzwF5nW8keGjPmgdWNVP5B48JjVV2w5q93WJ7In2UPvYkR1kcu+DXZjc5qZRvuSWC3RNU/0TIPLNrWjWZreW9V9ANVvw0sT+Qu2WNvbCPH0EUplVg/qHp/lWKT2l88mAfWT5Tio033q1b0n4f/BpbH85jswTdU2EpX0gQXkN3sDPuqcE8BR6zbIHuEjJgHFulTwmWmxbdT80ehPweWp5bKR6kEcg2eOr90w9V83p7JMKXuR7MxD6wLlOIXmg+PmqsVDQOL8irNDYHlKfqs7PHXV4lz+CqqkcKDznJPAOeUVHeBpHlgkb4w280wOl1VfIzl13dYHk+b3rIvgK6uvOO3QIXdQfpW422+o06Xkz1QeswDi7TjM9MRJyru7u7ngeVp+JHsK6BnHPcA7iAtgRYh4bxq3+PoqrRM9mB5Zx5YpLWdJRiGxuPJLXsUcvLvn4RJosareOObZAf/P8LTkg9mP/Enf9sd1z6/kt80mQYW6RhVgzMoMot8SPYw5OD3geXxVD4i+yJ4VYPwj3Cr1L2AL31BaLoEVQJkX2svTAOLdrjNWpaB8Sj4USECK+lv7HzZV8GbizxdSVdps6x2JzzUjtRyGZ5Q7xW+aWCRzszR+rEOzfBo2SORFQIr2aerZF+HnLpzD2CKmM/kNPtL/mdvEgUvmCf7emdjGljFSMV3YhmVFI+otbcFAivF3AFqLAbIpAf3AN4QfOcaCa2+ezqx2bIEN39X9hXPwjSwVpOKf4plTG44XUf2WGSGwEo1jbR/ow22cnclzWHHb7Lq/kNutDyRlYcq9FfLNLBI2/dp31kYmKj7FfqKyTCwthMKdltgeTxF68m+GJlFE3qSJrKQoz91B9/vvqdXWV18SNqjv+zMAiuRdlCStQcO3+2UPRzpEFgZYl9XaJsk/vHLbMw1x/44JsynvSZQw7AVV9RY5mIWWFVoF8vi/fuxp1U5bQiBlVlUIcGvi/j/YB+h9STd5dXO/ANs1U1Qg6W7XEz+ubSb67xo0spCpPL3WR6VRo+r8RkTAiur4Cc+Fvcg42Supdz/7T3UnqSr8YGwDum66qaloqYiS1+X9nggoe787V0vm27+4rmdVMv7HKPSfoQK55wgsHK4PH6fkKEdXSjW05D7vw4T0JM0Tefb+zS5/LcCG6uIN1rsdnoF0r45xfudq8rYPtqWqUyfEubQaNMEh4ckJwSWF1F5VlO3cTjxZtPkkvjvsKYI6Uma5wva9kX0zL7bhDZVHWOKFnfotMf+U1oH3tTeStsSaWtWBnAOSeSZC5J+GSb0+avE8prnBho2z18DK0mj37/n/7h01NDOqZsVfMFdxmpRPUk1cK8tbxT2XZ9Kb5vC/v392k4b31tMGrR6ROdpHCehNaXVy/pljhf7a/7t5MGOCUceiBhfq+PYeJa2URbTujywkkSdCbmP41fBytc6NUov4xR3T6wd/MwieNzfgpeSRg9dQF8tpr522yrefFXsHerM3q0OfVKpjaWbqiwq0uqvRBuQMsWHiJ1JOS27NDTv8s63Xk600jD/Dqxkjb69/paFTxNeqJCrQ5aNVUpz9+QOwT1JMea2D4RtTZBQ56eGdrRRUVENFhRbPZm6CefseR+XXVv/ptOx1ObUprXjHHk8lha61kr49pcJ++a9dfz68F9eWcr3h7BDIL/buIfi9VB+hD1Z9F3+fcQ3o00uTvSQv7eX+iLHy50d3Neulh09SdKwSwUBd/SjPjiw1KYGqu3suk+fvPZgnT4W7lVXfv3+nrt3bXy0Y9Pulm4XjEQRk3OgmFacerR4HeobqpkvDKlTO//9tWo+1eBssKzL6oMi/32lecXxi0deudR/0qTkf/IJkyZN2vDblZHHd4XW3FE9yvt/dRf3daxkX1e2jrt2ifLacGHZUqzvsnzX/qUfVq4ZGLo9JOh4xIMBSXaHtUr+H+UiIiJKBOW+HporsFLzuzq0pX4S6t05WkhsEdmWRt91fbJ4uQkTGR+fxE1679LuDyLyjl979J1HOsSMceJiAavm3HPK5k0Ppr90+06OjztmjR7wzhLZgwqkvYA1vmVY5sa0nfZPpVqhv4aE5A4KKhgR8U1QspCQkDtCKwbW7/REs3Mdvlhidh4iSMV/dtwp+xsXW6Tkz61+YG3QiUEFjk6Llz2gkOIqLbAiZLcfFPU495w6SK+czfRz9e8/HjBD96HIV0M+OxTy+jY3HILjN5YSP7cS/W4KfAX3uaaDzT/OEKxaTI0zRW+rGBq6PCTlLj70xdebN+twea7sIYSciIsatOayOwCK+o93Sp2U3XJQGHXvtiayOwCKCuOdUjtltxzUFUP8RTgqit4G8Encuwj1ld1yUBfxHaH2ruwOgKIOcs+pXbKbDsqKpH6SfbPsHoCibuWeU4VlNx2U1YyYV9rTsnsAihrOPaeKym46KKsCNbBKy+4BKKos95yycqoJ+JWl1O/XB/vDFhvAg39bSHxiBTo+p95gTZbdA1BUFPcZFJNkNx1U1YN8EtntsrsAinqFe05hGRbooK5p0LSXZHcBFMV/cvYF2U0HRTV6gZpXcfbseAPu9xf3pPpVdtNBUfQbrNGyuwCKqsa/D7hPHfMH4kynnw2IR1jg3bf8k8oXTn0HG+Qm55XWTHYfQFHfc8+pwfg6Fby5TD+851WswgKvhvEfKiLy2GfwISPpN1i9ZPcBFBXIP6nKym47KOkJel5pXWR3AhT1AP+kCpTddlDRsP70vIoeKLsXoKY3CLOqg+zGg4qCBNxgTZHdCVDUcf5Jha9TwYvKxI1GU6yQ3QtQU8ws/kmFD3MgpyXc29dm/ls4XXY3QE2LCbPqc9mNB/UEvyUgr7T5srsBaqpBOQu+jOzWg3r4j7jM7AnZ3QAlBfPvhIWvU8GLUiIeYGl9jsnuByiJ/4h6DYeaQE5N+VchZ3a/7H6Aki6+SplV12Q3H1Tzo4gH7po2q7rsjoCKtr5Pmlb4OhWy+vc9IXmlrZbdEWBzsHmwk9VdIM0qfJ0KWS2ZICavtKayewJsYrQJ9Z3bAOEZ2qyqIHu0QC2N6wnKq/KyewKMYpKuVniXRGcqCyS+z8HXqZDZ0nsE5ZX2reyuAKOYlOvVu1Y7B+p6lLICK8nMJbJHC1RS5UtReYUPKFwjJvWSTby/u91VhVLXy+STPVigkjMnROWV1lF2X4BVTPpFi57fLNLGirbmJU+r12UPFiiky2BheTXZzokPQsVkvnD1Ks61q57TO8nTajCWuUOaxDeFxZWmjZPdG2AWk/XSLcp/ky3LHF4nH8qraSNljxUoozvlA6/s8KjBRWJyXL7e40uLrmTsHhHzCh8+Q6qO5DNTM0nAGiwXifF2Ce8dMVZgFUt2ETbAynASX6dCiq2thXzunAaL3N0kRucqrr++Tcx60urjxXycqrWQPVSghg6/iYwrbZHtr8dBoBj9K7mlV7/TxNKPNbtbyN1Vklm3yB4qUEHsHaJmFP4QulGM8dWsd63TUu6y21w7Im5eLZY9UqCCc+vFxpVWN152l8CKGPNLuqr2xmZjrJY78Jdrwr6bSJbwhuyRAvnGFCd+LJFzXj0lu09gCUNgJYub8ODDnduwLYTaWqXmgHlCH4smqS17oEC6yEIC79hTFZDdKbCGMbBSLStfcPuBrjsuNvJWVOK/Rf4p+djIe2YKn1VJuskeKJBt22Tx0+oIFiO7jLXASrem/9WwgIAKEYeCgoKOR0QEBOxeOMmOnEqDQy793RcRom/akyTkkd0tsIgzsBwW96HscQKpeoSMsmNePSS7X2CVOwLrkOxhApkS77Tn9n2eE5sqgVCuCKzBMbKHCeRJ7LfBnmm1+bDsroFlrgisENmjBNIkdq5r06xK6CS7b2CdGwKrf1XZowSSbN3U37Zp9bnszgEHNwRWUdmDBHLE/9Tbvlk1Eh/Tu5ELAus/2WMEckwTtme7F1dx2+5K6gfWJHxN7686/C36S5x0JxvL7hxwUT+wasoeIpDn8i5b1l9p+5rI7hnwUT6w5sseIZBq6S5B+6lltrKG7G4BJ9UD68vpskcIJDt7fovgSTVJ+Cbg4BTFAyuhsuwBAvnmblwmclItKyK7Q8BN8cAaL3t8QAlbA8Wtx1rVQHZvgJ/agZVPzL7y4H6JJYeImVP12sruChAoHVhft5c9PKCO4DKDBMyp3Qdl9wMoVA6sr7CpDGQW+e0V6pz6fqvsTgCJwoGV8I7swQHl3DSUso/fzL2RsjsANAoH1ieyxwZUVGUx9x7cs8fJbjxQqRtYz8keGlDUxYKDuWbUIGyr5n7KBtYF3LyDniUh1pe/J+xKlN1soFM1sGpjQQMYGPj4SmsTaiJ+DvoERQMrX7zsgQHFVa1oZfeZiIGy2wtCqBlY/+F0ADC1tTPr4eIrA2W3FQRRMrBei5U9LOAKsS9PYJlPDy6R3VAQRcXAeihY9qiAWwSXuc9sOvX5RXYjQRwFAwtn5IAV4z4zmk2zHqsmu4EgkHKBteZR2UMCbvOh/jH2e7A1g29RLbD6tJE9IuBCpxZHe5tN/TvLbhgIplhgXcHjUeDyY/4cy99n/w9fOvsctQKrNZaLAq9/ey7KPJcWXZ8ru0UgnkqBta+r7NEAV2tfbHbaXJoVdIvs1oAdFAqsjzHFgKhqxT7JUykh4kfZLQF7KBNYJ7AYGQSIP/q19nYV2a0Au6gSWOVwvjOIEXVYdgvAPmoEVt0/ZY8DALiACoG1qFi87GEAADeQH1gJEUtlDwIAuIPswEp4u4PsIQAAt5AbWHFv15A9AADgHlG/vz1LVlxFH2oiu/sA4DI9AltRznrjtSpkquyeA4AbTQ1l3WxWlFadsKsoAHCK7DBivWNp9d5jF2X3FwBcbmqgE8+zeu/agSMHAUCA9vWP97Yzrb5+aAc2bAcAcdp2DrIltBYFhGLNFQAIF9lg+KGFcQLD6kRAsXXYnA8AbFN1R8XFM+gLHmbOWFyxA34HAoD9enQrGVKhHt+z+FkLe12vXxqnLAGAo2Ivdtz0+IWAGVuYgmpU+JXvc9cq2gQrrQBApv2H1z2x4OivIWVbDg0I+CssLCw8PHxIWNjkgICA+ReuFct1W9cz352V3UgAAAAAAAAAAAAAAAAAAAAAAAAAAAAAAAAAAAAAAAAAAAAAAAAAAAAAAAAAAAAAAAAAAAAAAAAAAAAAAAAAAAAAAAAAAAAAAAAAAAAAAAAAAAAAAAAAAAAAAAAAAAAAAAAAAAAAAAAAAAAAAAAAAAAAAAAAAAAAAAAAAAAAAAAAAAAAAAAAAAAAAAAAAAAAAAAAAAAAAAAAAAAAAAAAAAAAAAAAAAAAAAAAAAAAAAAAAAAAAAAAAAAAAAAAAAAAAAAAAAAAAAAAAAAAAAAAAAAAAAAAAAAAAAAAAAAAAAAAAAAAAAAAAAAAAAAAAAAAAAAAAAAAAAAAAABI8X830GNPB1xL5gAAAHx0RVh0Y29tbWVudABUaGlzIGltYWdlIGlzIGZyb20gW1ZlY3RvckxvZ29ab25lXShodHRwczovL3d3dy52ZWN0b3Jsb2dvLnpvbmUvbG9nb3MvZGphbmdvcHJvamVjdC9kamFuZ29wcm9qZWN0LWFyMjEuc3ZnKS4gIEVuam95IUyhD1oAAAAldEVYdGRhdGU6Y3JlYXRlADIwMjItMTAtMzBUMTQ6NDI6NDMrMDA6MDBICfOIAAAAJXRFWHRkYXRlOm1vZGlmeQAyMDIyLTEwLTMwVDE0OjQyOjQzKzAwOjAwOVRLNAAAAABJRU5ErkJggg==;" vertex="1" parent="b9N4R5i_NIoSZ153W1rB-25">
          <mxGeometry x="163.68" y="10.003684210526316" width="92.63157894736841" height="46.315789473684205" as="geometry" />
        </mxCell>
        <mxCell id="b9N4R5i_NIoSZ153W1rB-31" value="&lt;b&gt;&lt;font style=&quot;font-size: 17px;&quot;&gt;Django&lt;br&gt;Web&lt;br&gt;Application&lt;br&gt;&lt;/font&gt;&lt;/b&gt;" style="text;html=1;strokeColor=none;fillColor=none;align=center;verticalAlign=middle;whiteSpace=wrap;rounded=0;" vertex="1" parent="b9N4R5i_NIoSZ153W1rB-25">
          <mxGeometry x="65" y="94.73263157894738" width="60" height="25.263157894736842" as="geometry" />
        </mxCell>
        <mxCell id="b9N4R5i_NIoSZ153W1rB-32" value="" style="shape=image;verticalLabelPosition=bottom;labelBackgroundColor=default;verticalAlign=top;aspect=fixed;imageAspect=0;image=data:image/png,iVBORw0KGgoAAAANSUhEUgAABLAAAAJYCAMAAABFOO8oAAAABGdBTUEAALGPC/xhBQAAACBjSFJNAAB6JgAAgIQAAPoAAACA6AAAdTAAAOpgAAA6mAAAF3CculE8AAADAFBMVEX///+To51LZlt6jobEzcqdq6a3wr1qgXgJLiBKZVtrgnlpgHdpf3dofnamtK+SopxnfXX9/f3n6+nR2NXBy8eyvbmisKuElo98kIhvhX1mfXR3i4SDlY6Ropugr6mvu7a+yMTN1NK1wLyMnZdsgnpedm1OaV9DX1Q6WE0sTD8qSj4tTEA+W1BWcGaBlIyUpJ6ntK+7xcHT2dfz9fX19/bj5+bQ19SotbCVpZ9bdGpUbmRAXVIrSz8vTkI/XFFac2lyh39/kouls668xsPV29nq7ez+/v7y9PTm6ujY3tzM1NG9x8Suurahr6qHmZN7j4dddWxCXlR1ioKAk4y4wr7K0s/e4+H2+Pft7+7O1dK2wb2tubWksq2QoZqerKexvbjI0M3k6Ofv8fD7/Pu/ycWbqqR2i4NXcGckRTgNMSMjRDhVb2Wcq6WKnJUlRjluhHzr7u3f5OI8WU4TNikPMyUuTUFPamBxh37x9PPZ392WpqCClI1TbWMQNCYcPjE3VUqPoJq0v7v6+/vx8/LW3dq7xsKjsax4jIUxUEQfQTQLMCIZPC87WU1NZ13Hz8zh5uT3+PjL09AVOCru8O9geG8yUEUMMCOfrajW3Nltg3tMZ1wOMiQaPTBIY1nw8vFSbGIyUUZYcWiptrEwT0MUNypjenGruLPo6+o2VUni5uUdPzKGmZIoSDyfrqg4VksYOy4gQjVfd24RNSdNaF6Jm5TGz8sKLyE1VEgnRzuImpPP1tNHYlhQa2GYp6H5+voWOSsXOSyFmJGqt7L4+fnDzMmEl5BGYlfFzss9Wk95jYXb4d9ziIAiQzcSNShBXlNJZFqOn5kpST1cdGseQDO5w7/S2Nb09vVheXCZqKLs7+5ieXDX3dsbPjEhQjaaqaP8/fxke3IXOi0mRzrU2tjg5ePc4eCXpqHAysZwhn7p7OuwvLfJ0c59kIllfHOLnZba4N40U0fd4uBEYFUzUkY5V0ysubTCy8h0iYGzvrpFYVZZcmm6xMDl6ed+kYqNnphRa2IenhBCAAAAAWJLR0QAiAUdSAAAAAd0SU1FB+YKHg4qKz/2clAAADo3SURBVHja7d15nE/V/wfwj9Fwja1JMlTEiGlK9mUsLWKsCWWXbQqDMEKypAZhkJFosWRNSJYYVIZClEIpWbIrCVlS2nz7zozZ53PvPfe8z73n3M/n9fzn9/s9Hr/Odo/X3M+9557j8QAAAAAAAAAAAAAAAAAAAAAAAAAAAAAAAAAAAAAAAAAAAAAAAAAAAAAAAAAAAAAAAAAAAAAAAAAAAAAAAAAAAAAAAAAAAAAAAAAAAAAAAAAAAAAAAAAAAAAAAAAAAAAAAAAAAAAAAAAAAAAAAAAAAAAAAAAAAAAAAAAAAAAAAAAAAAAAAAAAAAAAAAAAAAAAAAAAAAAAAAAAAAAAAAAAAAAAAAAAAAAAAAAAAAAAAAAAAAAAAAAAAAAAAAAAAAAAAAAAAAAAAAAAAAAAAAAAAAAAAAAAAAAAAAAAAAAAAAAAAAAAAAAAAAAAAAAAAAAAAAAAAAAAAAAAAPiKXAH8cjOUf1MgvzyyBwcA1JJX45ePofwgm8sHAD+CwAIA10BgAYBrILAAwDUQWADgGggsAHANBBYAuAYCCwBcA4EFAK6BwAIA10BgAYBrILAAwDUQWADgGggsAHANBBYAuAYCCwBcA4EFAK6RH4EFAG6BwAIA10BgAYBrILAAwDUQWADgGggsAHANBBYAuAYCCwBcA4EFAK6BwAIA10BgAYBrILAAwDUQWADgGggsAHANBBYAuAYCCwBcA4EFAK6BwAIA10BgAYBrFEBgAYBbILAAwDUQWADgGggsAHANBBYAuAYCCwBcA4EFAK6BwAIA10BgAYBrILAAwDUQWADgGggsAHANBBYAuAYCCwBcA4EFAK6BwAIA10BgAYBrILAAwDUKIrAAwC0QWADgGggsAHANBBYAuAYCCwBcA4EFAK6BwAIA17B7HVahIH6FZQ8OAKjF7jssAABhEFgA4BoILABwDQQWALgGAgsAXAOBBQCugcACANdAYAGAayCwAMA1EFgA4Bo3I7AAwC0QWADgGggsAHANBBYAuAYCCwBcA4EFAK6BwAIA10BgAYBrILAAwDUQWADgGggsAHANBBYAuAYCCwBcA4EFAK6BwAIA10BgAdgm+JYitxa9LVexkJDiQUElgoKCbg+5486Spe4qckuw7KYpJfiW0mUCQ0PK3l2ufFhY2D3h4feGhd0XEFAh6P6KlSpXqZrp/9PPA6ta9RqVa9a6o3j+iIjaAQF1wsLqhtdLGrEHAh68+aGH76z/SIOGkbKbqKdR4yZNmzV/tGKLx4JaprQ+uflhSRc6LKxVQO2WQa0fL1z/iTZt28lup1hV27dt0KFZx06dA5PkCk3yZPL/1qVTp67NunVo271HlOwW3tD9qad79qrTO1r3H090n/v63t7vqeqyGypZuyqlnrm5VZ9o46Tpn29ArcoDU/4D/wysqJi7AkMiBvV/1ryTg4cMfa5wHlXm1bDnb+o0fESBkff1H8V6lV4YPbL4iy89Hyu76fzGjB338jPjS9QuP2FitHl/4ybVnTyl5YCHnyxZ9JWp8c63Nn7a03nDXmX+R/TsoKB+TSU0U77pd7342oyZFvKmXonX34j0t8DqcdeTb75Vd5blvs6e07pmd3nNnluj650PvT2PIWD1RN87v0WexrKH35LpTRe0KDFn4SLCFNVmz8u3OHeud9oscaTFDZs/9C5Dpua8OJNvf2m67OF20tJCQRO4ruekZYTJ4LLAatxxea/3KJNfe2/xilscbnT7mwLHz39/JanZmayan6u0Ij+aDETGlHlm9aBJojqdYs3CD4LWVlpnX3C1e6L4jARCA+PW575V/UsjQNWueTcIvbTMWALrlVBjG0P0vS5sjNo9NaLcRCF9Tphc7ENnrmv3ZrXe/Ijy90TPqx9vautMFzgkTtsU9MBmGyftlsmvffLph1XpLc1iSZfahLvfdCtbFhom+wrYa2rhAOaHGcKxBNZym8s3t3Xb9s/EjtHCtUttvaiNdtQquHOLrZeu3ufTbO0Cly8q7brPqdn85ZwBT9/UQ0y7h90WYOVRjLGvIopulX0h7LJk+G7KPSiZ+oEVu67Fnq9s6HlcQBl7XktPb7b37npxjly9r0Oq2NIFPs8//c0+R7qdRZ8pn99Wuhqp4cHffiN6hq188zvZl8MG8TXziYt1PooH1v7m3wt79pPTkAO0iZ7DwTwtiI/YLNu5Yr9t89OCxiUPfelsx7OIG9Iy9JH2nBdtb7gtbarTOV72VRHrcM8fJF7iVCoHVvtHa9txa5XZkaOilgocq/L08SFOXrl0J3ZNdWC2GogsXSxM6s+ENCf7bi9j9TVwg+NrbGvPC8t957VhZMePZF/eFMoG1tJacxy5+6z7Dv1i9vh2RICdD5nNRB865eDUzSr22wKrJHY9pyArrW/T196kfXW8u1ah6Em8bZ7s65pKzcAatqKVc3+yy52mXMq2jxacIP/2IiHiRxnzOPjWsgr8Ssg6EkXYm/9KPvvbM6r1QRlXRqjEn/rIvqzpFAysyDOLRbxeZreoMOe3O6dvO37S0ZYamPVzQ6fncZGe6szjdEOZm9+klzMt2tJCiaeM3KIe3SD7omaiXGCd3v6186PwsfXntUs7l3D48bqZSf2c/Bi3UZdBsjvs1U2M7T9blmc5O59V9ZX9mtXcL/VkX9Is1Aqs+PpznFkPkN3Jc1aa2b7+zfa8WCLa3cCpWVw6r8xndgbKs7U/+KiNL5+9+GysU1dGsMMBsq9oNioF1pIRdiwKZ7Omq4WGvi6tmSZG8f64tSS4ayvZHdX1BFMPaux0ul2zzsc7cGVEGzbe+he7NlMnsIpckLfeP8nMfuzXUdnA0rRyZ+2exO2O3iu7k/pGswT21hDnfg1mmOfQ52AC5VHwGaUigRVcZo7skdAKM19IhQNLO9LG1jk8bPkLsntohGWNyqn1cto2a7m7vovucVz21fRGicCqukmFP9oJL7NeSpUDS1tT0745vP9X1VYxZHXvMdMuBO+VdyNfR+LmRpZ1PCL7anqlRGA9IHsUboguw3gtu8huqaGEYjZN4XZ3SvhU0BLzvUGml5PZvmXNbLo0wiW2lr+40CslAut92aOQavNFtqupdmBpWk87Hr1H1lfwiUZWvRPNOvGh5KUoMze6Y4FDWzXXrGgIrKwusX0MrXpgaWXFr8hqqshtsBHTp5Al7ftukNU38cIvjXhFT8geJl0IrCzyM11P5QNLe07wDF5SQs76OEteMFlRHhkiu4XJdiv/qU7kRoUvNgIri4RbWdqrfmBp24XO4EB1/+Jm8olxL7a2lN3AG+75QuS1Ea/datkjZASBlVU9lq0iXRBYWqC4GXxZ/pITFpuN93KZfkV2A9NMdOyDBB4Nd8oeH0MIrGyeYWhvoOxGMpjFdK/I4FhhZz9F5/a5YTcGviu7fRleqCHo2thgqpxN3ZghsLL5oZF5e90QWNoPYk6pWKruZzhZrTE8DOnsb7Lbl9kkBXfjv+Fwb9ljYwKBlV2oeXtdEVjaZNOX/AyKzpbdDVZljbpxywTZzctqpaI7vndQ+juGZAis7PaZL21wR2Bp48nzN/452X1gFm10Q3lwoezmZbfqsqiMEamG2HMk7YDAyuE20/a6JLASqOuq246W3QV2rxn0o5GCyyDDnT7Ol8Ep5e+vEFhe7DFtr0sCSwunHQp0Ru0PB7NIMNjVfqsDOyFbt57hYamzmog5p9heCKwc4qqbtdctgaXlpszfo8rthWRgpH4/IiNkN867vk5uEMuguvKfXiVDYOX0q1l7+8luIavo57mnb+wA2Y23pJt+T+6Q3TY9jwvPHIphl2SPBxMEVk67zdrrmsDSevFO32pDZTfdko/0e9Jc0W0Hkn7GfmpD7vCKnSJ7ONggsHKKNnu64J7A0l7hm75zy8tuuDXjdHtSZJHstul7lf8GWLj8sgeDEQLLizwm7XVRYJXjmr1nXfR6MNlk3Z7MlXAGE7vR8TbFj2VHZQ8FKwSWFz1N2uuiwEqowjF7p6qwAawVpXS7ougD9zSid9Xg1Waw7JFghcDyYrJJe10UWNoh67O38T2yG23RQt33baq/z014yc4YYjawv+yBYIbA8uIrk63Bn5bdQAtGWT4jduAM2W22Snepb4OvZDfNzJEeNmcRi+C3ZA8DOwSWN02M2+umwNIqWpy9PVz2/ErTTsbqdCXqquymmStoexyZyyV7ECxAYHnzu3F7XRVY661N3v0u2Ao5m+F6fflVdssYJDxiex6ZGSt/42h2CCxv7jdur6sCSztsZfIGV5DdXMt0v1Z/3hX/EL9u50QoGYh1wX1oBgSWN/ON2+uuwFprZfY+Jru14voX7JK1ZMudSCUDxWQPgCUILG9MXhO6K7AGWZi8JWU31roTY1zel0Vyj1dtIu9gWR4ILG8mGrfXXYGV0JB58v7hmuU4Gc7r9GXYKtktY/Ua8/WxQaQ7NuxPh8DyJsH4KArXLAu+4R3WybvEDfuLZPPVWZ3O5JbdMmYJbRyLp5w6y+69RQgsr4z3g3RZYL3JOHfdtBwnnd5a8csu+qUzxbl8ym7uPtmdt8jtgbVlwpxDQddCPgn9KbDmp4GbQrf3rHBJwCkvxkfOuCywFjJO3u2yG8ph1lSdzjwou2VW3ORcQmVzXnbXrXJrYK3K93Phmtsuen+j3fjPaxtow7LAsL0uC6yEMR4WZ2bKbiiH4zqd+c6eTWWi7enFR0wXyAbdbfwUYEv/8Kv3BQT8FXY1vI+4cXNfYPWf0rPLOtMPGiJv/ZgyLJsMCxceWAmrwoeEhe1Jvrqj+4h/8H2G5SKMccWGk9nE6S0y6yu0muiwQ890bRDTIzZpmLofrvzizYME78Yq6hBJq26246JsCRj/U8cGWfZoCm7c9KVcJdYLyC1XBdaaVrn/PMtSYIpxJ/mb3cKwZHGBdXJkyPCu3bpn/bakR5Xfi81fJqwOTdvLMly2bYiUcHJO3rUrum5r0DbdI6LK1tugsLTAG6wvCzSfm6OCMZ2Oi7xCHzPPaqFOCb+p7pO/5Bv6Wz/HNx1ejria1zWBdeTvwt0sHrRHOHTbeIOZA7QxTzFzdIlcZwxuFCOrvCjso77vGQbrLjt+Q0W/m79LDS9vXA+LqqCpTm/eFlVBwgd59P79xX66U9hAJVj6HEEYwZvvvDe+m/k+9dU6vkmJelcE1uB8T3Jd0On1eJtdwrDcA5SrmmzeQ3/OZWh/lfxifvuHmVe1X/xGdxNa/6P30Qx/YP31Rbcy7zxapPO1K5uT/q8AnfKbCErfmfkvGo7aOmHvVfPyzG+qJnGimp8kumU31nqDCNWoH1i983blPhCpKe8tb1/DYg9QLux7BWsuYe7Ajy0pVaXZHGlaUWsR9WRIaHXA6Owh/sDKmE/Bz9cc302nfMq/iEz+KmI6bp16i6nqq4G8c5zggpi2Jzvx+VL2en04sHaG8uyYmeE4Z7OvGJZ6gHJlLfbgdxFnxf9rVsthoa+/6rWIMamOu2im+TRQyLuvlQtY6qoq6HDsvYRZzum0sDcHs8YPs1KxrwbWwuU/Uq9JEc5mXzUs9QBhQKwGlmcq9+/aDH+YVSLyjJyAb01v6L7gLpxpPglZUPY+62HylQSs+0sKefO7YNGuCbrg2gdNrFXsk4HV//MaIi4K5+7kMwwLPUAYEMuB5WlIf/he36SKb8k1pIlbzHJLfJq7fJb5dEzEAo0C8cwXqMh7IkbO8cWj+1eKueQvdLVas+8F1omy2wQdi8v5sv5rw0IPEAbEemB5lpD/AW40riBqArWCNHvMn/ok+5e7Apb5lEdARx6zcoGqhwuo8YL1iUHTRcwlb2V9swlfC6zRXfYLuyqcGyscMSx0E2FAOALLc476XVxZ4/JFHapRrwxjhxpyVzGHofRe9J5YPJR56gZ6lc9W5ZgZFEJWzSQ8FmW9Zp8KrFGHuom8Kpw/dlYaFup0YJFPW3/bsPTYDcTib/iqxVbG7nh6cFdieiq3x3OW/izZ8iHyMV/Sx495Uw0xuom45rO4Dq/2ocB679eBYi9LDb5mrzEs1PHAakd8StLKsPQVtMJT/dWWvT9VuWu5al74i+Su9LL+APwVekr+zTMz+OUVcM1H8Z1S5jOB9VlHQU+uMlzka3aC4ZR1PLA8hQg1aibvEKLq0gpPEb38GGtfkmy1pyc3TKb2ZR7Pur9a5CF8VtyDEJZLMIl+0Z8dx1e3jwRWuR02XJepnO2ONyrU+cCKpT13N3wkJ2ILtxe2WepOMHdF4aZlt6X25cQXXJfobvIg/s5VL6df6Bd9VjPOun0hsOJ6dbDluvAGluETUOcDy7OWUKXxL9zIeaSiU8xgXbOUhvuj2y9Niw6lduZpvis0nbwVnqNbJQt4M3GUt273B9bM1xrYdF14A8tw5e5PhAHhDKyltK/jDI6SOkMqOMVOy8cXc3+y/4Np0WHEzpTnfSxBvlNdJvyBiL659A1Zn+Ou3PWBtZe8ol0Xb2AZ/hOUEFjEf4eN9QueTyo4WR22DQIz28Jb1yKzkvnXpN4winvfhMjPqAPZlLdq6xaQr3o+jvUMqVwfWDbiDaz2RoXKCKwWhDo17Q3dcquTvyIcbek7sht+4K1splnJ1L3KQvjnWgPq5gct+Ou2ajX1qp8gHE6GwNLHG1iGR2PJCKxthDo1Tf99xuOkcpNsaGyhF2n4j+CKNSm5Nq03mw8SJht1e6lWhLqtiSV/lvM6oXYElj7ewDLcAUZGYO0n3Ql11Cv2GPX0vlffsNKLNP256zNZcpC4mdad65TJRt1IflY1Su1WPEW86loA5VttBJY+3sAyvG2QEVi0Lyl+0St1HKXUZGbfVXvH//HdQOOCia8QNrdnar4e4u2dc1u7305s6FcxlNoRWPp4A8to+zk5gbWYUKn+Zx8lKKUmKcjXGf4tc0wenVyndacnW/P1rCOO5kZa9eyoJ4HSxgmBpY83sKYaFTqcMCDcgUXa5KmQTqHx3K/rbujPuRnsb9w1mrxQvkLrz1jidFtIq34osXpWPYivBxaxHwXjDQJLn+8EViVCpdptOoU2pxSahHV7huz4/8IbL9jbSjuTheHTamP/ow3nSodWYv1JvOyWNt/JCYGlz3cC6xVCpVoXnUKJ5yP3stSDTHZyV1navkHStEep0+0W4iIRvq+CLCPuNUp6lepBYBnxncDi31Y4yQHvZRLfqUU/z9uZVtx1Gn9wupfUn0X0z49Jx/dqWnNyA5gQH2GVJVaPwNIR9W/TkpztVi+wphMq1Sp6L5P4dpt/4vIvCr/LsNwKpP70ZWu8kUDaiFreiItLPHEvnNLE+hFYWWxt3KFMYLFdEa3CCefaGgZWLcKAcAdWMOWU3ie9lzmeUKSmzbJwslM2+bgrzWNY7gZShyiLIVN1py3FepveAgbTSG3U1lPrR2DdsOSVQp9cuNJHyCGa6gWWh7KB0a/ei5xBGiOWA6V1fMBdaSmjYueSrn2C6WloDNaThrS/gBaYI36+VItav98H1tlmw1vX/k3IaUtpFAysiYRal3stkfihMNuBE17xP+qpZFTsH6T+MOxmau48bUwd2di9AKmJ0bTFtR6/Dqyqbbrs2vMCbY54pWBg8X/OomnFvJb4KGmI7iNcN/4l4SvsujCk754zEB8LEv4IsKM9cy9Prt8/A6txqYf7hgv5+eeNgoFF2cnYe2BxnoGWinv/Ng9lT5tNRsUWJHXI8vl63jSircksRW+BqWDawdj05fh+F1hRHYav3kAadFMKBhZlFbX3wJpAGaFRlnfty+Qb7mrvNCqWf7VEMp5tJ3KibeAaKqQNxohPAj4kN8CvAqt9x4c/WkQbcRYKBtYEQq1eA2s66f70Y8pV5N+Oaa1RsZTHfKIeeNO+zswvphGGKpNaOJGyT8MNfhNY8c0ee5+6SRojfwgs2gnJnFuf38D/JfcIg1KHkToUIWaS0l7BBYhphKFapBYS3g2n8Y/AmvrTFNpvb0sMA6sioWCFAou0dx9tDQD/bch5g1I/pHRIe0bMPG1DagTDMWZkxUktvJPeAD8IrCIjhByszc4fAuttygDNI11P/sf9uQ1K/Z3SIVHPu/lPtU42SUwjDNE+H3qK3gBfD6yxd/Bvn8TLHwKLdJw07XuyN7nrvd2gVNoJX1UETNVk3PvVp2hHb4AZ2trW6fQG+HRgta/4Lml8OflBYA0jPXPn22k0zXPc9V4zKJW0CUGCqIOXH6C0QiNt5cmGlKgbBDTAdwMr8pGW9PPTuPhBYHUjDRDtZDb+aDE6DY9/sUSSPqQOZULaGlZ7RVQzdLUjta+2gBb4amBVPeD8T8E0fhBYXSjj8yptqzn+r64HGJRK2m70M1KHMiFtDWvycbcIP5La11pAC3wzsBqPP0EaWRrDwMpFKFidwGpNGR/KdzlJQrgrDjIo9R5Kj1rSepSBtsPMAlHN0HUTqX0vCmiBLwbW1OKSfgum8oPAIu0dRVzg+DB3xQUMSiUtKOY/eT2brpRW0Ja3MXmJ1L5PBbTA9wLrlrLELcbI/CCwrlLG51fLzc/iDu6KL+gXupXSIe0TWo8y7CA143+imqHrZVL7dtAb4HOBtT+UeJaLAH4QWLMp40P85fIJd8WL9QttSOmQuFubJqRm2L/naC1S+0S8xfSxwKpEPYxYBN8PrKqk8VlHm7JruSterV8oadd7cduptyc14xq9ASb4/1gkE7FOzKcC6yL/7rki+X5gvUEaH/7dkVPwH4f1jX6hpUk9ErCC+4Zg0vq24qKaoasnpXlx9E+ffSqwjoXKfdaezvcDi/bNPnFnzDu5K/5bv9C7SD0StwCKNIXzCmuGnrKU5j0rogW+E1hty1MGUyTDwCpMKFiZwKpJGZ7BxClbi7vmCvqFFqX0iHwUTAbSE9gSwpqhh7TL4Q8iWuAzgVXzVcpYCuX7gfUTZXhWEafsJu6aR+oXSvv2+RSxSxmWUZohYPcWE6SV+EK+B/CRwIolnkcrlO8HFunZ673EKduPu2aDfQMrUXqkcR8Km0MfSjO+oddv4m5K8+4R0QLfCKyDpA8rRPP9wCL9eaBu27SCu+YP9Au9jdIj7TSxSxnCKc1oKawZevj30xdw4VP4RGDFDKGMo3C+H1ikXwajiVOWP1sMJtTrlB5pIg4lvIH0BewhYc3Qw39iUZK6IlrgC4H1oQqLrzLx/cAibd83iDhlC3HX/JF+obTNicXt60K6w7pZWDP09KI0D8+wbuiwkjKKNjAMLP6X8goFVgBleCYTp+yn3DVf0S+U9BpBlWdYQfT6TURQmoe3hCm+o+3SaAPfD6y/KMNziThlO3HXvFu/UNodlri3hKTJLOwbbF2vUZqHdVjJLtpxdjON7wdWHcrwUF8W8S+ZMtjXhvYMS9w6rM2UZvQU1gw9FyjNixPRArcHVvt7KUNoD98PrDDK8FDP8OvIXbPBj1HaNgTiVrqTdhq5Q1gz9NDO+xaxkbTLAyue9LfeJr4fWKSjCF4gTln+74Le1y+UtHZfu4vYpXTHSN8SPimqGbpop3xdFNAClwcW6dsmu/h+YC2kDA/1UQb/Z3/r9QvlfzCW7Hdil9INJDWji6hm6DpPat8ZAS1wd2DxvzCyk+8HFqU4TWtEm7J/cFdssHKxDKlHm2g9yjCW1AxhuanrGVL7aKcl3eDqwGorf7M+bwwD60lCwcoE1iXS+BAXAazjrriefqHbSD0qxt56Y/xhnKyyqGboOkBqH3Gr2RRuDqxINba/ysH3A4u0QzL1lwH/ee4G7ye/I/VI2EZUzUnNmCaqGbpon1z+LKAFbg6skqTRs4/vB9Z9pPGpSZuyH3JX/LV+oadJPYqg9SgDbTlYdVHN0MX/hjbZHgEtcHFgTSdtLG4j3w+sVqTx2UubslW4Kz6pX2gPUo/K03qUYQSlFXGxopqhi3aA7mwBLXBxYN1OGjwb+X5gvUUan4K0Kcv/YNrgY7ZjcZQeTaT1KANp+5Z9olqhj3YjSt0cO5l7AyvG1g2RR9X9bPHj/Z7g+ovn+4H1IGlsiV8/X+SueJVBqRNJXRpG61K6MEojqNtgMNhKWiemvURvgXsDqwRp6PRsDnuwda5S025J3S+f64sNw8B6kdA4ZQKrAGmMn6UdVR/DXfEyg1JHk7rUgdSjDKTX3h/T6zdF+3BXwPmNrg2s7oNJQ5fTkXK39zvTOFstCCyvgUX8Nf4Facp25653i0GpQ0k9EnGmcZIlpEYMENMIQ7QFLbxnuWfi2sAS+QTrnu9ffGSg11oQWF4DazttvEuRpiz/v2qj4y9IxyuIOvqZthrsTjGNMDSF1MJR9K8J3RpY+wWtGY0uf/6lhvrVILC8BtYB2qDTtkFpz1/xMf1SHyf1aCR7841QdncU8oTI1ADalS9DboBbA4u2B3eq8AFFTZ6WIrC8BlZX2rhPIE3ZYfwVG/yB70LqkaAXdC1JjRgrphGGKF+WaSKWjro1sOinTvTftcP8JFrxgbWX0GRlAusccey7U6ZsNf56p+uXeobWIzGbJG+gNCFOxEnwZvLQhimc3ACXBlYM7fWqNuvudUznZuMOy2tgTaWNvtaZMmVj+es1OCyC/1F+igWUHqU5S2rCeyKaYIZ/TckN5J3DXBpYlAPfNW3Lw6zHnOAOy2tgJRL/XpA+ZYnkr/eyQanPknq0i9KjNC+RmtBXRBPMxJJ2GBRwToZLA+sjQrGDdx1kHh4ElvetCEhnJWjamjGUORvNXe8bBqXSXtgvpHQozc+kJgjbMsLQDNqVX0TcW8j2wKKcEaxffg/+OavVsbIKCIHl/R/CZ4Tykq2gzNmvuKs12nuddCCMpv1I6VGqDaQWFBXQAnPfE688dZNBuwOrmC3l/8ld5swQS1+Iig+s/xEGRJ3Aoi1117Q5lDnL/+NtnUGpG2k9ykXp0Q38X3WnEHf8tBHia0JtPe0zB9sDi/L5uX7543mLHGXxzxDusLwHViihvGRxly13IQN/YDUzKJX4/iuA0KFUv5IaMInpLRIZ8W2qpr1Dq9/uwKKsx9MvfxBnic8+YnF4EFjeA+sXQnkpKGd+8gdWR4NSia8JB09nbr8e2i5jQ8n1M5lLfN+iLTxGqt/uwLpuR/mJvK8qLG8dh5+E3gPrC0J5KUaxvqf1gj+wmhsVSzzgshZ/h26g7eeubaTWz4h8rt7LpOrtDqwQO8rn3c/W+tehCCzvgRX8KqHAFLfzz1n+wDI8BYH2mZzRkTxsiF/H/kGtnxHtaMIkG6pSqrc7sHLbUX59vvJWWR8pBJbO6/LdhAJTLOJf7c4fWIavqCgvtJM15e5QisRlpNoHO7HOPVkh6pWn7Sphd2BxPx43Kp8zBQ9YHx4Elk5gET+CTfI3d2f4A2u4UbHUx8l5uTuUgnb+hFaHVju76uQrn/AUoXq7A6unHeXzbXg5O9H68CCwdAJrBaHAVE/wdoY/sP5nVGw14iLuNYTHch5P5GRa7fYfU5/ma/KVf4+wetTuwLpmR/l8LwnzcwwPAksnsA4TCkwVXo2zM/yBZbxtFe0tHXHXHNp5NJrWjVK5JeSHWEl31/yLsewOrF12lL+Pq7h/OIYHgaUTWJHEd2rJLnB2hj+wrhuW+xixP6RbLN6VOqlm0xYLWPEn/cprIdy12x1Yz9lQPuent+05hkd8YFGWXCoUWJ7ahBLT9OPrDH9g9TQsl7wmknCeahli1S35q7Zq/xoBl74kb+12B1ZxG8rn24WjP8/wILD0AouyADbNKL6jivkD603DchM3E/szszRjD3JoV5dYNW1xkzX/Cbj0s3i3R7U7sN60oXy+FXZcn68hsPQCqwihxHSrnufpDH9glTAuuAK1P+9HcV4fyvrqZLPo6+zZPS3i0kdz7olmd2DZUf4OrtK4tgtCYOkFVuQRQpHpvuQ5QIc/sO42LjiQ3J+9fJenAfEFpVaOe2ZwWDJTxKVPqMhVud2BRXmloFd+Za7SDvEMDwJLd5+lC4QiM/Tm+AqaP7BM/mg1Jh3/nOzZ73iuTvxVar3cj4S4lBNy6bWeHOuMbA8syulJeuXzPaDkeieFwNINrE8JRWay7IzlzvAHltmNCHWbL00L5/ltRs5+R38RejyVxFx6LYzj/truwKKcz6xXPt9WAVzb8ooPLMoeIkoFVg9BJ9lGW/5pYF9gHaB3Z4r19QU/kSt14sznTPaTvyRN9ar1dwV2BxZlg0K98vn+tu/huTQILP2td0W8LEpx90BrnbEvsM4KeDrznNV9qSpTH2BRT6a17rioS6/NqWGxarsD628byi/FVRrXoSIILP3AeplQZlazV1j6R25fYHnyCejNLmuJVZm+rGkfz8Mgim7CLr0Wd3NjS1XbHVhv21D+E1ylzeQ5+ACBpR9YcwX9Jkx2xcrxTzYGFn0rAs3iPdY4Acswc3PPC15hoi58kkVvvmGhZrsD6y1C+VN0yuRckfwtx4VBYBmcxtKXUGgOn7F+OdX+U/6fUKaB1W6SiL7czb6P0aMC8iqBazUbibi765QO7OnK/OTP7sD6i1C+3qavbfiKK8txYRBYBoFF/Zwkm3fvNN0iK3ja9gcoj5nMlytRPiXLMKMJ22XZmldEbSz/DgWLp23eldMPx0uxpbzdgUX5Av4/nTI5TxdZybE7AALLILCihKwdzSTuyvAGut/x7/9j7cgfiBWYBxbvZrbZbF7Bsh9BA+KWMqm49+khoJyGpWPN0I2VTb73Da6+LYBQA0tgjSaUX1unzB85y/sfQ3uzER9YzxAGRLHA8pwnlKpn0n9ry7yR9U/L/u9Khea/SjiKMh3DgnDyVqqpdppuQDqmtYguadoEZ47LyarHCUHjlE34N+cPdKzSI2tdSxts+7Ti9QtT7iU+NWUJrAmE8ivolPkvZ3mTrO/Ki8AyCqzL5JXheiYOCqgdERS0+O+A+y4JvI9jCCzyeUBp4i6cMqqn6k+rBFX0OvesoKCc38dgy6TwIWFh94aHT9wirlCWwAonlK+3ie5W3n8neyx/m4rAMjwCnfy1sMMYAiv4HnHVzdF9lny5p7A7lInx3LOCYrrAIHEKS2D1IZT/jV6hX/KWuNjqTocILMPAuolQrAws3wgfEFnhD6sLHcxeQXCb+69SD/fLRMCR01zucPjaCcASWJSNKXW/ra/DXWRfiwfnILAMA4u6T6bTWAKrGt9+trrihsx/eMG2Gm0P9mj8fOl/fip7RcjKiXR94rknBU1V7tsGaVgCi7In2vd6ha7mL/Meayd2ILCMA4t41IvTmHZhKSy7lZYc5Z4TVGLXYjmBJbAoz/WP6xVKeTuV8PY51iuS2KTo3TxV+FFgRb5LKNh5TIHVjvIYw2nvOf1VToZgMYsyHMQQWMGU8nX3hyRuebj+SZN1fbGnbw0c/989vG+dDQNrLaHh6gWWpyjtUjiMbZ+7o7KbacEC7ilB94ptL4ltwhBY8ZTyC+iVOo7c9JPfhHbMttrH02hqjbs6Df+85e4viRfCnwIrMox8LRzEFliJ9JP3nNJKxhqsdGI+C3AOQ2D1oJQfpFfqEkEdWDPp6xlhAXPCwi6Fh0+kb/KRxp8Cy3OXsGFzAOO+UcLWYtktrgMlb8j2UxYtScAQWKcp5Q/QLVbtFxSGgbWRULCKgSX2E2ibjWQcrg9kN5QRz9nAIj0icHmGAxgCi/Rp1s+6xVI2rbGfX91heX4cJXu82VVgGy3PWHG323ZaNpB7QghC+RTZeQyBRVpZuEu3WMrxyfbzr8DyhMgeb3Z/Mw1Wkp6yW8pE5hP3G9r9JnsMrGAIrI6U8m/XLXaa7K4b8q+fhJ5q1ENAnfMN02B5XPJ0pjZrb2x0eJHsUbCAIbBI52s8rltslE3fiovhZ4Hleco1TzJWMw+YC/q00trewjZZIHsYLGAIrAOU8tfql9tSdt+N+FtgeYRsQ+cEC2dTUo4sd0Yl7tkg1ADZ48COIbAo29VphfXLrSm770b8LrDGuGXhkoWzKRup3qcC7H2xVdQU2SPBjCGwrlPKf1q/3Lkqv5ryu8DynHPHWzWtoIUhmybwjA0bTNjPPRkEGzND9liwYgis4pTyjU5ZjJDdeQP+F1i0O2nn5LUyZnfKbq2Rr05Z6Yq9YibKHg1GDIFFOUdV62RQcB7ZnTfgh4EV7I7fBW9aGbPIkbKbqy+hJvdUsMEp6l77DmEILNIKz44GBUf1l917fYaB1YJQsLqB5ZkucKNO+/zM0pWMPt0ru726znPPBFsUEbvHl10YAqs8pXzDrav2yu69Pn8MLE8TpVeapNrF1JV0z6+U3WAdHzAf4+eQda5YjsUQWJco5XczKnnuq7K7r8svA8vzEuXAQIf0tDhsldXs0/ph3BPBLuvccI/FEFiUHZK1IoZFPyy7+7r8M7Cou5Q54XOr4zZcdou9+foW7nlgn7Eu2PbQPLASSeuFLxqWPXe27P7rMQys5YSC1Q4szyeyB95UiOWBu192k3Na5vzJ9Czaqv+FlnlgTSWVX924cGWfYvnpHZYLNnR72PrIkRbm2GHLh9yzwF5nW8keGjPmgdWNVP5B48JjVV2w5q93WJ7In2UPvYkR1kcu+DXZjc5qZRvuSWC3RNU/0TIPLNrWjWZreW9V9ANVvw0sT+Qu2WNvbCPH0EUplVg/qHp/lWKT2l88mAfWT5Tio033q1b0n4f/BpbH85jswTdU2EpX0gQXkN3sDPuqcE8BR6zbIHuEjJgHFulTwmWmxbdT80ehPweWp5bKR6kEcg2eOr90w9V83p7JMKXuR7MxD6wLlOIXmg+PmqsVDQOL8irNDYHlKfqs7PHXV4lz+CqqkcKDznJPAOeUVHeBpHlgkb4w280wOl1VfIzl13dYHk+b3rIvgK6uvOO3QIXdQfpW422+o06Xkz1QeswDi7TjM9MRJyru7u7ngeVp+JHsK6BnHPcA7iAtgRYh4bxq3+PoqrRM9mB5Zx5YpLWdJRiGxuPJLXsUcvLvn4RJosareOObZAf/P8LTkg9mP/Enf9sd1z6/kt80mQYW6RhVgzMoMot8SPYw5OD3geXxVD4i+yJ4VYPwj3Cr1L2AL31BaLoEVQJkX2svTAOLdrjNWpaB8Sj4USECK+lv7HzZV8GbizxdSVdps6x2JzzUjtRyGZ5Q7xW+aWCRzszR+rEOzfBo2SORFQIr2aerZF+HnLpzD2CKmM/kNPtL/mdvEgUvmCf7emdjGljFSMV3YhmVFI+otbcFAivF3AFqLAbIpAf3AN4QfOcaCa2+ezqx2bIEN39X9hXPwjSwVpOKf4plTG44XUf2WGSGwEo1jbR/ow22cnclzWHHb7Lq/kNutDyRlYcq9FfLNLBI2/dp31kYmKj7FfqKyTCwthMKdltgeTxF68m+GJlFE3qSJrKQoz91B9/vvqdXWV18SNqjv+zMAiuRdlCStQcO3+2UPRzpEFgZYl9XaJsk/vHLbMw1x/44JsynvSZQw7AVV9RY5mIWWFVoF8vi/fuxp1U5bQiBlVlUIcGvi/j/YB+h9STd5dXO/ANs1U1Qg6W7XEz+ubSb67xo0spCpPL3WR6VRo+r8RkTAiur4Cc+Fvcg42Supdz/7T3UnqSr8YGwDum66qaloqYiS1+X9nggoe787V0vm27+4rmdVMv7HKPSfoQK55wgsHK4PH6fkKEdXSjW05D7vw4T0JM0Tefb+zS5/LcCG6uIN1rsdnoF0r45xfudq8rYPtqWqUyfEubQaNMEh4ckJwSWF1F5VlO3cTjxZtPkkvjvsKYI6Uma5wva9kX0zL7bhDZVHWOKFnfotMf+U1oH3tTeStsSaWtWBnAOSeSZC5J+GSb0+avE8prnBho2z18DK0mj37/n/7h01NDOqZsVfMFdxmpRPUk1cK8tbxT2XZ9Kb5vC/v392k4b31tMGrR6ROdpHCehNaXVy/pljhf7a/7t5MGOCUceiBhfq+PYeJa2URbTujywkkSdCbmP41fBytc6NUov4xR3T6wd/MwieNzfgpeSRg9dQF8tpr522yrefFXsHerM3q0OfVKpjaWbqiwq0uqvRBuQMsWHiJ1JOS27NDTv8s63Xk600jD/Dqxkjb69/paFTxNeqJCrQ5aNVUpz9+QOwT1JMea2D4RtTZBQ56eGdrRRUVENFhRbPZm6CefseR+XXVv/ptOx1ObUprXjHHk8lha61kr49pcJ++a9dfz68F9eWcr3h7BDIL/buIfi9VB+hD1Z9F3+fcQ3o00uTvSQv7eX+iLHy50d3Neulh09SdKwSwUBd/SjPjiw1KYGqu3suk+fvPZgnT4W7lVXfv3+nrt3bXy0Y9Pulm4XjEQRk3OgmFacerR4HeobqpkvDKlTO//9tWo+1eBssKzL6oMi/32lecXxi0deudR/0qTkf/IJkyZN2vDblZHHd4XW3FE9yvt/dRf3daxkX1e2jrt2ifLacGHZUqzvsnzX/qUfVq4ZGLo9JOh4xIMBSXaHtUr+H+UiIiJKBOW+HporsFLzuzq0pX4S6t05WkhsEdmWRt91fbJ4uQkTGR+fxE1679LuDyLyjl979J1HOsSMceJiAavm3HPK5k0Ppr90+06OjztmjR7wzhLZgwqkvYA1vmVY5sa0nfZPpVqhv4aE5A4KKhgR8U1QspCQkDtCKwbW7/REs3Mdvlhidh4iSMV/dtwp+xsXW6Tkz61+YG3QiUEFjk6Llz2gkOIqLbAiZLcfFPU495w6SK+czfRz9e8/HjBD96HIV0M+OxTy+jY3HILjN5YSP7cS/W4KfAX3uaaDzT/OEKxaTI0zRW+rGBq6PCTlLj70xdebN+twea7sIYSciIsatOayOwCK+o93Sp2U3XJQGHXvtiayOwCKCuOdUjtltxzUFUP8RTgqit4G8Encuwj1ld1yUBfxHaH2ruwOgKIOcs+pXbKbDsqKpH6SfbPsHoCibuWeU4VlNx2U1YyYV9rTsnsAihrOPaeKym46KKsCNbBKy+4BKKos95yycqoJ+JWl1O/XB/vDFhvAg39bSHxiBTo+p95gTZbdA1BUFPcZFJNkNx1U1YN8EtntsrsAinqFe05hGRbooK5p0LSXZHcBFMV/cvYF2U0HRTV6gZpXcfbseAPu9xf3pPpVdtNBUfQbrNGyuwCKqsa/D7hPHfMH4kynnw2IR1jg3bf8k8oXTn0HG+Qm55XWTHYfQFHfc8+pwfg6Fby5TD+851WswgKvhvEfKiLy2GfwISPpN1i9ZPcBFBXIP6nKym47KOkJel5pXWR3AhT1AP+kCpTddlDRsP70vIoeKLsXoKY3CLOqg+zGg4qCBNxgTZHdCVDUcf5Jha9TwYvKxI1GU6yQ3QtQU8ws/kmFD3MgpyXc29dm/ls4XXY3QE2LCbPqc9mNB/UEvyUgr7T5srsBaqpBOQu+jOzWg3r4j7jM7AnZ3QAlBfPvhIWvU8GLUiIeYGl9jsnuByiJ/4h6DYeaQE5N+VchZ3a/7H6Aki6+SplV12Q3H1Tzo4gH7po2q7rsjoCKtr5Pmlb4OhWy+vc9IXmlrZbdEWBzsHmwk9VdIM0qfJ0KWS2ZICavtKayewJsYrQJ9Z3bAOEZ2qyqIHu0QC2N6wnKq/KyewKMYpKuVniXRGcqCyS+z8HXqZDZ0nsE5ZX2reyuAKOYlOvVu1Y7B+p6lLICK8nMJbJHC1RS5UtReYUPKFwjJvWSTby/u91VhVLXy+STPVigkjMnROWV1lF2X4BVTPpFi57fLNLGirbmJU+r12UPFiiky2BheTXZzokPQsVkvnD1Ks61q57TO8nTajCWuUOaxDeFxZWmjZPdG2AWk/XSLcp/ky3LHF4nH8qraSNljxUoozvlA6/s8KjBRWJyXL7e40uLrmTsHhHzCh8+Q6qO5DNTM0nAGiwXifF2Ce8dMVZgFUt2ETbAynASX6dCiq2thXzunAaL3N0kRucqrr++Tcx60urjxXycqrWQPVSghg6/iYwrbZHtr8dBoBj9K7mlV7/TxNKPNbtbyN1Vklm3yB4qUEHsHaJmFP4QulGM8dWsd63TUu6y21w7Im5eLZY9UqCCc+vFxpVWN152l8CKGPNLuqr2xmZjrJY78Jdrwr6bSJbwhuyRAvnGFCd+LJFzXj0lu09gCUNgJYub8ODDnduwLYTaWqXmgHlCH4smqS17oEC6yEIC79hTFZDdKbCGMbBSLStfcPuBrjsuNvJWVOK/Rf4p+djIe2YKn1VJuskeKJBt22Tx0+oIFiO7jLXASrem/9WwgIAKEYeCgoKOR0QEBOxeOMmOnEqDQy793RcRom/akyTkkd0tsIgzsBwW96HscQKpeoSMsmNePSS7X2CVOwLrkOxhApkS77Tn9n2eE5sqgVCuCKzBMbKHCeRJ7LfBnmm1+bDsroFlrgisENmjBNIkdq5r06xK6CS7b2CdGwKrf1XZowSSbN3U37Zp9bnszgEHNwRWUdmDBHLE/9Tbvlk1Eh/Tu5ELAus/2WMEckwTtme7F1dx2+5K6gfWJHxN7686/C36S5x0JxvL7hxwUT+wasoeIpDn8i5b1l9p+5rI7hnwUT6w5sseIZBq6S5B+6lltrKG7G4BJ9UD68vpskcIJDt7fovgSTVJ+Cbg4BTFAyuhsuwBAvnmblwmclItKyK7Q8BN8cAaL3t8QAlbA8Wtx1rVQHZvgJ/agZVPzL7y4H6JJYeImVP12sruChAoHVhft5c9PKCO4DKDBMyp3Qdl9wMoVA6sr7CpDGQW+e0V6pz6fqvsTgCJwoGV8I7swQHl3DSUso/fzL2RsjsANAoH1ieyxwZUVGUx9x7cs8fJbjxQqRtYz8keGlDUxYKDuWbUIGyr5n7KBtYF3LyDniUh1pe/J+xKlN1soFM1sGpjQQMYGPj4SmsTaiJ+DvoERQMrX7zsgQHFVa1oZfeZiIGy2wtCqBlY/+F0ADC1tTPr4eIrA2W3FQRRMrBei5U9LOAKsS9PYJlPDy6R3VAQRcXAeihY9qiAWwSXuc9sOvX5RXYjQRwFAwtn5IAV4z4zmk2zHqsmu4EgkHKBteZR2UMCbvOh/jH2e7A1g29RLbD6tJE9IuBCpxZHe5tN/TvLbhgIplhgXcHjUeDyY/4cy99n/w9fOvsctQKrNZaLAq9/ey7KPJcWXZ8ru0UgnkqBta+r7NEAV2tfbHbaXJoVdIvs1oAdFAqsjzHFgKhqxT7JUykh4kfZLQF7KBNYJ7AYGQSIP/q19nYV2a0Au6gSWOVwvjOIEXVYdgvAPmoEVt0/ZY8DALiACoG1qFi87GEAADeQH1gJEUtlDwIAuIPswEp4u4PsIQAAt5AbWHFv15A9AADgHlG/vz1LVlxFH2oiu/sA4DI9AltRznrjtSpkquyeA4AbTQ1l3WxWlFadsKsoAHCK7DBivWNp9d5jF2X3FwBcbmqgE8+zeu/agSMHAUCA9vWP97Yzrb5+aAc2bAcAcdp2DrIltBYFhGLNFQAIF9lg+KGFcQLD6kRAsXXYnA8AbFN1R8XFM+gLHmbOWFyxA34HAoD9enQrGVKhHt+z+FkLe12vXxqnLAGAo2Ivdtz0+IWAGVuYgmpU+JXvc9cq2gQrrQBApv2H1z2x4OivIWVbDg0I+CssLCw8PHxIWNjkgICA+ReuFct1W9cz352V3UgAAAAAAAAAAAAAAAAAAAAAAAAAAAAAAAAAAAAAAAAAAAAAAAAAAAAAAAAAAAAAAAAAAAAAAAAAAAAAAAAAAAAAAAAAAAAAAAAAAAAAAAAAAAAAAAAAAAAAAAAAAAAAAAAAAAAAAAAAAAAAAAAAAAAAAAAAAAAAAAAAAAAAAAAAAAAAAAAAAAAAAAAAAAAAAAAAAAAAAAAAAAAAAAAAAAAAAAAAAAAAAAAAAAAAAAAAAAAAAAAAAAAAAAAAAAAAAAAAAAAAAAAAAAAAAAAAAAAAAAAAAAAAAAAAAAAAAAAAAAAAAAAAAAAAAAAAAAAAAAAAAAAAAAAAAABI8X830GNPB1xL5gAAAHx0RVh0Y29tbWVudABUaGlzIGltYWdlIGlzIGZyb20gW1ZlY3RvckxvZ29ab25lXShodHRwczovL3d3dy52ZWN0b3Jsb2dvLnpvbmUvbG9nb3MvZGphbmdvcHJvamVjdC9kamFuZ29wcm9qZWN0LWFyMjEuc3ZnKS4gIEVuam95IUyhD1oAAAAldEVYdGRhdGU6Y3JlYXRlADIwMjItMTAtMzBUMTQ6NDI6NDMrMDA6MDBICfOIAAAAJXRFWHRkYXRlOm1vZGlmeQAyMDIyLTEwLTMwVDE0OjQyOjQzKzAwOjAwOVRLNAAAAABJRU5ErkJggg==;" vertex="1" parent="b9N4R5i_NIoSZ153W1rB-25">
          <mxGeometry x="163.68" y="10.003684210526316" width="92.63157894736841" height="46.315789473684205" as="geometry" />
        </mxCell>
        <mxCell id="b9N4R5i_NIoSZ153W1rB-78" value="" style="group" vertex="1" connectable="0" parent="1">
          <mxGeometry x="240" y="-420" width="480" height="280" as="geometry" />
        </mxCell>
        <mxCell id="b9N4R5i_NIoSZ153W1rB-72" value="" style="group" vertex="1" connectable="0" parent="b9N4R5i_NIoSZ153W1rB-78">
          <mxGeometry x="64.28571428571428" y="28" width="351.4285714285714" height="205.33333333333334" as="geometry" />
        </mxCell>
        <mxCell id="b9N4R5i_NIoSZ153W1rB-55" value="" style="rounded=1;whiteSpace=wrap;html=1;" vertex="1" parent="b9N4R5i_NIoSZ153W1rB-72">
          <mxGeometry y="56" width="351.4285714285714" height="149.33333333333334" as="geometry" />
        </mxCell>
        <mxCell id="b9N4R5i_NIoSZ153W1rB-56" value="&lt;font size=&quot;1&quot;&gt;&lt;b style=&quot;font-size: 13px;&quot;&gt;Django Rest Framework&lt;/b&gt;&lt;/font&gt;" style="rounded=0;whiteSpace=wrap;html=1;" vertex="1" parent="b9N4R5i_NIoSZ153W1rB-72">
          <mxGeometry x="197.14285714285714" y="126.73684210526315" width="128.57142857142856" height="58.94736842105263" as="geometry" />
        </mxCell>
        <mxCell id="b9N4R5i_NIoSZ153W1rB-57" value="&lt;b&gt;&lt;font style=&quot;font-size: 17px;&quot;&gt;Django&lt;br&gt;Web&lt;br&gt;Application&lt;br&gt;&lt;/font&gt;&lt;/b&gt;" style="text;html=1;strokeColor=none;fillColor=none;align=center;verticalAlign=middle;whiteSpace=wrap;rounded=0;" vertex="1" parent="b9N4R5i_NIoSZ153W1rB-72">
          <mxGeometry x="55.71428571428571" y="144.41712280701753" width="51.42857142857142" height="23.578947368421055" as="geometry" />
        </mxCell>
        <mxCell id="b9N4R5i_NIoSZ153W1rB-58" style="edgeStyle=orthogonalEdgeStyle;rounded=0;orthogonalLoop=1;jettySize=auto;html=1;exitX=0.5;exitY=1;exitDx=0;exitDy=0;" edge="1" parent="b9N4R5i_NIoSZ153W1rB-72" source="b9N4R5i_NIoSZ153W1rB-56" target="b9N4R5i_NIoSZ153W1rB-56">
          <mxGeometry relative="1" as="geometry" />
        </mxCell>
        <mxCell id="b9N4R5i_NIoSZ153W1rB-59" value="" style="shape=image;verticalLabelPosition=bottom;labelBackgroundColor=default;verticalAlign=top;aspect=fixed;imageAspect=0;image=data:image/png,iVBORw0KGgoAAAANSUhEUgAABLAAAAJYCAMAAABFOO8oAAAABGdBTUEAALGPC/xhBQAAACBjSFJNAAB6JgAAgIQAAPoAAACA6AAAdTAAAOpgAAA6mAAAF3CculE8AAADAFBMVEX///+To51LZlt6jobEzcqdq6a3wr1qgXgJLiBKZVtrgnlpgHdpf3dofnamtK+SopxnfXX9/f3n6+nR2NXBy8eyvbmisKuElo98kIhvhX1mfXR3i4SDlY6Ropugr6mvu7a+yMTN1NK1wLyMnZdsgnpedm1OaV9DX1Q6WE0sTD8qSj4tTEA+W1BWcGaBlIyUpJ6ntK+7xcHT2dfz9fX19/bj5+bQ19SotbCVpZ9bdGpUbmRAXVIrSz8vTkI/XFFac2lyh39/kouls668xsPV29nq7ez+/v7y9PTm6ujY3tzM1NG9x8Suurahr6qHmZN7j4dddWxCXlR1ioKAk4y4wr7K0s/e4+H2+Pft7+7O1dK2wb2tubWksq2QoZqerKexvbjI0M3k6Ofv8fD7/Pu/ycWbqqR2i4NXcGckRTgNMSMjRDhVb2Wcq6WKnJUlRjluhHzr7u3f5OI8WU4TNikPMyUuTUFPamBxh37x9PPZ392WpqCClI1TbWMQNCYcPjE3VUqPoJq0v7v6+/vx8/LW3dq7xsKjsax4jIUxUEQfQTQLMCIZPC87WU1NZ13Hz8zh5uT3+PjL09AVOCru8O9geG8yUEUMMCOfrajW3Nltg3tMZ1wOMiQaPTBIY1nw8vFSbGIyUUZYcWiptrEwT0MUNypjenGruLPo6+o2VUni5uUdPzKGmZIoSDyfrqg4VksYOy4gQjVfd24RNSdNaF6Jm5TGz8sKLyE1VEgnRzuImpPP1tNHYlhQa2GYp6H5+voWOSsXOSyFmJGqt7L4+fnDzMmEl5BGYlfFzss9Wk95jYXb4d9ziIAiQzcSNShBXlNJZFqOn5kpST1cdGseQDO5w7/S2Nb09vVheXCZqKLs7+5ieXDX3dsbPjEhQjaaqaP8/fxke3IXOi0mRzrU2tjg5ePc4eCXpqHAysZwhn7p7OuwvLfJ0c59kIllfHOLnZba4N40U0fd4uBEYFUzUkY5V0ysubTCy8h0iYGzvrpFYVZZcmm6xMDl6ed+kYqNnphRa2IenhBCAAAAAWJLR0QAiAUdSAAAAAd0SU1FB+YKHg4qKz/2clAAADo3SURBVHja7d15nE/V/wfwj9Fwja1JMlTEiGlK9mUsLWKsCWWXbQqDMEKypAZhkJFosWRNSJYYVIZClEIpWbIrCVlS2nz7zozZ53PvPfe8z73n3M/n9fzn9/s9Hr/Odo/X3M+9557j8QAAAAAAAAAAAAAAAAAAAAAAAAAAAAAAAAAAAAAAAAAAAAAAAAAAAAAAAAAAAAAAAAAAAAAAAAAAAAAAAAAAAAAAAAAAAAAAAAAAAAAAAAAAAAAAAAAAAAAAAAAAAAAAAAAAAAAAAAAAAAAAAAAAAAAAAAAAAAAAAAAAAAAAAAAAAAAAAAAAAAAAAAAAAAAAAAAAAAAAAAAAAAAAAAAAAAAAAAAAAAAAAAAAAAAAAAAAAAAAAAAAAAAAAAAAAAAAAAAAAAAAAAAAAAAAAAAAAAAAAAAAAAAAAAAAAAAAAAAAAAAAAAAAAAAAAAAAAAAAAAAAAAAAAAAAAPiKXAH8cjOUf1MgvzyyBwcA1JJX45ePofwgm8sHAD+CwAIA10BgAYBrILAAwDUQWADgGggsAHANBBYAuAYCCwBcA4EFAK6BwAIA10BgAYBrILAAwDUQWADgGggsAHANBBYAuAYCCwBcA4EFAK6RH4EFAG6BwAIA10BgAYBrILAAwDUQWADgGggsAHANBBYAuAYCCwBcA4EFAK6BwAIA10BgAYBrILAAwDUQWADgGggsAHANBBYAuAYCCwBcA4EFAK6BwAIA10BgAYBrFEBgAYBbILAAwDUQWADgGggsAHANBBYAuAYCCwBcA4EFAK6BwAIA10BgAYBrILAAwDUQWADgGggsAHANBBYAuAYCCwBcA4EFAK6BwAIA10BgAYBrILAAwDUKIrAAwC0QWADgGggsAHANBBYAuAYCCwBcA4EFAK6BwAIA17B7HVahIH6FZQ8OAKjF7jssAABhEFgA4BoILABwDQQWALgGAgsAXAOBBQCugcACANdAYAGAayCwAMA1EFgA4Bo3I7AAwC0QWADgGggsAHANBBYAuAYCCwBcA4EFAK6BwAIA10BgAYBrILAAwDUQWADgGggsAHANBBYAuAYCCwBcA4EFAK6BwAIA10BgAdgm+JYitxa9LVexkJDiQUElgoKCbg+5486Spe4qckuw7KYpJfiW0mUCQ0PK3l2ufFhY2D3h4feGhd0XEFAh6P6KlSpXqZrp/9PPA6ta9RqVa9a6o3j+iIjaAQF1wsLqhtdLGrEHAh68+aGH76z/SIOGkbKbqKdR4yZNmzV/tGKLx4JaprQ+uflhSRc6LKxVQO2WQa0fL1z/iTZt28lup1hV27dt0KFZx06dA5PkCk3yZPL/1qVTp67NunVo271HlOwW3tD9qad79qrTO1r3H090n/v63t7vqeqyGypZuyqlnrm5VZ9o46Tpn29ArcoDU/4D/wysqJi7AkMiBvV/1ryTg4cMfa5wHlXm1bDnb+o0fESBkff1H8V6lV4YPbL4iy89Hyu76fzGjB338jPjS9QuP2FitHl/4ybVnTyl5YCHnyxZ9JWp8c63Nn7a03nDXmX+R/TsoKB+TSU0U77pd7342oyZFvKmXonX34j0t8DqcdeTb75Vd5blvs6e07pmd3nNnluj650PvT2PIWD1RN87v0WexrKH35LpTRe0KDFn4SLCFNVmz8u3OHeud9oscaTFDZs/9C5Dpua8OJNvf2m67OF20tJCQRO4ruekZYTJ4LLAatxxea/3KJNfe2/xilscbnT7mwLHz39/JanZmayan6u0Ij+aDETGlHlm9aBJojqdYs3CD4LWVlpnX3C1e6L4jARCA+PW575V/UsjQNWueTcIvbTMWALrlVBjG0P0vS5sjNo9NaLcRCF9Tphc7ENnrmv3ZrXe/Ijy90TPqx9vautMFzgkTtsU9MBmGyftlsmvffLph1XpLc1iSZfahLvfdCtbFhom+wrYa2rhAOaHGcKxBNZym8s3t3Xb9s/EjtHCtUttvaiNdtQquHOLrZeu3ufTbO0Cly8q7brPqdn85ZwBT9/UQ0y7h90WYOVRjLGvIopulX0h7LJk+G7KPSiZ+oEVu67Fnq9s6HlcQBl7XktPb7b37npxjly9r0Oq2NIFPs8//c0+R7qdRZ8pn99Wuhqp4cHffiN6hq188zvZl8MG8TXziYt1PooH1v7m3wt79pPTkAO0iZ7DwTwtiI/YLNu5Yr9t89OCxiUPfelsx7OIG9Iy9JH2nBdtb7gtbarTOV72VRHrcM8fJF7iVCoHVvtHa9txa5XZkaOilgocq/L08SFOXrl0J3ZNdWC2GogsXSxM6s+ENCf7bi9j9TVwg+NrbGvPC8t957VhZMePZF/eFMoG1tJacxy5+6z7Dv1i9vh2RICdD5nNRB865eDUzSr22wKrJHY9pyArrW/T196kfXW8u1ah6Em8bZ7s65pKzcAatqKVc3+yy52mXMq2jxacIP/2IiHiRxnzOPjWsgr8Ssg6EkXYm/9KPvvbM6r1QRlXRqjEn/rIvqzpFAysyDOLRbxeZreoMOe3O6dvO37S0ZYamPVzQ6fncZGe6szjdEOZm9+klzMt2tJCiaeM3KIe3SD7omaiXGCd3v6186PwsfXntUs7l3D48bqZSf2c/Bi3UZdBsjvs1U2M7T9blmc5O59V9ZX9mtXcL/VkX9Is1Aqs+PpznFkPkN3Jc1aa2b7+zfa8WCLa3cCpWVw6r8xndgbKs7U/+KiNL5+9+GysU1dGsMMBsq9oNioF1pIRdiwKZ7Omq4WGvi6tmSZG8f64tSS4ayvZHdX1BFMPaux0ul2zzsc7cGVEGzbe+he7NlMnsIpckLfeP8nMfuzXUdnA0rRyZ+2exO2O3iu7k/pGswT21hDnfg1mmOfQ52AC5VHwGaUigRVcZo7skdAKM19IhQNLO9LG1jk8bPkLsntohGWNyqn1cto2a7m7vovucVz21fRGicCqukmFP9oJL7NeSpUDS1tT0745vP9X1VYxZHXvMdMuBO+VdyNfR+LmRpZ1PCL7anqlRGA9IHsUboguw3gtu8huqaGEYjZN4XZ3SvhU0BLzvUGml5PZvmXNbLo0wiW2lr+40CslAut92aOQavNFtqupdmBpWk87Hr1H1lfwiUZWvRPNOvGh5KUoMze6Y4FDWzXXrGgIrKwusX0MrXpgaWXFr8hqqshtsBHTp5Al7ftukNU38cIvjXhFT8geJl0IrCzyM11P5QNLe07wDF5SQs76OEteMFlRHhkiu4XJdiv/qU7kRoUvNgIri4RbWdqrfmBp24XO4EB1/+Jm8olxL7a2lN3AG+75QuS1Ea/datkjZASBlVU9lq0iXRBYWqC4GXxZ/pITFpuN93KZfkV2A9NMdOyDBB4Nd8oeH0MIrGyeYWhvoOxGMpjFdK/I4FhhZz9F5/a5YTcGviu7fRleqCHo2thgqpxN3ZghsLL5oZF5e90QWNoPYk6pWKruZzhZrTE8DOnsb7Lbl9kkBXfjv+Fwb9ljYwKBlV2oeXtdEVjaZNOX/AyKzpbdDVZljbpxywTZzctqpaI7vndQ+juGZAis7PaZL21wR2Bp48nzN/452X1gFm10Q3lwoezmZbfqsqiMEamG2HMk7YDAyuE20/a6JLASqOuq246W3QV2rxn0o5GCyyDDnT7Ol8Ep5e+vEFhe7DFtr0sCSwunHQp0Ru0PB7NIMNjVfqsDOyFbt57hYamzmog5p9heCKwc4qqbtdctgaXlpszfo8rthWRgpH4/IiNkN867vk5uEMuguvKfXiVDYOX0q1l7+8luIavo57mnb+wA2Y23pJt+T+6Q3TY9jwvPHIphl2SPBxMEVk67zdrrmsDSevFO32pDZTfdko/0e9Jc0W0Hkn7GfmpD7vCKnSJ7ONggsHKKNnu64J7A0l7hm75zy8tuuDXjdHtSZJHstul7lf8GWLj8sgeDEQLLizwm7XVRYJXjmr1nXfR6MNlk3Z7MlXAGE7vR8TbFj2VHZQ8FKwSWFz1N2uuiwEqowjF7p6qwAawVpXS7ougD9zSid9Xg1Waw7JFghcDyYrJJe10UWNoh67O38T2yG23RQt33baq/z014yc4YYjawv+yBYIbA8uIrk63Bn5bdQAtGWT4jduAM2W22Snepb4OvZDfNzJEeNmcRi+C3ZA8DOwSWN02M2+umwNIqWpy9PVz2/ErTTsbqdCXqquymmStoexyZyyV7ECxAYHnzu3F7XRVY661N3v0u2Ao5m+F6fflVdssYJDxiex6ZGSt/42h2CCxv7jdur6sCSztsZfIGV5DdXMt0v1Z/3hX/EL9u50QoGYh1wX1oBgSWN/ON2+uuwFprZfY+Jru14voX7JK1ZMudSCUDxWQPgCUILG9MXhO6K7AGWZi8JWU31roTY1zel0Vyj1dtIu9gWR4ILG8mGrfXXYGV0JB58v7hmuU4Gc7r9GXYKtktY/Ua8/WxQaQ7NuxPh8DyJsH4KArXLAu+4R3WybvEDfuLZPPVWZ3O5JbdMmYJbRyLp5w6y+69RQgsr4z3g3RZYL3JOHfdtBwnnd5a8csu+qUzxbl8ym7uPtmdt8jtgbVlwpxDQddCPgn9KbDmp4GbQrf3rHBJwCkvxkfOuCywFjJO3u2yG8ph1lSdzjwou2VW3ORcQmVzXnbXrXJrYK3K93Phmtsuen+j3fjPaxtow7LAsL0uC6yEMR4WZ2bKbiiH4zqd+c6eTWWi7enFR0wXyAbdbfwUYEv/8Kv3BQT8FXY1vI+4cXNfYPWf0rPLOtMPGiJv/ZgyLJsMCxceWAmrwoeEhe1Jvrqj+4h/8H2G5SKMccWGk9nE6S0y6yu0muiwQ890bRDTIzZpmLofrvzizYME78Yq6hBJq26246JsCRj/U8cGWfZoCm7c9KVcJdYLyC1XBdaaVrn/PMtSYIpxJ/mb3cKwZHGBdXJkyPCu3bpn/bakR5Xfi81fJqwOTdvLMly2bYiUcHJO3rUrum5r0DbdI6LK1tugsLTAG6wvCzSfm6OCMZ2Oi7xCHzPPaqFOCb+p7pO/5Bv6Wz/HNx1ejria1zWBdeTvwt0sHrRHOHTbeIOZA7QxTzFzdIlcZwxuFCOrvCjso77vGQbrLjt+Q0W/m79LDS9vXA+LqqCpTm/eFlVBwgd59P79xX66U9hAJVj6HEEYwZvvvDe+m/k+9dU6vkmJelcE1uB8T3Jd0On1eJtdwrDcA5SrmmzeQ3/OZWh/lfxifvuHmVe1X/xGdxNa/6P30Qx/YP31Rbcy7zxapPO1K5uT/q8AnfKbCErfmfkvGo7aOmHvVfPyzG+qJnGimp8kumU31nqDCNWoH1i983blPhCpKe8tb1/DYg9QLux7BWsuYe7Ajy0pVaXZHGlaUWsR9WRIaHXA6Owh/sDKmE/Bz9cc302nfMq/iEz+KmI6bp16i6nqq4G8c5zggpi2Jzvx+VL2en04sHaG8uyYmeE4Z7OvGJZ6gHJlLfbgdxFnxf9rVsthoa+/6rWIMamOu2im+TRQyLuvlQtY6qoq6HDsvYRZzum0sDcHs8YPs1KxrwbWwuU/Uq9JEc5mXzUs9QBhQKwGlmcq9+/aDH+YVSLyjJyAb01v6L7gLpxpPglZUPY+62HylQSs+0sKefO7YNGuCbrg2gdNrFXsk4HV//MaIi4K5+7kMwwLPUAYEMuB5WlIf/he36SKb8k1pIlbzHJLfJq7fJb5dEzEAo0C8cwXqMh7IkbO8cWj+1eKueQvdLVas+8F1omy2wQdi8v5sv5rw0IPEAbEemB5lpD/AW40riBqArWCNHvMn/ok+5e7Apb5lEdARx6zcoGqhwuo8YL1iUHTRcwlb2V9swlfC6zRXfYLuyqcGyscMSx0E2FAOALLc476XVxZ4/JFHapRrwxjhxpyVzGHofRe9J5YPJR56gZ6lc9W5ZgZFEJWzSQ8FmW9Zp8KrFGHuom8Kpw/dlYaFup0YJFPW3/bsPTYDcTib/iqxVbG7nh6cFdieiq3x3OW/izZ8iHyMV/Sx495Uw0xuom45rO4Dq/2ocB679eBYi9LDb5mrzEs1PHAakd8StLKsPQVtMJT/dWWvT9VuWu5al74i+Su9LL+APwVekr+zTMz+OUVcM1H8Z1S5jOB9VlHQU+uMlzka3aC4ZR1PLA8hQg1aibvEKLq0gpPEb38GGtfkmy1pyc3TKb2ZR7Pur9a5CF8VtyDEJZLMIl+0Z8dx1e3jwRWuR02XJepnO2ONyrU+cCKpT13N3wkJ2ILtxe2WepOMHdF4aZlt6X25cQXXJfobvIg/s5VL6df6Bd9VjPOun0hsOJ6dbDluvAGluETUOcDy7OWUKXxL9zIeaSiU8xgXbOUhvuj2y9Niw6lduZpvis0nbwVnqNbJQt4M3GUt273B9bM1xrYdF14A8tw5e5PhAHhDKyltK/jDI6SOkMqOMVOy8cXc3+y/4Np0WHEzpTnfSxBvlNdJvyBiL659A1Zn+Ou3PWBtZe8ol0Xb2AZ/hOUEFjEf4eN9QueTyo4WR22DQIz28Jb1yKzkvnXpN4winvfhMjPqAPZlLdq6xaQr3o+jvUMqVwfWDbiDaz2RoXKCKwWhDo17Q3dcquTvyIcbek7sht+4K1splnJ1L3KQvjnWgPq5gct+Ou2ajX1qp8gHE6GwNLHG1iGR2PJCKxthDo1Tf99xuOkcpNsaGyhF2n4j+CKNSm5Nq03mw8SJht1e6lWhLqtiSV/lvM6oXYElj7ewDLcAUZGYO0n3Ql11Cv2GPX0vlffsNKLNP256zNZcpC4mdad65TJRt1IflY1Su1WPEW86loA5VttBJY+3sAyvG2QEVi0Lyl+0St1HKXUZGbfVXvH//HdQOOCia8QNrdnar4e4u2dc1u7305s6FcxlNoRWPp4A8to+zk5gbWYUKn+Zx8lKKUmKcjXGf4tc0wenVyndacnW/P1rCOO5kZa9eyoJ4HSxgmBpY83sKYaFTqcMCDcgUXa5KmQTqHx3K/rbujPuRnsb9w1mrxQvkLrz1jidFtIq34osXpWPYivBxaxHwXjDQJLn+8EViVCpdptOoU2pxSahHV7huz4/8IbL9jbSjuTheHTamP/ow3nSodWYv1JvOyWNt/JCYGlz3cC6xVCpVoXnUKJ5yP3stSDTHZyV1navkHStEep0+0W4iIRvq+CLCPuNUp6lepBYBnxncDi31Y4yQHvZRLfqUU/z9uZVtx1Gn9wupfUn0X0z49Jx/dqWnNyA5gQH2GVJVaPwNIR9W/TkpztVi+wphMq1Sp6L5P4dpt/4vIvCr/LsNwKpP70ZWu8kUDaiFreiItLPHEvnNLE+hFYWWxt3KFMYLFdEa3CCefaGgZWLcKAcAdWMOWU3ie9lzmeUKSmzbJwslM2+bgrzWNY7gZShyiLIVN1py3FepveAgbTSG3U1lPrR2DdsOSVQp9cuNJHyCGa6gWWh7KB0a/ei5xBGiOWA6V1fMBdaSmjYueSrn2C6WloDNaThrS/gBaYI36+VItav98H1tlmw1vX/k3IaUtpFAysiYRal3stkfihMNuBE17xP+qpZFTsH6T+MOxmau48bUwd2di9AKmJ0bTFtR6/Dqyqbbrs2vMCbY54pWBg8X/OomnFvJb4KGmI7iNcN/4l4SvsujCk754zEB8LEv4IsKM9cy9Prt8/A6txqYf7hgv5+eeNgoFF2cnYe2BxnoGWinv/Ng9lT5tNRsUWJHXI8vl63jSircksRW+BqWDawdj05fh+F1hRHYav3kAadFMKBhZlFbX3wJpAGaFRlnfty+Qb7mrvNCqWf7VEMp5tJ3KibeAaKqQNxohPAj4kN8CvAqt9x4c/WkQbcRYKBtYEQq1eA2s66f70Y8pV5N+Oaa1RsZTHfKIeeNO+zswvphGGKpNaOJGyT8MNfhNY8c0ee5+6SRojfwgs2gnJnFuf38D/JfcIg1KHkToUIWaS0l7BBYhphKFapBYS3g2n8Y/AmvrTFNpvb0sMA6sioWCFAou0dx9tDQD/bch5g1I/pHRIe0bMPG1DagTDMWZkxUktvJPeAD8IrCIjhByszc4fAuttygDNI11P/sf9uQ1K/Z3SIVHPu/lPtU42SUwjDNE+H3qK3gBfD6yxd/Bvn8TLHwKLdJw07XuyN7nrvd2gVNoJX1UETNVk3PvVp2hHb4AZ2trW6fQG+HRgta/4Lml8OflBYA0jPXPn22k0zXPc9V4zKJW0CUGCqIOXH6C0QiNt5cmGlKgbBDTAdwMr8pGW9PPTuPhBYHUjDRDtZDb+aDE6DY9/sUSSPqQOZULaGlZ7RVQzdLUjta+2gBb4amBVPeD8T8E0fhBYXSjj8yptqzn+r64HGJRK2m70M1KHMiFtDWvycbcIP5La11pAC3wzsBqPP0EaWRrDwMpFKFidwGpNGR/KdzlJQrgrDjIo9R5Kj1rSepSBtsPMAlHN0HUTqX0vCmiBLwbW1OKSfgum8oPAIu0dRVzg+DB3xQUMSiUtKOY/eT2brpRW0Ja3MXmJ1L5PBbTA9wLrlrLELcbI/CCwrlLG51fLzc/iDu6KL+gXupXSIe0TWo8y7CA143+imqHrZVL7dtAb4HOBtT+UeJaLAH4QWLMp40P85fIJd8WL9QttSOmQuFubJqRm2L/naC1S+0S8xfSxwKpEPYxYBN8PrKqk8VlHm7JruSterV8oadd7cduptyc14xq9ASb4/1gkE7FOzKcC6yL/7rki+X5gvUEaH/7dkVPwH4f1jX6hpUk9ErCC+4Zg0vq24qKaoasnpXlx9E+ffSqwjoXKfdaezvcDi/bNPnFnzDu5K/5bv9C7SD0StwCKNIXzCmuGnrKU5j0rogW+E1hty1MGUyTDwCpMKFiZwKpJGZ7BxClbi7vmCvqFFqX0iHwUTAbSE9gSwpqhh7TL4Q8iWuAzgVXzVcpYCuX7gfUTZXhWEafsJu6aR+oXSvv2+RSxSxmWUZohYPcWE6SV+EK+B/CRwIolnkcrlO8HFunZ673EKduPu2aDfQMrUXqkcR8Km0MfSjO+oddv4m5K8+4R0QLfCKyDpA8rRPP9wCL9eaBu27SCu+YP9Au9jdIj7TSxSxnCKc1oKawZevj30xdw4VP4RGDFDKGMo3C+H1ikXwajiVOWP1sMJtTrlB5pIg4lvIH0BewhYc3Qw39iUZK6IlrgC4H1oQqLrzLx/cAibd83iDhlC3HX/JF+obTNicXt60K6w7pZWDP09KI0D8+wbuiwkjKKNjAMLP6X8goFVgBleCYTp+yn3DVf0S+U9BpBlWdYQfT6TURQmoe3hCm+o+3SaAPfD6y/KMNziThlO3HXvFu/UNodlri3hKTJLOwbbF2vUZqHdVjJLtpxdjON7wdWHcrwUF8W8S+ZMtjXhvYMS9w6rM2UZvQU1gw9FyjNixPRArcHVvt7KUNoD98PrDDK8FDP8OvIXbPBj1HaNgTiVrqTdhq5Q1gz9NDO+xaxkbTLAyue9LfeJr4fWKSjCF4gTln+74Le1y+UtHZfu4vYpXTHSN8SPimqGbpop3xdFNAClwcW6dsmu/h+YC2kDA/1UQb/Z3/r9QvlfzCW7Hdil9INJDWji6hm6DpPat8ZAS1wd2DxvzCyk+8HFqU4TWtEm7J/cFdssHKxDKlHm2g9yjCW1AxhuanrGVL7aKcl3eDqwGorf7M+bwwD60lCwcoE1iXS+BAXAazjrriefqHbSD0qxt56Y/xhnKyyqGboOkBqH3Gr2RRuDqxINba/ysH3A4u0QzL1lwH/ee4G7ye/I/VI2EZUzUnNmCaqGbpon1z+LKAFbg6skqTRs4/vB9Z9pPGpSZuyH3JX/LV+oadJPYqg9SgDbTlYdVHN0MX/hjbZHgEtcHFgTSdtLG4j3w+sVqTx2UubslW4Kz6pX2gPUo/K03qUYQSlFXGxopqhi3aA7mwBLXBxYN1OGjwb+X5gvUUan4K0Kcv/YNrgY7ZjcZQeTaT1KANp+5Z9olqhj3YjSt0cO5l7AyvG1g2RR9X9bPHj/Z7g+ovn+4H1IGlsiV8/X+SueJVBqRNJXRpG61K6MEojqNtgMNhKWiemvURvgXsDqwRp6PRsDnuwda5S025J3S+f64sNw8B6kdA4ZQKrAGmMn6UdVR/DXfEyg1JHk7rUgdSjDKTX3h/T6zdF+3BXwPmNrg2s7oNJQ5fTkXK39zvTOFstCCyvgUX8Nf4Facp25653i0GpQ0k9EnGmcZIlpEYMENMIQ7QFLbxnuWfi2sAS+QTrnu9ffGSg11oQWF4DazttvEuRpiz/v2qj4y9IxyuIOvqZthrsTjGNMDSF1MJR9K8J3RpY+wWtGY0uf/6lhvrVILC8BtYB2qDTtkFpz1/xMf1SHyf1aCR7841QdncU8oTI1ADalS9DboBbA4u2B3eq8AFFTZ6WIrC8BlZX2rhPIE3ZYfwVG/yB70LqkaAXdC1JjRgrphGGKF+WaSKWjro1sOinTvTftcP8JFrxgbWX0GRlAusccey7U6ZsNf56p+uXeobWIzGbJG+gNCFOxEnwZvLQhimc3ACXBlYM7fWqNuvudUznZuMOy2tgTaWNvtaZMmVj+es1OCyC/1F+igWUHqU5S2rCeyKaYIZ/TckN5J3DXBpYlAPfNW3Lw6zHnOAOy2tgJRL/XpA+ZYnkr/eyQanPknq0i9KjNC+RmtBXRBPMxJJ2GBRwToZLA+sjQrGDdx1kHh4ElvetCEhnJWjamjGUORvNXe8bBqXSXtgvpHQozc+kJgjbMsLQDNqVX0TcW8j2wKKcEaxffg/+OavVsbIKCIHl/R/CZ4Tykq2gzNmvuKs12nuddCCMpv1I6VGqDaQWFBXQAnPfE688dZNBuwOrmC3l/8ld5swQS1+Iig+s/xEGRJ3Aoi1117Q5lDnL/+NtnUGpG2k9ykXp0Q38X3WnEHf8tBHia0JtPe0zB9sDi/L5uX7543mLHGXxzxDusLwHViihvGRxly13IQN/YDUzKJX4/iuA0KFUv5IaMInpLRIZ8W2qpr1Dq9/uwKKsx9MvfxBnic8+YnF4EFjeA+sXQnkpKGd+8gdWR4NSia8JB09nbr8e2i5jQ8n1M5lLfN+iLTxGqt/uwLpuR/mJvK8qLG8dh5+E3gPrC0J5KUaxvqf1gj+wmhsVSzzgshZ/h26g7eeubaTWz4h8rt7LpOrtDqwQO8rn3c/W+tehCCzvgRX8KqHAFLfzz1n+wDI8BYH2mZzRkTxsiF/H/kGtnxHtaMIkG6pSqrc7sHLbUX59vvJWWR8pBJbO6/LdhAJTLOJf7c4fWIavqCgvtJM15e5QisRlpNoHO7HOPVkh6pWn7Sphd2BxPx43Kp8zBQ9YHx4Elk5gET+CTfI3d2f4A2u4UbHUx8l5uTuUgnb+hFaHVju76uQrn/AUoXq7A6unHeXzbXg5O9H68CCwdAJrBaHAVE/wdoY/sP5nVGw14iLuNYTHch5P5GRa7fYfU5/ma/KVf4+wetTuwLpmR/l8LwnzcwwPAksnsA4TCkwVXo2zM/yBZbxtFe0tHXHXHNp5NJrWjVK5JeSHWEl31/yLsewOrF12lL+Pq7h/OIYHgaUTWJHEd2rJLnB2hj+wrhuW+xixP6RbLN6VOqlm0xYLWPEn/cprIdy12x1Yz9lQPuent+05hkd8YFGWXCoUWJ7ahBLT9OPrDH9g9TQsl7wmknCeahli1S35q7Zq/xoBl74kb+12B1ZxG8rn24WjP8/wILD0AouyADbNKL6jivkD603DchM3E/szszRjD3JoV5dYNW1xkzX/Cbj0s3i3R7U7sN60oXy+FXZcn68hsPQCqwihxHSrnufpDH9glTAuuAK1P+9HcV4fyvrqZLPo6+zZPS3i0kdz7olmd2DZUf4OrtK4tgtCYOkFVuQRQpHpvuQ5QIc/sO42LjiQ3J+9fJenAfEFpVaOe2ZwWDJTxKVPqMhVud2BRXmloFd+Za7SDvEMDwJLd5+lC4QiM/Tm+AqaP7BM/mg1Jh3/nOzZ73iuTvxVar3cj4S4lBNy6bWeHOuMbA8syulJeuXzPaDkeieFwNINrE8JRWay7IzlzvAHltmNCHWbL00L5/ltRs5+R38RejyVxFx6LYzj/truwKKcz6xXPt9WAVzb8ooPLMoeIkoFVg9BJ9lGW/5pYF9gHaB3Z4r19QU/kSt14sznTPaTvyRN9ar1dwV2BxZlg0K98vn+tu/huTQILP2td0W8LEpx90BrnbEvsM4KeDrznNV9qSpTH2BRT6a17rioS6/NqWGxarsD628byi/FVRrXoSIILP3AeplQZlazV1j6R25fYHnyCejNLmuJVZm+rGkfz8Mgim7CLr0Wd3NjS1XbHVhv21D+E1ylzeQ5+ACBpR9YcwX9Jkx2xcrxTzYGFn0rAs3iPdY4Acswc3PPC15hoi58kkVvvmGhZrsD6y1C+VN0yuRckfwtx4VBYBmcxtKXUGgOn7F+OdX+U/6fUKaB1W6SiL7czb6P0aMC8iqBazUbibi765QO7OnK/OTP7sD6i1C+3qavbfiKK8txYRBYBoFF/Zwkm3fvNN0iK3ja9gcoj5nMlytRPiXLMKMJ22XZmldEbSz/DgWLp23eldMPx0uxpbzdgUX5Av4/nTI5TxdZybE7AALLILCihKwdzSTuyvAGut/x7/9j7cgfiBWYBxbvZrbZbF7Bsh9BA+KWMqm49+khoJyGpWPN0I2VTb73Da6+LYBQA0tgjSaUX1unzB85y/sfQ3uzER9YzxAGRLHA8pwnlKpn0n9ry7yR9U/L/u9Khea/SjiKMh3DgnDyVqqpdppuQDqmtYguadoEZ47LyarHCUHjlE34N+cPdKzSI2tdSxts+7Ti9QtT7iU+NWUJrAmE8ivolPkvZ3mTrO/Ki8AyCqzL5JXheiYOCqgdERS0+O+A+y4JvI9jCCzyeUBp4i6cMqqn6k+rBFX0OvesoKCc38dgy6TwIWFh94aHT9wirlCWwAonlK+3ie5W3n8neyx/m4rAMjwCnfy1sMMYAiv4HnHVzdF9lny5p7A7lInx3LOCYrrAIHEKS2D1IZT/jV6hX/KWuNjqTocILMPAuolQrAws3wgfEFnhD6sLHcxeQXCb+69SD/fLRMCR01zucPjaCcASWJSNKXW/ra/DXWRfiwfnILAMA4u6T6bTWAKrGt9+trrihsx/eMG2Gm0P9mj8fOl/fip7RcjKiXR94rknBU1V7tsGaVgCi7In2vd6ha7mL/Meayd2ILCMA4t41IvTmHZhKSy7lZYc5Z4TVGLXYjmBJbAoz/WP6xVKeTuV8PY51iuS2KTo3TxV+FFgRb5LKNh5TIHVjvIYw2nvOf1VToZgMYsyHMQQWMGU8nX3hyRuebj+SZN1fbGnbw0c/989vG+dDQNrLaHh6gWWpyjtUjiMbZ+7o7KbacEC7ilB94ptL4ltwhBY8ZTyC+iVOo7c9JPfhHbMttrH02hqjbs6Df+85e4viRfCnwIrMox8LRzEFliJ9JP3nNJKxhqsdGI+C3AOQ2D1oJQfpFfqEkEdWDPp6xlhAXPCwi6Fh0+kb/KRxp8Cy3OXsGFzAOO+UcLWYtktrgMlb8j2UxYtScAQWKcp5Q/QLVbtFxSGgbWRULCKgSX2E2ibjWQcrg9kN5QRz9nAIj0icHmGAxgCi/Rp1s+6xVI2rbGfX91heX4cJXu82VVgGy3PWHG323ZaNpB7QghC+RTZeQyBRVpZuEu3WMrxyfbzr8DyhMgeb3Z/Mw1Wkp6yW8pE5hP3G9r9JnsMrGAIrI6U8m/XLXaa7K4b8q+fhJ5q1ENAnfMN02B5XPJ0pjZrb2x0eJHsUbCAIbBI52s8rltslE3fiovhZ4Hleco1TzJWMw+YC/q00trewjZZIHsYLGAIrAOU8tfql9tSdt+N+FtgeYRsQ+cEC2dTUo4sd0Yl7tkg1ADZ48COIbAo29VphfXLrSm770b8LrDGuGXhkoWzKRup3qcC7H2xVdQU2SPBjCGwrlPKf1q/3Lkqv5ryu8DynHPHWzWtoIUhmybwjA0bTNjPPRkEGzND9liwYgis4pTyjU5ZjJDdeQP+F1i0O2nn5LUyZnfKbq2Rr05Z6Yq9YibKHg1GDIFFOUdV62RQcB7ZnTfgh4EV7I7fBW9aGbPIkbKbqy+hJvdUsMEp6l77DmEILNIKz44GBUf1l917fYaB1YJQsLqB5ZkucKNO+/zM0pWMPt0ru726znPPBFsUEbvHl10YAqs8pXzDrav2yu69Pn8MLE8TpVeapNrF1JV0z6+U3WAdHzAf4+eQda5YjsUQWJco5XczKnnuq7K7r8svA8vzEuXAQIf0tDhsldXs0/ph3BPBLuvccI/FEFiUHZK1IoZFPyy7+7r8M7Cou5Q54XOr4zZcdou9+foW7nlgn7Eu2PbQPLASSeuFLxqWPXe27P7rMQys5YSC1Q4szyeyB95UiOWBu192k3Na5vzJ9Czaqv+FlnlgTSWVX924cGWfYvnpHZYLNnR72PrIkRbm2GHLh9yzwF5nW8keGjPmgdWNVP5B48JjVV2w5q93WJ7In2UPvYkR1kcu+DXZjc5qZRvuSWC3RNU/0TIPLNrWjWZreW9V9ANVvw0sT+Qu2WNvbCPH0EUplVg/qHp/lWKT2l88mAfWT5Tio033q1b0n4f/BpbH85jswTdU2EpX0gQXkN3sDPuqcE8BR6zbIHuEjJgHFulTwmWmxbdT80ehPweWp5bKR6kEcg2eOr90w9V83p7JMKXuR7MxD6wLlOIXmg+PmqsVDQOL8irNDYHlKfqs7PHXV4lz+CqqkcKDznJPAOeUVHeBpHlgkb4w280wOl1VfIzl13dYHk+b3rIvgK6uvOO3QIXdQfpW422+o06Xkz1QeswDi7TjM9MRJyru7u7ngeVp+JHsK6BnHPcA7iAtgRYh4bxq3+PoqrRM9mB5Zx5YpLWdJRiGxuPJLXsUcvLvn4RJosareOObZAf/P8LTkg9mP/Enf9sd1z6/kt80mQYW6RhVgzMoMot8SPYw5OD3geXxVD4i+yJ4VYPwj3Cr1L2AL31BaLoEVQJkX2svTAOLdrjNWpaB8Sj4USECK+lv7HzZV8GbizxdSVdps6x2JzzUjtRyGZ5Q7xW+aWCRzszR+rEOzfBo2SORFQIr2aerZF+HnLpzD2CKmM/kNPtL/mdvEgUvmCf7emdjGljFSMV3YhmVFI+otbcFAivF3AFqLAbIpAf3AN4QfOcaCa2+ezqx2bIEN39X9hXPwjSwVpOKf4plTG44XUf2WGSGwEo1jbR/ow22cnclzWHHb7Lq/kNutDyRlYcq9FfLNLBI2/dp31kYmKj7FfqKyTCwthMKdltgeTxF68m+GJlFE3qSJrKQoz91B9/vvqdXWV18SNqjv+zMAiuRdlCStQcO3+2UPRzpEFgZYl9XaJsk/vHLbMw1x/44JsynvSZQw7AVV9RY5mIWWFVoF8vi/fuxp1U5bQiBlVlUIcGvi/j/YB+h9STd5dXO/ANs1U1Qg6W7XEz+ubSb67xo0spCpPL3WR6VRo+r8RkTAiur4Cc+Fvcg42Supdz/7T3UnqSr8YGwDum66qaloqYiS1+X9nggoe787V0vm27+4rmdVMv7HKPSfoQK55wgsHK4PH6fkKEdXSjW05D7vw4T0JM0Tefb+zS5/LcCG6uIN1rsdnoF0r45xfudq8rYPtqWqUyfEubQaNMEh4ckJwSWF1F5VlO3cTjxZtPkkvjvsKYI6Uma5wva9kX0zL7bhDZVHWOKFnfotMf+U1oH3tTeStsSaWtWBnAOSeSZC5J+GSb0+avE8prnBho2z18DK0mj37/n/7h01NDOqZsVfMFdxmpRPUk1cK8tbxT2XZ9Kb5vC/v392k4b31tMGrR6ROdpHCehNaXVy/pljhf7a/7t5MGOCUceiBhfq+PYeJa2URbTujywkkSdCbmP41fBytc6NUov4xR3T6wd/MwieNzfgpeSRg9dQF8tpr522yrefFXsHerM3q0OfVKpjaWbqiwq0uqvRBuQMsWHiJ1JOS27NDTv8s63Xk600jD/Dqxkjb69/paFTxNeqJCrQ5aNVUpz9+QOwT1JMea2D4RtTZBQ56eGdrRRUVENFhRbPZm6CefseR+XXVv/ptOx1ObUprXjHHk8lha61kr49pcJ++a9dfz68F9eWcr3h7BDIL/buIfi9VB+hD1Z9F3+fcQ3o00uTvSQv7eX+iLHy50d3Neulh09SdKwSwUBd/SjPjiw1KYGqu3suk+fvPZgnT4W7lVXfv3+nrt3bXy0Y9Pulm4XjEQRk3OgmFacerR4HeobqpkvDKlTO//9tWo+1eBssKzL6oMi/32lecXxi0deudR/0qTkf/IJkyZN2vDblZHHd4XW3FE9yvt/dRf3daxkX1e2jrt2ifLacGHZUqzvsnzX/qUfVq4ZGLo9JOh4xIMBSXaHtUr+H+UiIiJKBOW+HporsFLzuzq0pX4S6t05WkhsEdmWRt91fbJ4uQkTGR+fxE1679LuDyLyjl979J1HOsSMceJiAavm3HPK5k0Ppr90+06OjztmjR7wzhLZgwqkvYA1vmVY5sa0nfZPpVqhv4aE5A4KKhgR8U1QspCQkDtCKwbW7/REs3Mdvlhidh4iSMV/dtwp+xsXW6Tkz61+YG3QiUEFjk6Llz2gkOIqLbAiZLcfFPU495w6SK+czfRz9e8/HjBD96HIV0M+OxTy+jY3HILjN5YSP7cS/W4KfAX3uaaDzT/OEKxaTI0zRW+rGBq6PCTlLj70xdebN+twea7sIYSciIsatOayOwCK+o93Sp2U3XJQGHXvtiayOwCKCuOdUjtltxzUFUP8RTgqit4G8Encuwj1ld1yUBfxHaH2ruwOgKIOcs+pXbKbDsqKpH6SfbPsHoCibuWeU4VlNx2U1YyYV9rTsnsAihrOPaeKym46KKsCNbBKy+4BKKos95yycqoJ+JWl1O/XB/vDFhvAg39bSHxiBTo+p95gTZbdA1BUFPcZFJNkNx1U1YN8EtntsrsAinqFe05hGRbooK5p0LSXZHcBFMV/cvYF2U0HRTV6gZpXcfbseAPu9xf3pPpVdtNBUfQbrNGyuwCKqsa/D7hPHfMH4kynnw2IR1jg3bf8k8oXTn0HG+Qm55XWTHYfQFHfc8+pwfg6Fby5TD+851WswgKvhvEfKiLy2GfwISPpN1i9ZPcBFBXIP6nKym47KOkJel5pXWR3AhT1AP+kCpTddlDRsP70vIoeKLsXoKY3CLOqg+zGg4qCBNxgTZHdCVDUcf5Jha9TwYvKxI1GU6yQ3QtQU8ws/kmFD3MgpyXc29dm/ls4XXY3QE2LCbPqc9mNB/UEvyUgr7T5srsBaqpBOQu+jOzWg3r4j7jM7AnZ3QAlBfPvhIWvU8GLUiIeYGl9jsnuByiJ/4h6DYeaQE5N+VchZ3a/7H6Aki6+SplV12Q3H1Tzo4gH7po2q7rsjoCKtr5Pmlb4OhWy+vc9IXmlrZbdEWBzsHmwk9VdIM0qfJ0KWS2ZICavtKayewJsYrQJ9Z3bAOEZ2qyqIHu0QC2N6wnKq/KyewKMYpKuVniXRGcqCyS+z8HXqZDZ0nsE5ZX2reyuAKOYlOvVu1Y7B+p6lLICK8nMJbJHC1RS5UtReYUPKFwjJvWSTby/u91VhVLXy+STPVigkjMnROWV1lF2X4BVTPpFi57fLNLGirbmJU+r12UPFiiky2BheTXZzokPQsVkvnD1Ks61q57TO8nTajCWuUOaxDeFxZWmjZPdG2AWk/XSLcp/ky3LHF4nH8qraSNljxUoozvlA6/s8KjBRWJyXL7e40uLrmTsHhHzCh8+Q6qO5DNTM0nAGiwXifF2Ce8dMVZgFUt2ETbAynASX6dCiq2thXzunAaL3N0kRucqrr++Tcx60urjxXycqrWQPVSghg6/iYwrbZHtr8dBoBj9K7mlV7/TxNKPNbtbyN1Vklm3yB4qUEHsHaJmFP4QulGM8dWsd63TUu6y21w7Im5eLZY9UqCCc+vFxpVWN152l8CKGPNLuqr2xmZjrJY78Jdrwr6bSJbwhuyRAvnGFCd+LJFzXj0lu09gCUNgJYub8ODDnduwLYTaWqXmgHlCH4smqS17oEC6yEIC79hTFZDdKbCGMbBSLStfcPuBrjsuNvJWVOK/Rf4p+djIe2YKn1VJuskeKJBt22Tx0+oIFiO7jLXASrem/9WwgIAKEYeCgoKOR0QEBOxeOMmOnEqDQy793RcRom/akyTkkd0tsIgzsBwW96HscQKpeoSMsmNePSS7X2CVOwLrkOxhApkS77Tn9n2eE5sqgVCuCKzBMbKHCeRJ7LfBnmm1+bDsroFlrgisENmjBNIkdq5r06xK6CS7b2CdGwKrf1XZowSSbN3U37Zp9bnszgEHNwRWUdmDBHLE/9Tbvlk1Eh/Tu5ELAus/2WMEckwTtme7F1dx2+5K6gfWJHxN7686/C36S5x0JxvL7hxwUT+wasoeIpDn8i5b1l9p+5rI7hnwUT6w5sseIZBq6S5B+6lltrKG7G4BJ9UD68vpskcIJDt7fovgSTVJ+Cbg4BTFAyuhsuwBAvnmblwmclItKyK7Q8BN8cAaL3t8QAlbA8Wtx1rVQHZvgJ/agZVPzL7y4H6JJYeImVP12sruChAoHVhft5c9PKCO4DKDBMyp3Qdl9wMoVA6sr7CpDGQW+e0V6pz6fqvsTgCJwoGV8I7swQHl3DSUso/fzL2RsjsANAoH1ieyxwZUVGUx9x7cs8fJbjxQqRtYz8keGlDUxYKDuWbUIGyr5n7KBtYF3LyDniUh1pe/J+xKlN1soFM1sGpjQQMYGPj4SmsTaiJ+DvoERQMrX7zsgQHFVa1oZfeZiIGy2wtCqBlY/+F0ADC1tTPr4eIrA2W3FQRRMrBei5U9LOAKsS9PYJlPDy6R3VAQRcXAeihY9qiAWwSXuc9sOvX5RXYjQRwFAwtn5IAV4z4zmk2zHqsmu4EgkHKBteZR2UMCbvOh/jH2e7A1g29RLbD6tJE9IuBCpxZHe5tN/TvLbhgIplhgXcHjUeDyY/4cy99n/w9fOvsctQKrNZaLAq9/ey7KPJcWXZ8ru0UgnkqBta+r7NEAV2tfbHbaXJoVdIvs1oAdFAqsjzHFgKhqxT7JUykh4kfZLQF7KBNYJ7AYGQSIP/q19nYV2a0Au6gSWOVwvjOIEXVYdgvAPmoEVt0/ZY8DALiACoG1qFi87GEAADeQH1gJEUtlDwIAuIPswEp4u4PsIQAAt5AbWHFv15A9AADgHlG/vz1LVlxFH2oiu/sA4DI9AltRznrjtSpkquyeA4AbTQ1l3WxWlFadsKsoAHCK7DBivWNp9d5jF2X3FwBcbmqgE8+zeu/agSMHAUCA9vWP97Yzrb5+aAc2bAcAcdp2DrIltBYFhGLNFQAIF9lg+KGFcQLD6kRAsXXYnA8AbFN1R8XFM+gLHmbOWFyxA34HAoD9enQrGVKhHt+z+FkLe12vXxqnLAGAo2Ivdtz0+IWAGVuYgmpU+JXvc9cq2gQrrQBApv2H1z2x4OivIWVbDg0I+CssLCw8PHxIWNjkgICA+ReuFct1W9cz352V3UgAAAAAAAAAAAAAAAAAAAAAAAAAAAAAAAAAAAAAAAAAAAAAAAAAAAAAAAAAAAAAAAAAAAAAAAAAAAAAAAAAAAAAAAAAAAAAAAAAAAAAAAAAAAAAAAAAAAAAAAAAAAAAAAAAAAAAAAAAAAAAAAAAAAAAAAAAAAAAAAAAAAAAAAAAAAAAAAAAAAAAAAAAAAAAAAAAAAAAAAAAAAAAAAAAAAAAAAAAAAAAAAAAAAAAAAAAAAAAAAAAAAAAAAAAAAAAAAAAAAAAAAAAAAAAAAAAAAAAAAAAAAAAAAAAAAAAAAAAAAAAAAAAAAAAAAAAAAAAAAAAAAAAAAAAAABI8X830GNPB1xL5gAAAHx0RVh0Y29tbWVudABUaGlzIGltYWdlIGlzIGZyb20gW1ZlY3RvckxvZ29ab25lXShodHRwczovL3d3dy52ZWN0b3Jsb2dvLnpvbmUvbG9nb3MvZGphbmdvcHJvamVjdC9kamFuZ29wcm9qZWN0LWFyMjEuc3ZnKS4gIEVuam95IUyhD1oAAAAldEVYdGRhdGU6Y3JlYXRlADIwMjItMTAtMzBUMTQ6NDI6NDMrMDA6MDBICfOIAAAAJXRFWHRkYXRlOm1vZGlmeQAyMDIyLTEwLTMwVDE0OjQyOjQzKzAwOjAwOVRLNAAAAABJRU5ErkJggg==;" vertex="1" parent="b9N4R5i_NIoSZ153W1rB-72">
          <mxGeometry x="140.29714285714292" y="65.33677192982458" width="79.39849624060149" height="39.699248120300744" as="geometry" />
        </mxCell>
        <mxCell id="b9N4R5i_NIoSZ153W1rB-60" value="&lt;b&gt;&lt;font style=&quot;font-size: 17px;&quot;&gt;Django&lt;br&gt;Web&lt;br&gt;Application&lt;br&gt;&lt;/font&gt;&lt;/b&gt;" style="text;html=1;strokeColor=none;fillColor=none;align=center;verticalAlign=middle;whiteSpace=wrap;rounded=0;" vertex="1" parent="b9N4R5i_NIoSZ153W1rB-72">
          <mxGeometry x="55.71428571428571" y="144.41712280701753" width="51.42857142857142" height="23.578947368421055" as="geometry" />
        </mxCell>
        <mxCell id="b9N4R5i_NIoSZ153W1rB-61" value="" style="shape=image;verticalLabelPosition=bottom;labelBackgroundColor=default;verticalAlign=top;aspect=fixed;imageAspect=0;image=data:image/png,iVBORw0KGgoAAAANSUhEUgAABLAAAAJYCAMAAABFOO8oAAAABGdBTUEAALGPC/xhBQAAACBjSFJNAAB6JgAAgIQAAPoAAACA6AAAdTAAAOpgAAA6mAAAF3CculE8AAADAFBMVEX///+To51LZlt6jobEzcqdq6a3wr1qgXgJLiBKZVtrgnlpgHdpf3dofnamtK+SopxnfXX9/f3n6+nR2NXBy8eyvbmisKuElo98kIhvhX1mfXR3i4SDlY6Ropugr6mvu7a+yMTN1NK1wLyMnZdsgnpedm1OaV9DX1Q6WE0sTD8qSj4tTEA+W1BWcGaBlIyUpJ6ntK+7xcHT2dfz9fX19/bj5+bQ19SotbCVpZ9bdGpUbmRAXVIrSz8vTkI/XFFac2lyh39/kouls668xsPV29nq7ez+/v7y9PTm6ujY3tzM1NG9x8Suurahr6qHmZN7j4dddWxCXlR1ioKAk4y4wr7K0s/e4+H2+Pft7+7O1dK2wb2tubWksq2QoZqerKexvbjI0M3k6Ofv8fD7/Pu/ycWbqqR2i4NXcGckRTgNMSMjRDhVb2Wcq6WKnJUlRjluhHzr7u3f5OI8WU4TNikPMyUuTUFPamBxh37x9PPZ392WpqCClI1TbWMQNCYcPjE3VUqPoJq0v7v6+/vx8/LW3dq7xsKjsax4jIUxUEQfQTQLMCIZPC87WU1NZ13Hz8zh5uT3+PjL09AVOCru8O9geG8yUEUMMCOfrajW3Nltg3tMZ1wOMiQaPTBIY1nw8vFSbGIyUUZYcWiptrEwT0MUNypjenGruLPo6+o2VUni5uUdPzKGmZIoSDyfrqg4VksYOy4gQjVfd24RNSdNaF6Jm5TGz8sKLyE1VEgnRzuImpPP1tNHYlhQa2GYp6H5+voWOSsXOSyFmJGqt7L4+fnDzMmEl5BGYlfFzss9Wk95jYXb4d9ziIAiQzcSNShBXlNJZFqOn5kpST1cdGseQDO5w7/S2Nb09vVheXCZqKLs7+5ieXDX3dsbPjEhQjaaqaP8/fxke3IXOi0mRzrU2tjg5ePc4eCXpqHAysZwhn7p7OuwvLfJ0c59kIllfHOLnZba4N40U0fd4uBEYFUzUkY5V0ysubTCy8h0iYGzvrpFYVZZcmm6xMDl6ed+kYqNnphRa2IenhBCAAAAAWJLR0QAiAUdSAAAAAd0SU1FB+YKHg4qKz/2clAAADo3SURBVHja7d15nE/V/wfwj9Fwja1JMlTEiGlK9mUsLWKsCWWXbQqDMEKypAZhkJFosWRNSJYYVIZClEIpWbIrCVlS2nz7zozZ53PvPfe8z73n3M/n9fzn9/s9Hr/Odo/X3M+9557j8QAAAAAAAAAAAAAAAAAAAAAAAAAAAAAAAAAAAAAAAAAAAAAAAAAAAAAAAAAAAAAAAAAAAAAAAAAAAAAAAAAAAAAAAAAAAAAAAAAAAAAAAAAAAAAAAAAAAAAAAAAAAAAAAAAAAAAAAAAAAAAAAAAAAAAAAAAAAAAAAAAAAAAAAAAAAAAAAAAAAAAAAAAAAAAAAAAAAAAAAAAAAAAAAAAAAAAAAAAAAAAAAAAAAAAAAAAAAAAAAAAAAAAAAAAAAAAAAAAAAAAAAAAAAAAAAAAAAAAAAAAAAAAAAAAAAAAAAAAAAAAAAAAAAAAAAAAAAAAAAAAAAAAAAAAAAPiKXAH8cjOUf1MgvzyyBwcA1JJX45ePofwgm8sHAD+CwAIA10BgAYBrILAAwDUQWADgGggsAHANBBYAuAYCCwBcA4EFAK6BwAIA10BgAYBrILAAwDUQWADgGggsAHANBBYAuAYCCwBcA4EFAK6RH4EFAG6BwAIA10BgAYBrILAAwDUQWADgGggsAHANBBYAuAYCCwBcA4EFAK6BwAIA10BgAYBrILAAwDUQWADgGggsAHANBBYAuAYCCwBcA4EFAK6BwAIA10BgAYBrFEBgAYBbILAAwDUQWADgGggsAHANBBYAuAYCCwBcA4EFAK6BwAIA10BgAYBrILAAwDUQWADgGggsAHANBBYAuAYCCwBcA4EFAK6BwAIA10BgAYBrILAAwDUKIrAAwC0QWADgGggsAHANBBYAuAYCCwBcA4EFAK6BwAIA17B7HVahIH6FZQ8OAKjF7jssAABhEFgA4BoILABwDQQWALgGAgsAXAOBBQCugcACANdAYAGAayCwAMA1EFgA4Bo3I7AAwC0QWADgGggsAHANBBYAuAYCCwBcA4EFAK6BwAIA10BgAYBrILAAwDUQWADgGggsAHANBBYAuAYCCwBcA4EFAK6BwAIA10BgAdgm+JYitxa9LVexkJDiQUElgoKCbg+5486Spe4qckuw7KYpJfiW0mUCQ0PK3l2ufFhY2D3h4feGhd0XEFAh6P6KlSpXqZrp/9PPA6ta9RqVa9a6o3j+iIjaAQF1wsLqhtdLGrEHAh68+aGH76z/SIOGkbKbqKdR4yZNmzV/tGKLx4JaprQ+uflhSRc6LKxVQO2WQa0fL1z/iTZt28lup1hV27dt0KFZx06dA5PkCk3yZPL/1qVTp67NunVo271HlOwW3tD9qad79qrTO1r3H090n/v63t7vqeqyGypZuyqlnrm5VZ9o46Tpn29ArcoDU/4D/wysqJi7AkMiBvV/1ryTg4cMfa5wHlXm1bDnb+o0fESBkff1H8V6lV4YPbL4iy89Hyu76fzGjB338jPjS9QuP2FitHl/4ybVnTyl5YCHnyxZ9JWp8c63Nn7a03nDXmX+R/TsoKB+TSU0U77pd7342oyZFvKmXonX34j0t8DqcdeTb75Vd5blvs6e07pmd3nNnluj650PvT2PIWD1RN87v0WexrKH35LpTRe0KDFn4SLCFNVmz8u3OHeud9oscaTFDZs/9C5Dpua8OJNvf2m67OF20tJCQRO4ruekZYTJ4LLAatxxea/3KJNfe2/xilscbnT7mwLHz39/JanZmayan6u0Ij+aDETGlHlm9aBJojqdYs3CD4LWVlpnX3C1e6L4jARCA+PW575V/UsjQNWueTcIvbTMWALrlVBjG0P0vS5sjNo9NaLcRCF9Tphc7ENnrmv3ZrXe/Ijy90TPqx9vautMFzgkTtsU9MBmGyftlsmvffLph1XpLc1iSZfahLvfdCtbFhom+wrYa2rhAOaHGcKxBNZym8s3t3Xb9s/EjtHCtUttvaiNdtQquHOLrZeu3ufTbO0Cly8q7brPqdn85ZwBT9/UQ0y7h90WYOVRjLGvIopulX0h7LJk+G7KPSiZ+oEVu67Fnq9s6HlcQBl7XktPb7b37npxjly9r0Oq2NIFPs8//c0+R7qdRZ8pn99Wuhqp4cHffiN6hq188zvZl8MG8TXziYt1PooH1v7m3wt79pPTkAO0iZ7DwTwtiI/YLNu5Yr9t89OCxiUPfelsx7OIG9Iy9JH2nBdtb7gtbarTOV72VRHrcM8fJF7iVCoHVvtHa9txa5XZkaOilgocq/L08SFOXrl0J3ZNdWC2GogsXSxM6s+ENCf7bi9j9TVwg+NrbGvPC8t957VhZMePZF/eFMoG1tJacxy5+6z7Dv1i9vh2RICdD5nNRB865eDUzSr22wKrJHY9pyArrW/T196kfXW8u1ah6Em8bZ7s65pKzcAatqKVc3+yy52mXMq2jxacIP/2IiHiRxnzOPjWsgr8Ssg6EkXYm/9KPvvbM6r1QRlXRqjEn/rIvqzpFAysyDOLRbxeZreoMOe3O6dvO37S0ZYamPVzQ6fncZGe6szjdEOZm9+klzMt2tJCiaeM3KIe3SD7omaiXGCd3v6186PwsfXntUs7l3D48bqZSf2c/Bi3UZdBsjvs1U2M7T9blmc5O59V9ZX9mtXcL/VkX9Is1Aqs+PpznFkPkN3Jc1aa2b7+zfa8WCLa3cCpWVw6r8xndgbKs7U/+KiNL5+9+GysU1dGsMMBsq9oNioF1pIRdiwKZ7Omq4WGvi6tmSZG8f64tSS4ayvZHdX1BFMPaux0ul2zzsc7cGVEGzbe+he7NlMnsIpckLfeP8nMfuzXUdnA0rRyZ+2exO2O3iu7k/pGswT21hDnfg1mmOfQ52AC5VHwGaUigRVcZo7skdAKM19IhQNLO9LG1jk8bPkLsntohGWNyqn1cto2a7m7vovucVz21fRGicCqukmFP9oJL7NeSpUDS1tT0745vP9X1VYxZHXvMdMuBO+VdyNfR+LmRpZ1PCL7anqlRGA9IHsUboguw3gtu8huqaGEYjZN4XZ3SvhU0BLzvUGml5PZvmXNbLo0wiW2lr+40CslAut92aOQavNFtqupdmBpWk87Hr1H1lfwiUZWvRPNOvGh5KUoMze6Y4FDWzXXrGgIrKwusX0MrXpgaWXFr8hqqshtsBHTp5Al7ftukNU38cIvjXhFT8geJl0IrCzyM11P5QNLe07wDF5SQs76OEteMFlRHhkiu4XJdiv/qU7kRoUvNgIri4RbWdqrfmBp24XO4EB1/+Jm8olxL7a2lN3AG+75QuS1Ea/datkjZASBlVU9lq0iXRBYWqC4GXxZ/pITFpuN93KZfkV2A9NMdOyDBB4Nd8oeH0MIrGyeYWhvoOxGMpjFdK/I4FhhZz9F5/a5YTcGviu7fRleqCHo2thgqpxN3ZghsLL5oZF5e90QWNoPYk6pWKruZzhZrTE8DOnsb7Lbl9kkBXfjv+Fwb9ljYwKBlV2oeXtdEVjaZNOX/AyKzpbdDVZljbpxywTZzctqpaI7vndQ+juGZAis7PaZL21wR2Bp48nzN/452X1gFm10Q3lwoezmZbfqsqiMEamG2HMk7YDAyuE20/a6JLASqOuq246W3QV2rxn0o5GCyyDDnT7Ol8Ep5e+vEFhe7DFtr0sCSwunHQp0Ru0PB7NIMNjVfqsDOyFbt57hYamzmog5p9heCKwc4qqbtdctgaXlpszfo8rthWRgpH4/IiNkN867vk5uEMuguvKfXiVDYOX0q1l7+8luIavo57mnb+wA2Y23pJt+T+6Q3TY9jwvPHIphl2SPBxMEVk67zdrrmsDSevFO32pDZTfdko/0e9Jc0W0Hkn7GfmpD7vCKnSJ7ONggsHKKNnu64J7A0l7hm75zy8tuuDXjdHtSZJHstul7lf8GWLj8sgeDEQLLizwm7XVRYJXjmr1nXfR6MNlk3Z7MlXAGE7vR8TbFj2VHZQ8FKwSWFz1N2uuiwEqowjF7p6qwAawVpXS7ougD9zSid9Xg1Waw7JFghcDyYrJJe10UWNoh67O38T2yG23RQt33baq/z014yc4YYjawv+yBYIbA8uIrk63Bn5bdQAtGWT4jduAM2W22Snepb4OvZDfNzJEeNmcRi+C3ZA8DOwSWN02M2+umwNIqWpy9PVz2/ErTTsbqdCXqquymmStoexyZyyV7ECxAYHnzu3F7XRVY661N3v0u2Ao5m+F6fflVdssYJDxiex6ZGSt/42h2CCxv7jdur6sCSztsZfIGV5DdXMt0v1Z/3hX/EL9u50QoGYh1wX1oBgSWN/ON2+uuwFprZfY+Jru14voX7JK1ZMudSCUDxWQPgCUILG9MXhO6K7AGWZi8JWU31roTY1zel0Vyj1dtIu9gWR4ILG8mGrfXXYGV0JB58v7hmuU4Gc7r9GXYKtktY/Ua8/WxQaQ7NuxPh8DyJsH4KArXLAu+4R3WybvEDfuLZPPVWZ3O5JbdMmYJbRyLp5w6y+69RQgsr4z3g3RZYL3JOHfdtBwnnd5a8csu+qUzxbl8ym7uPtmdt8jtgbVlwpxDQddCPgn9KbDmp4GbQrf3rHBJwCkvxkfOuCywFjJO3u2yG8ph1lSdzjwou2VW3ORcQmVzXnbXrXJrYK3K93Phmtsuen+j3fjPaxtow7LAsL0uC6yEMR4WZ2bKbiiH4zqd+c6eTWWi7enFR0wXyAbdbfwUYEv/8Kv3BQT8FXY1vI+4cXNfYPWf0rPLOtMPGiJv/ZgyLJsMCxceWAmrwoeEhe1Jvrqj+4h/8H2G5SKMccWGk9nE6S0y6yu0muiwQ890bRDTIzZpmLofrvzizYME78Yq6hBJq26246JsCRj/U8cGWfZoCm7c9KVcJdYLyC1XBdaaVrn/PMtSYIpxJ/mb3cKwZHGBdXJkyPCu3bpn/bakR5Xfi81fJqwOTdvLMly2bYiUcHJO3rUrum5r0DbdI6LK1tugsLTAG6wvCzSfm6OCMZ2Oi7xCHzPPaqFOCb+p7pO/5Bv6Wz/HNx1ejria1zWBdeTvwt0sHrRHOHTbeIOZA7QxTzFzdIlcZwxuFCOrvCjso77vGQbrLjt+Q0W/m79LDS9vXA+LqqCpTm/eFlVBwgd59P79xX66U9hAJVj6HEEYwZvvvDe+m/k+9dU6vkmJelcE1uB8T3Jd0On1eJtdwrDcA5SrmmzeQ3/OZWh/lfxifvuHmVe1X/xGdxNa/6P30Qx/YP31Rbcy7zxapPO1K5uT/q8AnfKbCErfmfkvGo7aOmHvVfPyzG+qJnGimp8kumU31nqDCNWoH1i983blPhCpKe8tb1/DYg9QLux7BWsuYe7Ajy0pVaXZHGlaUWsR9WRIaHXA6Owh/sDKmE/Bz9cc302nfMq/iEz+KmI6bp16i6nqq4G8c5zggpi2Jzvx+VL2en04sHaG8uyYmeE4Z7OvGJZ6gHJlLfbgdxFnxf9rVsthoa+/6rWIMamOu2im+TRQyLuvlQtY6qoq6HDsvYRZzum0sDcHs8YPs1KxrwbWwuU/Uq9JEc5mXzUs9QBhQKwGlmcq9+/aDH+YVSLyjJyAb01v6L7gLpxpPglZUPY+62HylQSs+0sKefO7YNGuCbrg2gdNrFXsk4HV//MaIi4K5+7kMwwLPUAYEMuB5WlIf/he36SKb8k1pIlbzHJLfJq7fJb5dEzEAo0C8cwXqMh7IkbO8cWj+1eKueQvdLVas+8F1omy2wQdi8v5sv5rw0IPEAbEemB5lpD/AW40riBqArWCNHvMn/ok+5e7Apb5lEdARx6zcoGqhwuo8YL1iUHTRcwlb2V9swlfC6zRXfYLuyqcGyscMSx0E2FAOALLc476XVxZ4/JFHapRrwxjhxpyVzGHofRe9J5YPJR56gZ6lc9W5ZgZFEJWzSQ8FmW9Zp8KrFGHuom8Kpw/dlYaFup0YJFPW3/bsPTYDcTib/iqxVbG7nh6cFdieiq3x3OW/izZ8iHyMV/Sx495Uw0xuom45rO4Dq/2ocB679eBYi9LDb5mrzEs1PHAakd8StLKsPQVtMJT/dWWvT9VuWu5al74i+Su9LL+APwVekr+zTMz+OUVcM1H8Z1S5jOB9VlHQU+uMlzka3aC4ZR1PLA8hQg1aibvEKLq0gpPEb38GGtfkmy1pyc3TKb2ZR7Pur9a5CF8VtyDEJZLMIl+0Z8dx1e3jwRWuR02XJepnO2ONyrU+cCKpT13N3wkJ2ILtxe2WepOMHdF4aZlt6X25cQXXJfobvIg/s5VL6df6Bd9VjPOun0hsOJ6dbDluvAGluETUOcDy7OWUKXxL9zIeaSiU8xgXbOUhvuj2y9Niw6lduZpvis0nbwVnqNbJQt4M3GUt273B9bM1xrYdF14A8tw5e5PhAHhDKyltK/jDI6SOkMqOMVOy8cXc3+y/4Np0WHEzpTnfSxBvlNdJvyBiL659A1Zn+Ou3PWBtZe8ol0Xb2AZ/hOUEFjEf4eN9QueTyo4WR22DQIz28Jb1yKzkvnXpN4winvfhMjPqAPZlLdq6xaQr3o+jvUMqVwfWDbiDaz2RoXKCKwWhDo17Q3dcquTvyIcbek7sht+4K1splnJ1L3KQvjnWgPq5gct+Ou2ajX1qp8gHE6GwNLHG1iGR2PJCKxthDo1Tf99xuOkcpNsaGyhF2n4j+CKNSm5Nq03mw8SJht1e6lWhLqtiSV/lvM6oXYElj7ewDLcAUZGYO0n3Ql11Cv2GPX0vlffsNKLNP256zNZcpC4mdad65TJRt1IflY1Su1WPEW86loA5VttBJY+3sAyvG2QEVi0Lyl+0St1HKXUZGbfVXvH//HdQOOCia8QNrdnar4e4u2dc1u7305s6FcxlNoRWPp4A8to+zk5gbWYUKn+Zx8lKKUmKcjXGf4tc0wenVyndacnW/P1rCOO5kZa9eyoJ4HSxgmBpY83sKYaFTqcMCDcgUXa5KmQTqHx3K/rbujPuRnsb9w1mrxQvkLrz1jidFtIq34osXpWPYivBxaxHwXjDQJLn+8EViVCpdptOoU2pxSahHV7huz4/8IbL9jbSjuTheHTamP/ow3nSodWYv1JvOyWNt/JCYGlz3cC6xVCpVoXnUKJ5yP3stSDTHZyV1navkHStEep0+0W4iIRvq+CLCPuNUp6lepBYBnxncDi31Y4yQHvZRLfqUU/z9uZVtx1Gn9wupfUn0X0z49Jx/dqWnNyA5gQH2GVJVaPwNIR9W/TkpztVi+wphMq1Sp6L5P4dpt/4vIvCr/LsNwKpP70ZWu8kUDaiFreiItLPHEvnNLE+hFYWWxt3KFMYLFdEa3CCefaGgZWLcKAcAdWMOWU3ie9lzmeUKSmzbJwslM2+bgrzWNY7gZShyiLIVN1py3FepveAgbTSG3U1lPrR2DdsOSVQp9cuNJHyCGa6gWWh7KB0a/ei5xBGiOWA6V1fMBdaSmjYueSrn2C6WloDNaThrS/gBaYI36+VItav98H1tlmw1vX/k3IaUtpFAysiYRal3stkfihMNuBE17xP+qpZFTsH6T+MOxmau48bUwd2di9AKmJ0bTFtR6/Dqyqbbrs2vMCbY54pWBg8X/OomnFvJb4KGmI7iNcN/4l4SvsujCk754zEB8LEv4IsKM9cy9Prt8/A6txqYf7hgv5+eeNgoFF2cnYe2BxnoGWinv/Ng9lT5tNRsUWJHXI8vl63jSircksRW+BqWDawdj05fh+F1hRHYav3kAadFMKBhZlFbX3wJpAGaFRlnfty+Qb7mrvNCqWf7VEMp5tJ3KibeAaKqQNxohPAj4kN8CvAqt9x4c/WkQbcRYKBtYEQq1eA2s66f70Y8pV5N+Oaa1RsZTHfKIeeNO+zswvphGGKpNaOJGyT8MNfhNY8c0ee5+6SRojfwgs2gnJnFuf38D/JfcIg1KHkToUIWaS0l7BBYhphKFapBYS3g2n8Y/AmvrTFNpvb0sMA6sioWCFAou0dx9tDQD/bch5g1I/pHRIe0bMPG1DagTDMWZkxUktvJPeAD8IrCIjhByszc4fAuttygDNI11P/sf9uQ1K/Z3SIVHPu/lPtU42SUwjDNE+H3qK3gBfD6yxd/Bvn8TLHwKLdJw07XuyN7nrvd2gVNoJX1UETNVk3PvVp2hHb4AZ2trW6fQG+HRgta/4Lml8OflBYA0jPXPn22k0zXPc9V4zKJW0CUGCqIOXH6C0QiNt5cmGlKgbBDTAdwMr8pGW9PPTuPhBYHUjDRDtZDb+aDE6DY9/sUSSPqQOZULaGlZ7RVQzdLUjta+2gBb4amBVPeD8T8E0fhBYXSjj8yptqzn+r64HGJRK2m70M1KHMiFtDWvycbcIP5La11pAC3wzsBqPP0EaWRrDwMpFKFidwGpNGR/KdzlJQrgrDjIo9R5Kj1rSepSBtsPMAlHN0HUTqX0vCmiBLwbW1OKSfgum8oPAIu0dRVzg+DB3xQUMSiUtKOY/eT2brpRW0Ja3MXmJ1L5PBbTA9wLrlrLELcbI/CCwrlLG51fLzc/iDu6KL+gXupXSIe0TWo8y7CA143+imqHrZVL7dtAb4HOBtT+UeJaLAH4QWLMp40P85fIJd8WL9QttSOmQuFubJqRm2L/naC1S+0S8xfSxwKpEPYxYBN8PrKqk8VlHm7JruSterV8oadd7cduptyc14xq9ASb4/1gkE7FOzKcC6yL/7rki+X5gvUEaH/7dkVPwH4f1jX6hpUk9ErCC+4Zg0vq24qKaoasnpXlx9E+ffSqwjoXKfdaezvcDi/bNPnFnzDu5K/5bv9C7SD0StwCKNIXzCmuGnrKU5j0rogW+E1hty1MGUyTDwCpMKFiZwKpJGZ7BxClbi7vmCvqFFqX0iHwUTAbSE9gSwpqhh7TL4Q8iWuAzgVXzVcpYCuX7gfUTZXhWEafsJu6aR+oXSvv2+RSxSxmWUZohYPcWE6SV+EK+B/CRwIolnkcrlO8HFunZ673EKduPu2aDfQMrUXqkcR8Km0MfSjO+oddv4m5K8+4R0QLfCKyDpA8rRPP9wCL9eaBu27SCu+YP9Au9jdIj7TSxSxnCKc1oKawZevj30xdw4VP4RGDFDKGMo3C+H1ikXwajiVOWP1sMJtTrlB5pIg4lvIH0BewhYc3Qw39iUZK6IlrgC4H1oQqLrzLx/cAibd83iDhlC3HX/JF+obTNicXt60K6w7pZWDP09KI0D8+wbuiwkjKKNjAMLP6X8goFVgBleCYTp+yn3DVf0S+U9BpBlWdYQfT6TURQmoe3hCm+o+3SaAPfD6y/KMNziThlO3HXvFu/UNodlri3hKTJLOwbbF2vUZqHdVjJLtpxdjON7wdWHcrwUF8W8S+ZMtjXhvYMS9w6rM2UZvQU1gw9FyjNixPRArcHVvt7KUNoD98PrDDK8FDP8OvIXbPBj1HaNgTiVrqTdhq5Q1gz9NDO+xaxkbTLAyue9LfeJr4fWKSjCF4gTln+74Le1y+UtHZfu4vYpXTHSN8SPimqGbpop3xdFNAClwcW6dsmu/h+YC2kDA/1UQb/Z3/r9QvlfzCW7Hdil9INJDWji6hm6DpPat8ZAS1wd2DxvzCyk+8HFqU4TWtEm7J/cFdssHKxDKlHm2g9yjCW1AxhuanrGVL7aKcl3eDqwGorf7M+bwwD60lCwcoE1iXS+BAXAazjrriefqHbSD0qxt56Y/xhnKyyqGboOkBqH3Gr2RRuDqxINba/ysH3A4u0QzL1lwH/ee4G7ye/I/VI2EZUzUnNmCaqGbpon1z+LKAFbg6skqTRs4/vB9Z9pPGpSZuyH3JX/LV+oadJPYqg9SgDbTlYdVHN0MX/hjbZHgEtcHFgTSdtLG4j3w+sVqTx2UubslW4Kz6pX2gPUo/K03qUYQSlFXGxopqhi3aA7mwBLXBxYN1OGjwb+X5gvUUan4K0Kcv/YNrgY7ZjcZQeTaT1KANp+5Z9olqhj3YjSt0cO5l7AyvG1g2RR9X9bPHj/Z7g+ovn+4H1IGlsiV8/X+SueJVBqRNJXRpG61K6MEojqNtgMNhKWiemvURvgXsDqwRp6PRsDnuwda5S025J3S+f64sNw8B6kdA4ZQKrAGmMn6UdVR/DXfEyg1JHk7rUgdSjDKTX3h/T6zdF+3BXwPmNrg2s7oNJQ5fTkXK39zvTOFstCCyvgUX8Nf4Facp25653i0GpQ0k9EnGmcZIlpEYMENMIQ7QFLbxnuWfi2sAS+QTrnu9ffGSg11oQWF4DazttvEuRpiz/v2qj4y9IxyuIOvqZthrsTjGNMDSF1MJR9K8J3RpY+wWtGY0uf/6lhvrVILC8BtYB2qDTtkFpz1/xMf1SHyf1aCR7841QdncU8oTI1ADalS9DboBbA4u2B3eq8AFFTZ6WIrC8BlZX2rhPIE3ZYfwVG/yB70LqkaAXdC1JjRgrphGGKF+WaSKWjro1sOinTvTftcP8JFrxgbWX0GRlAusccey7U6ZsNf56p+uXeobWIzGbJG+gNCFOxEnwZvLQhimc3ACXBlYM7fWqNuvudUznZuMOy2tgTaWNvtaZMmVj+es1OCyC/1F+igWUHqU5S2rCeyKaYIZ/TckN5J3DXBpYlAPfNW3Lw6zHnOAOy2tgJRL/XpA+ZYnkr/eyQanPknq0i9KjNC+RmtBXRBPMxJJ2GBRwToZLA+sjQrGDdx1kHh4ElvetCEhnJWjamjGUORvNXe8bBqXSXtgvpHQozc+kJgjbMsLQDNqVX0TcW8j2wKKcEaxffg/+OavVsbIKCIHl/R/CZ4Tykq2gzNmvuKs12nuddCCMpv1I6VGqDaQWFBXQAnPfE688dZNBuwOrmC3l/8ld5swQS1+Iig+s/xEGRJ3Aoi1117Q5lDnL/+NtnUGpG2k9ykXp0Q38X3WnEHf8tBHia0JtPe0zB9sDi/L5uX7543mLHGXxzxDusLwHViihvGRxly13IQN/YDUzKJX4/iuA0KFUv5IaMInpLRIZ8W2qpr1Dq9/uwKKsx9MvfxBnic8+YnF4EFjeA+sXQnkpKGd+8gdWR4NSia8JB09nbr8e2i5jQ8n1M5lLfN+iLTxGqt/uwLpuR/mJvK8qLG8dh5+E3gPrC0J5KUaxvqf1gj+wmhsVSzzgshZ/h26g7eeubaTWz4h8rt7LpOrtDqwQO8rn3c/W+tehCCzvgRX8KqHAFLfzz1n+wDI8BYH2mZzRkTxsiF/H/kGtnxHtaMIkG6pSqrc7sHLbUX59vvJWWR8pBJbO6/LdhAJTLOJf7c4fWIavqCgvtJM15e5QisRlpNoHO7HOPVkh6pWn7Sphd2BxPx43Kp8zBQ9YHx4Elk5gET+CTfI3d2f4A2u4UbHUx8l5uTuUgnb+hFaHVju76uQrn/AUoXq7A6unHeXzbXg5O9H68CCwdAJrBaHAVE/wdoY/sP5nVGw14iLuNYTHch5P5GRa7fYfU5/ma/KVf4+wetTuwLpmR/l8LwnzcwwPAksnsA4TCkwVXo2zM/yBZbxtFe0tHXHXHNp5NJrWjVK5JeSHWEl31/yLsewOrF12lL+Pq7h/OIYHgaUTWJHEd2rJLnB2hj+wrhuW+xixP6RbLN6VOqlm0xYLWPEn/cprIdy12x1Yz9lQPuent+05hkd8YFGWXCoUWJ7ahBLT9OPrDH9g9TQsl7wmknCeahli1S35q7Zq/xoBl74kb+12B1ZxG8rn24WjP8/wILD0AouyADbNKL6jivkD603DchM3E/szszRjD3JoV5dYNW1xkzX/Cbj0s3i3R7U7sN60oXy+FXZcn68hsPQCqwihxHSrnufpDH9glTAuuAK1P+9HcV4fyvrqZLPo6+zZPS3i0kdz7olmd2DZUf4OrtK4tgtCYOkFVuQRQpHpvuQ5QIc/sO42LjiQ3J+9fJenAfEFpVaOe2ZwWDJTxKVPqMhVud2BRXmloFd+Za7SDvEMDwJLd5+lC4QiM/Tm+AqaP7BM/mg1Jh3/nOzZ73iuTvxVar3cj4S4lBNy6bWeHOuMbA8syulJeuXzPaDkeieFwNINrE8JRWay7IzlzvAHltmNCHWbL00L5/ltRs5+R38RejyVxFx6LYzj/truwKKcz6xXPt9WAVzb8ooPLMoeIkoFVg9BJ9lGW/5pYF9gHaB3Z4r19QU/kSt14sznTPaTvyRN9ar1dwV2BxZlg0K98vn+tu/huTQILP2td0W8LEpx90BrnbEvsM4KeDrznNV9qSpTH2BRT6a17rioS6/NqWGxarsD628byi/FVRrXoSIILP3AeplQZlazV1j6R25fYHnyCejNLmuJVZm+rGkfz8Mgim7CLr0Wd3NjS1XbHVhv21D+E1ylzeQ5+ACBpR9YcwX9Jkx2xcrxTzYGFn0rAs3iPdY4Acswc3PPC15hoi58kkVvvmGhZrsD6y1C+VN0yuRckfwtx4VBYBmcxtKXUGgOn7F+OdX+U/6fUKaB1W6SiL7czb6P0aMC8iqBazUbibi765QO7OnK/OTP7sD6i1C+3qavbfiKK8txYRBYBoFF/Zwkm3fvNN0iK3ja9gcoj5nMlytRPiXLMKMJ22XZmldEbSz/DgWLp23eldMPx0uxpbzdgUX5Av4/nTI5TxdZybE7AALLILCihKwdzSTuyvAGut/x7/9j7cgfiBWYBxbvZrbZbF7Bsh9BA+KWMqm49+khoJyGpWPN0I2VTb73Da6+LYBQA0tgjSaUX1unzB85y/sfQ3uzER9YzxAGRLHA8pwnlKpn0n9ry7yR9U/L/u9Khea/SjiKMh3DgnDyVqqpdppuQDqmtYguadoEZ47LyarHCUHjlE34N+cPdKzSI2tdSxts+7Ti9QtT7iU+NWUJrAmE8ivolPkvZ3mTrO/Ki8AyCqzL5JXheiYOCqgdERS0+O+A+y4JvI9jCCzyeUBp4i6cMqqn6k+rBFX0OvesoKCc38dgy6TwIWFh94aHT9wirlCWwAonlK+3ie5W3n8neyx/m4rAMjwCnfy1sMMYAiv4HnHVzdF9lny5p7A7lInx3LOCYrrAIHEKS2D1IZT/jV6hX/KWuNjqTocILMPAuolQrAws3wgfEFnhD6sLHcxeQXCb+69SD/fLRMCR01zucPjaCcASWJSNKXW/ra/DXWRfiwfnILAMA4u6T6bTWAKrGt9+trrihsx/eMG2Gm0P9mj8fOl/fip7RcjKiXR94rknBU1V7tsGaVgCi7In2vd6ha7mL/Meayd2ILCMA4t41IvTmHZhKSy7lZYc5Z4TVGLXYjmBJbAoz/WP6xVKeTuV8PY51iuS2KTo3TxV+FFgRb5LKNh5TIHVjvIYw2nvOf1VToZgMYsyHMQQWMGU8nX3hyRuebj+SZN1fbGnbw0c/989vG+dDQNrLaHh6gWWpyjtUjiMbZ+7o7KbacEC7ilB94ptL4ltwhBY8ZTyC+iVOo7c9JPfhHbMttrH02hqjbs6Df+85e4viRfCnwIrMox8LRzEFliJ9JP3nNJKxhqsdGI+C3AOQ2D1oJQfpFfqEkEdWDPp6xlhAXPCwi6Fh0+kb/KRxp8Cy3OXsGFzAOO+UcLWYtktrgMlb8j2UxYtScAQWKcp5Q/QLVbtFxSGgbWRULCKgSX2E2ibjWQcrg9kN5QRz9nAIj0icHmGAxgCi/Rp1s+6xVI2rbGfX91heX4cJXu82VVgGy3PWHG323ZaNpB7QghC+RTZeQyBRVpZuEu3WMrxyfbzr8DyhMgeb3Z/Mw1Wkp6yW8pE5hP3G9r9JnsMrGAIrI6U8m/XLXaa7K4b8q+fhJ5q1ENAnfMN02B5XPJ0pjZrb2x0eJHsUbCAIbBI52s8rltslE3fiovhZ4Hleco1TzJWMw+YC/q00trewjZZIHsYLGAIrAOU8tfql9tSdt+N+FtgeYRsQ+cEC2dTUo4sd0Yl7tkg1ADZ48COIbAo29VphfXLrSm770b8LrDGuGXhkoWzKRup3qcC7H2xVdQU2SPBjCGwrlPKf1q/3Lkqv5ryu8DynHPHWzWtoIUhmybwjA0bTNjPPRkEGzND9liwYgis4pTyjU5ZjJDdeQP+F1i0O2nn5LUyZnfKbq2Rr05Z6Yq9YibKHg1GDIFFOUdV62RQcB7ZnTfgh4EV7I7fBW9aGbPIkbKbqy+hJvdUsMEp6l77DmEILNIKz44GBUf1l917fYaB1YJQsLqB5ZkucKNO+/zM0pWMPt0ru726znPPBFsUEbvHl10YAqs8pXzDrav2yu69Pn8MLE8TpVeapNrF1JV0z6+U3WAdHzAf4+eQda5YjsUQWJco5XczKnnuq7K7r8svA8vzEuXAQIf0tDhsldXs0/ph3BPBLuvccI/FEFiUHZK1IoZFPyy7+7r8M7Cou5Q54XOr4zZcdou9+foW7nlgn7Eu2PbQPLASSeuFLxqWPXe27P7rMQys5YSC1Q4szyeyB95UiOWBu192k3Na5vzJ9Czaqv+FlnlgTSWVX924cGWfYvnpHZYLNnR72PrIkRbm2GHLh9yzwF5nW8keGjPmgdWNVP5B48JjVV2w5q93WJ7In2UPvYkR1kcu+DXZjc5qZRvuSWC3RNU/0TIPLNrWjWZreW9V9ANVvw0sT+Qu2WNvbCPH0EUplVg/qHp/lWKT2l88mAfWT5Tio033q1b0n4f/BpbH85jswTdU2EpX0gQXkN3sDPuqcE8BR6zbIHuEjJgHFulTwmWmxbdT80ehPweWp5bKR6kEcg2eOr90w9V83p7JMKXuR7MxD6wLlOIXmg+PmqsVDQOL8irNDYHlKfqs7PHXV4lz+CqqkcKDznJPAOeUVHeBpHlgkb4w280wOl1VfIzl13dYHk+b3rIvgK6uvOO3QIXdQfpW422+o06Xkz1QeswDi7TjM9MRJyru7u7ngeVp+JHsK6BnHPcA7iAtgRYh4bxq3+PoqrRM9mB5Zx5YpLWdJRiGxuPJLXsUcvLvn4RJosareOObZAf/P8LTkg9mP/Enf9sd1z6/kt80mQYW6RhVgzMoMot8SPYw5OD3geXxVD4i+yJ4VYPwj3Cr1L2AL31BaLoEVQJkX2svTAOLdrjNWpaB8Sj4USECK+lv7HzZV8GbizxdSVdps6x2JzzUjtRyGZ5Q7xW+aWCRzszR+rEOzfBo2SORFQIr2aerZF+HnLpzD2CKmM/kNPtL/mdvEgUvmCf7emdjGljFSMV3YhmVFI+otbcFAivF3AFqLAbIpAf3AN4QfOcaCa2+ezqx2bIEN39X9hXPwjSwVpOKf4plTG44XUf2WGSGwEo1jbR/ow22cnclzWHHb7Lq/kNutDyRlYcq9FfLNLBI2/dp31kYmKj7FfqKyTCwthMKdltgeTxF68m+GJlFE3qSJrKQoz91B9/vvqdXWV18SNqjv+zMAiuRdlCStQcO3+2UPRzpEFgZYl9XaJsk/vHLbMw1x/44JsynvSZQw7AVV9RY5mIWWFVoF8vi/fuxp1U5bQiBlVlUIcGvi/j/YB+h9STd5dXO/ANs1U1Qg6W7XEz+ubSb67xo0spCpPL3WR6VRo+r8RkTAiur4Cc+Fvcg42Supdz/7T3UnqSr8YGwDum66qaloqYiS1+X9nggoe787V0vm27+4rmdVMv7HKPSfoQK55wgsHK4PH6fkKEdXSjW05D7vw4T0JM0Tefb+zS5/LcCG6uIN1rsdnoF0r45xfudq8rYPtqWqUyfEubQaNMEh4ckJwSWF1F5VlO3cTjxZtPkkvjvsKYI6Uma5wva9kX0zL7bhDZVHWOKFnfotMf+U1oH3tTeStsSaWtWBnAOSeSZC5J+GSb0+avE8prnBho2z18DK0mj37/n/7h01NDOqZsVfMFdxmpRPUk1cK8tbxT2XZ9Kb5vC/v392k4b31tMGrR6ROdpHCehNaXVy/pljhf7a/7t5MGOCUceiBhfq+PYeJa2URbTujywkkSdCbmP41fBytc6NUov4xR3T6wd/MwieNzfgpeSRg9dQF8tpr522yrefFXsHerM3q0OfVKpjaWbqiwq0uqvRBuQMsWHiJ1JOS27NDTv8s63Xk600jD/Dqxkjb69/paFTxNeqJCrQ5aNVUpz9+QOwT1JMea2D4RtTZBQ56eGdrRRUVENFhRbPZm6CefseR+XXVv/ptOx1ObUprXjHHk8lha61kr49pcJ++a9dfz68F9eWcr3h7BDIL/buIfi9VB+hD1Z9F3+fcQ3o00uTvSQv7eX+iLHy50d3Neulh09SdKwSwUBd/SjPjiw1KYGqu3suk+fvPZgnT4W7lVXfv3+nrt3bXy0Y9Pulm4XjEQRk3OgmFacerR4HeobqpkvDKlTO//9tWo+1eBssKzL6oMi/32lecXxi0deudR/0qTkf/IJkyZN2vDblZHHd4XW3FE9yvt/dRf3daxkX1e2jrt2ifLacGHZUqzvsnzX/qUfVq4ZGLo9JOh4xIMBSXaHtUr+H+UiIiJKBOW+HporsFLzuzq0pX4S6t05WkhsEdmWRt91fbJ4uQkTGR+fxE1679LuDyLyjl979J1HOsSMceJiAavm3HPK5k0Ppr90+06OjztmjR7wzhLZgwqkvYA1vmVY5sa0nfZPpVqhv4aE5A4KKhgR8U1QspCQkDtCKwbW7/REs3Mdvlhidh4iSMV/dtwp+xsXW6Tkz61+YG3QiUEFjk6Llz2gkOIqLbAiZLcfFPU495w6SK+czfRz9e8/HjBD96HIV0M+OxTy+jY3HILjN5YSP7cS/W4KfAX3uaaDzT/OEKxaTI0zRW+rGBq6PCTlLj70xdebN+twea7sIYSciIsatOayOwCK+o93Sp2U3XJQGHXvtiayOwCKCuOdUjtltxzUFUP8RTgqit4G8Encuwj1ld1yUBfxHaH2ruwOgKIOcs+pXbKbDsqKpH6SfbPsHoCibuWeU4VlNx2U1YyYV9rTsnsAihrOPaeKym46KKsCNbBKy+4BKKos95yycqoJ+JWl1O/XB/vDFhvAg39bSHxiBTo+p95gTZbdA1BUFPcZFJNkNx1U1YN8EtntsrsAinqFe05hGRbooK5p0LSXZHcBFMV/cvYF2U0HRTV6gZpXcfbseAPu9xf3pPpVdtNBUfQbrNGyuwCKqsa/D7hPHfMH4kynnw2IR1jg3bf8k8oXTn0HG+Qm55XWTHYfQFHfc8+pwfg6Fby5TD+851WswgKvhvEfKiLy2GfwISPpN1i9ZPcBFBXIP6nKym47KOkJel5pXWR3AhT1AP+kCpTddlDRsP70vIoeKLsXoKY3CLOqg+zGg4qCBNxgTZHdCVDUcf5Jha9TwYvKxI1GU6yQ3QtQU8ws/kmFD3MgpyXc29dm/ls4XXY3QE2LCbPqc9mNB/UEvyUgr7T5srsBaqpBOQu+jOzWg3r4j7jM7AnZ3QAlBfPvhIWvU8GLUiIeYGl9jsnuByiJ/4h6DYeaQE5N+VchZ3a/7H6Aki6+SplV12Q3H1Tzo4gH7po2q7rsjoCKtr5Pmlb4OhWy+vc9IXmlrZbdEWBzsHmwk9VdIM0qfJ0KWS2ZICavtKayewJsYrQJ9Z3bAOEZ2qyqIHu0QC2N6wnKq/KyewKMYpKuVniXRGcqCyS+z8HXqZDZ0nsE5ZX2reyuAKOYlOvVu1Y7B+p6lLICK8nMJbJHC1RS5UtReYUPKFwjJvWSTby/u91VhVLXy+STPVigkjMnROWV1lF2X4BVTPpFi57fLNLGirbmJU+r12UPFiiky2BheTXZzokPQsVkvnD1Ks61q57TO8nTajCWuUOaxDeFxZWmjZPdG2AWk/XSLcp/ky3LHF4nH8qraSNljxUoozvlA6/s8KjBRWJyXL7e40uLrmTsHhHzCh8+Q6qO5DNTM0nAGiwXifF2Ce8dMVZgFUt2ETbAynASX6dCiq2thXzunAaL3N0kRucqrr++Tcx60urjxXycqrWQPVSghg6/iYwrbZHtr8dBoBj9K7mlV7/TxNKPNbtbyN1Vklm3yB4qUEHsHaJmFP4QulGM8dWsd63TUu6y21w7Im5eLZY9UqCCc+vFxpVWN152l8CKGPNLuqr2xmZjrJY78Jdrwr6bSJbwhuyRAvnGFCd+LJFzXj0lu09gCUNgJYub8ODDnduwLYTaWqXmgHlCH4smqS17oEC6yEIC79hTFZDdKbCGMbBSLStfcPuBrjsuNvJWVOK/Rf4p+djIe2YKn1VJuskeKJBt22Tx0+oIFiO7jLXASrem/9WwgIAKEYeCgoKOR0QEBOxeOMmOnEqDQy793RcRom/akyTkkd0tsIgzsBwW96HscQKpeoSMsmNePSS7X2CVOwLrkOxhApkS77Tn9n2eE5sqgVCuCKzBMbKHCeRJ7LfBnmm1+bDsroFlrgisENmjBNIkdq5r06xK6CS7b2CdGwKrf1XZowSSbN3U37Zp9bnszgEHNwRWUdmDBHLE/9Tbvlk1Eh/Tu5ELAus/2WMEckwTtme7F1dx2+5K6gfWJHxN7686/C36S5x0JxvL7hxwUT+wasoeIpDn8i5b1l9p+5rI7hnwUT6w5sseIZBq6S5B+6lltrKG7G4BJ9UD68vpskcIJDt7fovgSTVJ+Cbg4BTFAyuhsuwBAvnmblwmclItKyK7Q8BN8cAaL3t8QAlbA8Wtx1rVQHZvgJ/agZVPzL7y4H6JJYeImVP12sruChAoHVhft5c9PKCO4DKDBMyp3Qdl9wMoVA6sr7CpDGQW+e0V6pz6fqvsTgCJwoGV8I7swQHl3DSUso/fzL2RsjsANAoH1ieyxwZUVGUx9x7cs8fJbjxQqRtYz8keGlDUxYKDuWbUIGyr5n7KBtYF3LyDniUh1pe/J+xKlN1soFM1sGpjQQMYGPj4SmsTaiJ+DvoERQMrX7zsgQHFVa1oZfeZiIGy2wtCqBlY/+F0ADC1tTPr4eIrA2W3FQRRMrBei5U9LOAKsS9PYJlPDy6R3VAQRcXAeihY9qiAWwSXuc9sOvX5RXYjQRwFAwtn5IAV4z4zmk2zHqsmu4EgkHKBteZR2UMCbvOh/jH2e7A1g29RLbD6tJE9IuBCpxZHe5tN/TvLbhgIplhgXcHjUeDyY/4cy99n/w9fOvsctQKrNZaLAq9/ey7KPJcWXZ8ru0UgnkqBta+r7NEAV2tfbHbaXJoVdIvs1oAdFAqsjzHFgKhqxT7JUykh4kfZLQF7KBNYJ7AYGQSIP/q19nYV2a0Au6gSWOVwvjOIEXVYdgvAPmoEVt0/ZY8DALiACoG1qFi87GEAADeQH1gJEUtlDwIAuIPswEp4u4PsIQAAt5AbWHFv15A9AADgHlG/vz1LVlxFH2oiu/sA4DI9AltRznrjtSpkquyeA4AbTQ1l3WxWlFadsKsoAHCK7DBivWNp9d5jF2X3FwBcbmqgE8+zeu/agSMHAUCA9vWP97Yzrb5+aAc2bAcAcdp2DrIltBYFhGLNFQAIF9lg+KGFcQLD6kRAsXXYnA8AbFN1R8XFM+gLHmbOWFyxA34HAoD9enQrGVKhHt+z+FkLe12vXxqnLAGAo2Ivdtz0+IWAGVuYgmpU+JXvc9cq2gQrrQBApv2H1z2x4OivIWVbDg0I+CssLCw8PHxIWNjkgICA+ReuFct1W9cz352V3UgAAAAAAAAAAAAAAAAAAAAAAAAAAAAAAAAAAAAAAAAAAAAAAAAAAAAAAAAAAAAAAAAAAAAAAAAAAAAAAAAAAAAAAAAAAAAAAAAAAAAAAAAAAAAAAAAAAAAAAAAAAAAAAAAAAAAAAAAAAAAAAAAAAAAAAAAAAAAAAAAAAAAAAAAAAAAAAAAAAAAAAAAAAAAAAAAAAAAAAAAAAAAAAAAAAAAAAAAAAAAAAAAAAAAAAAAAAAAAAAAAAAAAAAAAAAAAAAAAAAAAAAAAAAAAAAAAAAAAAAAAAAAAAAAAAAAAAAAAAAAAAAAAAAAAAAAAAAAAAAAAAAAAAAAAAABI8X830GNPB1xL5gAAAHx0RVh0Y29tbWVudABUaGlzIGltYWdlIGlzIGZyb20gW1ZlY3RvckxvZ29ab25lXShodHRwczovL3d3dy52ZWN0b3Jsb2dvLnpvbmUvbG9nb3MvZGphbmdvcHJvamVjdC9kamFuZ29wcm9qZWN0LWFyMjEuc3ZnKS4gIEVuam95IUyhD1oAAAAldEVYdGRhdGU6Y3JlYXRlADIwMjItMTAtMzBUMTQ6NDI6NDMrMDA6MDBICfOIAAAAJXRFWHRkYXRlOm1vZGlmeQAyMDIyLTEwLTMwVDE0OjQyOjQzKzAwOjAwOVRLNAAAAABJRU5ErkJggg==;" vertex="1" parent="b9N4R5i_NIoSZ153W1rB-72">
          <mxGeometry x="140.29714285714292" y="65.33677192982458" width="79.39849624060149" height="39.699248120300744" as="geometry" />
        </mxCell>
        <mxCell id="b9N4R5i_NIoSZ153W1rB-62" value="&lt;h1&gt;Frontend server&lt;/h1&gt;" style="text;html=1;align=center;verticalAlign=middle;resizable=0;points=[];autosize=1;strokeColor=none;fillColor=none;" vertex="1" parent="b9N4R5i_NIoSZ153W1rB-72">
          <mxGeometry x="94.28571428571428" width="210" height="70" as="geometry" />
        </mxCell>
        <mxCell id="b9N4R5i_NIoSZ153W1rB-63" value="" style="group" vertex="1" connectable="0" parent="b9N4R5i_NIoSZ153W1rB-72">
          <mxGeometry y="56" width="351.4285714285714" height="149.33333333333334" as="geometry" />
        </mxCell>
        <mxCell id="b9N4R5i_NIoSZ153W1rB-64" value="" style="rounded=1;whiteSpace=wrap;html=1;" vertex="1" parent="b9N4R5i_NIoSZ153W1rB-63">
          <mxGeometry width="351.4285714285714" height="149.33333333333334" as="geometry" />
        </mxCell>
        <mxCell id="b9N4R5i_NIoSZ153W1rB-65" value="&lt;font size=&quot;1&quot;&gt;&lt;b style=&quot;font-size: 13px;&quot;&gt;Bootstrap&lt;/b&gt;&lt;/font&gt;" style="rounded=0;whiteSpace=wrap;html=1;" vertex="1" parent="b9N4R5i_NIoSZ153W1rB-63">
          <mxGeometry x="197.14285714285714" y="70.73684210526315" width="128.57142857142856" height="58.94736842105263" as="geometry" />
        </mxCell>
        <mxCell id="b9N4R5i_NIoSZ153W1rB-66" value="&lt;b&gt;&lt;font style=&quot;font-size: 17px;&quot;&gt;React js&lt;br&gt;Application&lt;br&gt;&lt;/font&gt;&lt;/b&gt;" style="text;html=1;strokeColor=none;fillColor=none;align=center;verticalAlign=middle;whiteSpace=wrap;rounded=0;" vertex="1" parent="b9N4R5i_NIoSZ153W1rB-63">
          <mxGeometry x="55.71428571428571" y="88.41712280701755" width="51.42857142857142" height="23.578947368421055" as="geometry" />
        </mxCell>
        <mxCell id="b9N4R5i_NIoSZ153W1rB-67" style="edgeStyle=orthogonalEdgeStyle;rounded=0;orthogonalLoop=1;jettySize=auto;html=1;exitX=0.5;exitY=1;exitDx=0;exitDy=0;" edge="1" parent="b9N4R5i_NIoSZ153W1rB-63" source="b9N4R5i_NIoSZ153W1rB-65" target="b9N4R5i_NIoSZ153W1rB-65">
          <mxGeometry relative="1" as="geometry" />
        </mxCell>
        <mxCell id="b9N4R5i_NIoSZ153W1rB-71" value="" style="shape=image;verticalLabelPosition=bottom;labelBackgroundColor=default;verticalAlign=top;aspect=fixed;imageAspect=0;image=data:image/png,iVBORw0KGgoAAAANSUhEUgAAAO0AAADUCAMAAABH5lTYAAAAYFBMVEX///8A2P8A1v8A1//7///2/v/o+//x/f+j7f/Z+P+N6f/L9f/i+v/s/P/V9//1/v+y8P/H9P+A5/8/3v+88v9t5P9Z4f+q7v9Q4P+S6v/Q9v9z5f8n2/+b7P+38f+O6f95uOveAAAUHUlEQVR4nNVd67qyuA5etKB4XCoHUcF1/3c5ggeSNqVJEb5n8mP2njVYGpqmb479+RlNyXa/P+abbTJ+KILi7fHQrC/nQ76f5gUC2h2KWj1It/+IstN98c3Rk+M6i9rRdftPpbL1/pvDC+laPWYS9aQfTNfN9juDx/dSt3x2VL/Hz47fGV1M2wyx+mFZZefxMrcv0IesweirL8xdTA3J63NG+jZK5OK0Ngav4ejpt1jgU6kcvL6XYBM68nKtrbFr+C/q9k1GOFQNMjuC3981JTOI20gV32ZnmIZX9s1vJd9iqb2uNreROk3Ak5NODGY7fgvZiZRHjoENbiN1nogzgo48Zjt+L/xhF+7tYXIbqS+dc36KLZZadKFpFa1q7vZ1KPn2EFcdxkB/zSZlERCSY63qW3NOz+npAXtIjtUtZgy6r6mF1S1AO29Wq9UmrRC/6jA5nx0t4LSgJkpWDQk4VORf3gvxw8eHPG0AUNkW6INMwZtNBZiXddIvLhExb58O3RILq1VpfaQUPDaPotr53nisbH5VPXQYnYkfROsd8SRkt/4SQ4PU9C/UDlCzKq3pa9W4Boztw1tFqWOvl/3AKhitCQgeBs6Htja/qqJthVVkfRnt/DI/Sf+wngFR7fuFUPeB5zbWVtSkNJ+tx9RpyIQCohVxdP04Wvcf17NxUnt57W1+M5lV1TBuAIe9mt7W7QXZa3n9FhYrhm7+zYwndJT7JnD6fEM9OVoGh61aep/emLhXVVD6tuaWVcWvd0ywlSY/cu+fd+mK87wpqbru7QQTbmvtXdiWwMehDqlvUi9HTBfC0Vg/Hb11lamfVOkXFmMKrK8zgrL+VUzjdWlaNi/lsjb/zHXA5L14/YUxwSVo/rB/dDH5alWzocHo44mknXAzhdO2f1PJ/9XVkOYHrjLwkyoFZ2f/s4nBY69Y9Frws6Vx0qjaYF8kkj161LydHkq9ZhHalxaKQMzKtA1QU18NTQy9SIjJUye7OhJ6XcAnnxZNFeGfdePwtuvajygw3UMFTEpVP2PxlrGQ03PCAm33omvP7bRhg/64DTBAljXh1Qjw+y/CVKWcepsgSPlbLtQgN/huLrugn2eYh/NmwEi32T5Ay57baQ36fp5h3FYGt0Hxq6T/vXzTS6h/TxBoqyz7PkQU45m4jfUobi3r/sGuIHLyofnXNkCSSTwVcoj0kfppzYIx3P7RaCoAIfwP1tYJHcXwb659O8LYyhGzSFtx/QJvmo3bYHSxwswa5q3Mv/TbjzPtedsjRxm3Oyy7B2zNa9lgAF1Mm29SheHkGCHkTg1jdkW6dTcXTg50GyBUoZ5TzNDfJChjNZcN1ONciS8XBfM/Vg9eb8E51LuLJo7hrsUO1gcdELMfNfqLNLO6Bow3sUP5HPAipI7hOb3FqJm9NfqTW02b03qXC1ECOdI1VG77MMU8mxeunx/bkEbaSOPp3ZGMcw9PEJ+XurRkBJwkTBiDNZTpqETYmSsuIDtANHkxAbHkCR5ePfvAQEYgU/P1p+DUKWL9d9WcxxdI7VLIB3vmOJIJwMXUqbuVTENAXuiVWEJmWZhq03Mb4gqQENCHDEMNOyscOTVIlhlQEBxAQ2ku3yBw4Pr9hcjKc2adHgb1mE2nEIQTRlfBptmhs+f8u91fj8f8fn7R4Z4fj9fVNjmhresFGSBgPnUK0bJfCK9SzrDN7iSciuvduuDx7/DEepd2fdlkdUzXZUaGffyko6z4a+57lxIMC5gHUjmwa+LFMT1V3SpqR3I2i98uAVupurjkK0u15fOpZGQFQeizyJuyflWhfY06ruvykm+BGP3Nl1KDPu1LTW0Pbdr5V9m0eI6y0+Gl04Un/jhaQDWVXNNySkYNlst0HwO35wxZnfBt3ZJOzihguV3kccEZKQF7a05O7XfOoKTaaqx/wCNFM+Sex3kZyK3+0BtUfChwwPIwqTH/e6jEG1U/wVJdZ2VxO63/LpemadI0ffzzcvn7O92KKqvrz3PCobPzVPlheVvrLJtPG7vIr4udv/o42S2210I+vFLV/fuqeXWi6nysl3dVaIhEb8E/5WEVraJxtc0mJWe6aNz4yi0GSDdLuLGFLtAr+FT6tjumNxZu0apuviXR+5tHgjt8V6THXSdSMKOcY5wjgj6755eKH5i07bvgYVnp4hvGbj68rB3Eaa79xoQZzMLYXUs1/evl8a/yQBmtsrG4+WCW6xtUr++GSwKtjvxzQ1k2M1AegHxoLq1Aj4kLpa5S555b8yfQyxSUHgTzxyzYn/jmo6LQqJ+jhB2PbjqboJMxKDkQ7QTTS3lgzCiI3wNZ/Rt1Gh84lQ1XHKwDCUR2SMsZcU6g7jPniagiqTxfHbw+WD1dgY/T0EO/0H0cmhOBoCnGJaD0av+zcZ4Vqpak6SztCsue1R/oGjKC1oV7onxK4CdDjk2w7M9IxbGgV1irkh1MP9Pl76r8aHhQzAelZj8ghAI6u9R6r8E+ghPfidrm9gHN2747qg+DgVZA5SBUJMClOiog5RoHfARwtNLF65HKGOUKRFW3XcJ+JUUZasxR/Si2tIxsgCBjS2BDbT1/+x6iqvshwifL3QX+65n449jWKih68GEMCLLlSd6eTHMk8tZU7W3ni4ouhLq5EaKMCtiGrbA49vx3OIEP1gZ/I5RCcrGxUF8iSZBV1f34fUPOa2OL8hKKnzP4Fl+bNorwELysbNwGEtoUL8mCGpm0eOLGxkPumVi9drS6uNYAjPcCGDeGilrdok8UofOZ2nvkRSCf7K1/iwFBflFit2tymWFmZrhWN7ffB+ysJ8BYuY6NnohGCY930AcjUlRP0w+Ik/t0WxbmO+jkFVM/DWtwqJU73ojFMIhsk+U8GC1RARkcg5FMCwZS9VUGs1p7wCZ49PRjWGrUci1cuDtSFSVCS/BpujSAyi/ILzJ73tjsGmKsSp/z8g+M+IMAAVleeh2wk3VE7V7YM6XG7Ql8VvvCLIA1hA2XdWsG7Nuitx89p89w/y2tqU0Dp5sLu3o0BrvIL4DtRti3wE0oIAPMWirH6zrIbLu6xJECszZqmLrEyRsy+sEgpIkmw6zqBoezatDELFq6pfjNAXVmwd0BzgBetmuM4T5wg+DEaGYwCaIJqFGITWWVeNlEQc0j/QauSwSVH/WfE9Wu8BOcyYAQtUg2RKPYJYAV+ZUYmUsvQlD2bSIs0R/5ZimpeQj3TOxfWcdnWpFv4PvJ0TK+zCZocIhscKvtIB1BbjhLS+fWEeIjSqSBq/uEkAjNizoxmF07IloeWbzSi7sl3iCqDIN7V7cQAiy3MLa/sOZCffict7R00oi9uEK3LdTr7c6F8ih0nFlzoZaWHd2m1I+1uHwd9aQdhtsQkUkdZxtjLuSeYvLqkCwzpCvQUU8CovsQHnA8jIpRdcMRS0tsPScRqMb4eUCyH/CP5jD/Ve4TxScpuTjsbevw3OGNIKgaelN/JDyMtawfSZ6zgfvPkqGQCz+7gLRtcDVRQGgJFX6M62ABOgA6/DMnAbekD6kMhQNvghz2kw3Jf4UJ1/RJeBNwS3oxUIlUwBQh/hzZ0wG5QknPjmRtydMFcRsSW4LcjpNkqKZou1PCLSmn0DQIqkDtf17DLP2AfoG4s77H4eLlltJSaGlDVgRoqQqeQPKkBeyTIEv7JCcQ5Zg1TiB5+6wUnkCHMejCQIUU0LHBtJM0sStNdCEPHQJ0cUDeNKl+35nIkVpcwi50MEtxYqJscewQI0eUoSTEF2tTA1HxGXbyIpVvbNnz0o5SYEE6aNIEW3w24Kfmwr7cgFo24lPJcjhNiw9Z86IvRyggSq8zmeVa86LaPRjIe6qFU+iBRjjJqDPX3dsQs8H01Ej0FDz+Xr0xQr1wpLYlzlzz6gqaKMBPe+H4egp74RL7CwhWl7RuqPgeI4ONtuVIDytfTzn4wn02uKPBGYCfExCB4z0ntgB0jcARmPPDF4T0G8CMjLAGgxkuQHVSphQjMkIhG6hPwTrxCtoSZ2QE1/I/Xs3ZGoDDGsXjCJH0Rb0iKqYJVP5jZUCQjbMaA1EvM+WCc1FYAj883Jqk0gyJaALY8/iCMMjm98QZ54CZfGFGqyufQQQTA3Z4apRal0erDT83SBj1mi9mOp+tFIwHBu4FeT2PJQshDQruSDMRYMOXTvOBlBrPkWteC8FIvIhUPVTvsTS1hi8VQZplcjIVH0zRGoqm780bH2ita7KrVeF2jIBt9AyeoTQTemPRGUT0s/CYeDEHfuWWux0zg4joLjmQHQZU5Gu0cvgU6uiZHfYZXdXkJUAtwYSkFwBg3HCyPNnZYc6kcBvRui7qgfGUF75F+VzOJPt4cynrrmavLlP3VkFh+ZeEARxJp58lFzuxeijT4Eo8TmY6wu/y/hvcacNukDhZJMOGG1Txqf1HyhRenuwsRz3s2TFb7XevIzJ2gUb+AE0Yg5eG4gyis1Z6YG5/ze2Nuk4s852jlOa0srGhRu7/y9mvqHiETO4eBW2dWpnMxmbV1a2og7EtowKydyAE+QdnyI/pvAFhN3Sn0HcTJdb9sc9Hal6ErHFUURSfZSwJQf4xqijCrxJAFUEQU15sgBHnJZF03i4Pu2CSLKToFnj9VIakIP/goE/4HSDQL4jMT6iVu52yuTlqoFglFB/KndVP9WWLYA36GYJ7oV1DUc4lVt1g9PvP1VkArSJp4ylnxeKDYRtavOnsEkI+OQpGOoI54M7qUR3SnTX+c19MDT8xpvElQUMj+O3k9oK7sOPgl7hA2hzbBAloZUIO3XRQOvy8OjL3OfTb+CpwT7mBPFC1sbxtDrql0/CQ7fL1cJhFaWdVBpPOw9XVbeFH0Wx6C3WwftZPyGEH/r4632pfJXnUjL/n/udIV2wijtsuAZvnfjmOkeXUPrGX+8Mp87b++ELV/Ju2dF2gzXL1d1jF6H5cmV6GVq0u4tXhaTD5WkDohwh/9R7rTcFpZGJ19xCm/Fh981jdPVT1/b6OSdukxvtuk9R6t+Ttpt/dwryijzO+ytKJblzcpR5NQVAnEnVWFae/S5Me8uO1o83xmOf3c9o0l79T25jn9aSQ1bqZtFvaIs2kc+p4hq2WjG6OwU2XsnT6xnBm4uo/o+kvhP3BRV7/gsf+/03dPbklcP77m+V8mdO2zRH41y+ACQ+he0OXx3XFOA+/wein/Q9wYMjTd6UE2qC+JGl7P2VTsvzsXrnOX/gBXBAx7U0ULYFencCMTFbndVl/uTFpx6fOigZZHr0JPXkjcNSH1UIwyf6+bjtfjWs6G73bzrZdZ7eW3xm4aya+EPYH9dh1QdPt9XC5PfBCGMM6qqtTc9+7EBJwWyvHI98jMC3PkzHGITS2sLtF1770L6Cmpu4EnlhKyk24E/gl2a46xHjM74dnG/DjsxM46v7pt5puA3vpyyS6egN3eXc5mFEGMiNfC6TgTt2JFdxWw9D/uASWRrW/EXyG0ZQK3Fcw7bVe0F3Pag0Gt67D1mU8gmk3n1IWXm6Mb5qgYkN4+VkeCPCDiftFA8c563lkMRFpdjg7j6d1xpVCSKifGlOKhpMoc8/HIAnI17RHELgKjxuyRFm3xmZ3XoI1SADOTdvVfiEHqcZdfHBnol3Nv9gL3HUy7Z1t4JoRtqt4gRFkv9WM78Bux0sbJhNQ0FXvKMkRIEPcZoO/TKu5DtyQG+rMHPD39ixCNFRL4PKnaW8aaXoFIekDjQ7VVyYeTpaWVKsAVTmtayr0KjwstK38NVi8JYMBZ9G0YAokkooO9sRM5je6ucgCzHNdURd4R6qpmBWuapKChPm5lRb+GuWciFkpRpjrrqvA235bwrULkFkxRPgfcOuq+QrINPoH3Mp/THTxoQuB+LMYlU4peE+IfrCagbKLj1yzmJbbcoQk/9jtQANvNAKSPGkoaCS3Zj1t4PVNc+3bsRftGgWMgbEN4FGelNsiFF08yWoHEbRtZ0MXACcHuIQILaUz+c6bDScDG0juErJ0VMcuqzEootlsoDD7tqOYKNDoZqylQWf55dmBlAe7hFbukJ90qNmCBcBJIstoyYeSoYQd8HvFPnEgqA/byYTIyHLT+G7uSGUSDT+quZuI+hkK1GFs1sOWpjWvI8HmBcBx4jyTLACimlu289SYrUEEyb3gI00cGQFSxFXKpqX32qV7IzVDVcyTd8bEi4NUTSVWFfM7FrQwllxHvIKpdK4DCFVJsD7s0Tx4gEgkVhU0CzaDbTt5whTIaPGjqcS68SFCEVrzPyvG8sKKyamzTKBd4HWx5NbCmqjYNhMGqtefBHsljOCDR9CZNmxu7azbdwgUYdU3e6+FADXHU6dd4L4TQ9smNm+EcCDEnQWfVTZ0isI+G9PfSY6iz+7FPVtlU867eojmBJV7Q8IHZ7ilG17T4xKlg10iNnALwsFKinzw6wiqARN5ltxz1IGHks04tctZh1ujEH1OHNVMX7s6jE1Qj9qwvL0/1px6pHxdjYh60Mcwf6ahD5md5QL2H7x1VAH4iK8XquqPU9Xtqta/bPoTaYHj25Mftk9C9stji6Wb7WKxypuSrn9TNWtedhuS5/C6LppDfj//ZWh7z3D8vAhbp/2N6sRs2+4vzFHJ5e2G0MTwU5s/YF78kiBVCZxsZ34C98S5Q4iYLRof55AMACS0OBMDzybHLVmIgJwSP6fqQwtfsW9HsxQ+ASJuoDRnpNZBIakrfekpGrqevu4Jk4ddpdfBwca9Z31VNgNkNMhG/WBZa/pCSi5tTwPlqcFtQ0aR48R4HBfFeFdgcs7oUl8VhV2HPZ7uJnJ6nIy6PHxJznbnSuNTVo+8UX4s7df1u2C4/d9svfnqlvo9Xqr6UzcUZeuZ0KKbkn2erk+X9L5ZTKM8ktUxf9BmN374/wBmE+KJM3UJ4wAAAABJRU5ErkJggg==;" vertex="1" parent="b9N4R5i_NIoSZ153W1rB-63">
          <mxGeometry x="145.2" y="9.333333333333334" width="51.94285714285714" height="46.465714285714284" as="geometry" />
        </mxCell>
        <mxCell id="b9N4R5i_NIoSZ153W1rB-73" value="Docker container" style="swimlane;whiteSpace=wrap;html=1;" vertex="1" parent="b9N4R5i_NIoSZ153W1rB-78">
          <mxGeometry width="480" height="280" as="geometry" />
        </mxCell>
        <mxCell id="b9N4R5i_NIoSZ153W1rB-79" value="" style="group" vertex="1" connectable="0" parent="1">
          <mxGeometry x="850" y="-160" width="390" height="210" as="geometry" />
        </mxCell>
        <mxCell id="b9N4R5i_NIoSZ153W1rB-34" value="" style="group" vertex="1" connectable="0" parent="b9N4R5i_NIoSZ153W1rB-79">
          <mxGeometry x="124" y="30" width="122" height="160" as="geometry" />
        </mxCell>
        <mxCell id="b9N4R5i_NIoSZ153W1rB-15" value="" style="shape=image;verticalLabelPosition=bottom;labelBackgroundColor=default;verticalAlign=top;aspect=fixed;imageAspect=0;image=data:image/webp,UklGRvQsAABXRUJQVlA4TOgsAAAv/8F/EFVpnrZ/1SSp63/Co6fznHQ9pxp3d3d3d3d3d3d3d3d3d3d3d8nMet/znu/n8znnXdXBdUXVYNUbtHGtyMS1YlaFS0f0WGTgDt9Fs3S+1fSOiK4OIiN7eoN09ODulYW7Fm5ZU1G4tKAZifUoWrhWRA2y1aRw6B2RuOsILqtEs3CtPS7ZK6Rwd2dF5OD+btCdjfwBuMtIrXCHqhhbQa8aCnd3p6KjCMIdcsUkrrXEPSsCl24SbXbu7nCqtsj4zLJWVTiNu7tnvMhEoZWLkWDlycptpKZWuLtLReK2ctflzGxx151DDu7WPejvh41JEgDIkKS1bdu2bdvm2HZVR0RV27a7M2J42vP+bChHkuRIkiyyFiP+eTi27r14Oz2wBDAACDB5tm3btm3btm3btm3btm3bdvMFSZIlSZJsMfXDOsrS8m0uJsqqKib9Z7n9lPJfpfxXKf9Vyn+VUljTJv+HiigTKS7O/x8h3HHFlaiogKq8ucp3uCJaprAfVZXuKuxvFNFvlSUKle9XVemxwn5RVdqusE9VRJ1VvhXDJj1JJ9MEco8VNEU4terFVaWBCvu2zecaUdg/KKL9Kt+x7xk8QRT3VqFCWEVFWZXvJIX9gsL+l7uIqvRf5XtFEU1R5VVmGuOEdlOljL0yKaJ+qtLhL+Q6obB/V5V2qHzbqPKK425qluW/IIoo7ztvPtcXVenflUdIdAgVYrqVXxkRj4b+X1Am/kZ3C7+iiAorolmK6C1nxxcq7FsVUb2gKcK5eYqQzPLOiug5Z42q9EMRX12C/xUtdNsUwZlZ5TtGET3iMFCV7iuiAd2WlMAd0zQW/8U6ClXpPAfEkFeeoxQI417pTxT2clP4Qg4Nhf2TqrTYjfqehvPOI+IwUfnefN4id0jTmL/xVaW+Kt9bHDATfRxFReVpjBPMzRlFLKFuNZXvloly6Kh83/cfPhbp3RZ1Mk1gVamQIlqo8v3CcXDlqlIjtyQI3Q+Vb49xcUSofD+vfxDqbjxnRH3eYENVutGkhPyN5j5IrUQahX3kiDhKVL6/vnEz78MtcBDl1OaIUdif9qmIEpn9UPNHp3A7HDlDKux7lNFb/+nNuxQVyZ9XET3kJDCa/kvwvwzm3D6oiJpcOScERXRMYW9sup9Eh9O/TikGd/VJtNvKK3YTRXSbk4TCfr3JNJb/RDXFChWCR0hUPY6JcrI4+/e+/0Kzq/CxSNmnqvSKE8ehNAmvEMPUjip94EtxfZmpgOu26lAeTPQDN3N6dYK6DaHmHGphLVauxXleZjLgOEoU0TMTmo6Ky1GVLnEmrOjRsb4zsN6zsGJH23w1pGkpOqTpqM18CFOZXWTnIptVW7gP27bXZtlagidl5jyBpWYi6GbZEVimoyIk0plEhU0pXhOm2cVlvtLsaKzyrrUANWna88JGMx5yC/E9rez+sT4zMcsOx1mi8j1rAt2qfxIVajJlcus+F3Z01mnhWsZrbU6Gku7qrtzu2ba90gcHZ4zC/rH/FzT7A8pL9KjYDljtLWPhPpXpTTkdNQtut6hvy/fa0ZjXlsTZM+qjCBUimzRNo/yIkDNqDoHpzsjaL4btiPEvx4U2xhJKdPrK6mxedkms5QpMU1l4JKZ86tJw+v8KDoRF/JBsJ6z+hnWqMxp2rn9l9TYu2xGL/rrAsaybLJfSZ4PyEL7hmq5ZtjPWe9a60XlqT9NQFc3qtiqzZwkd12DDsh2zXrMwIxEHyaU0hQcwSy6l+/jRKSiiPxwU81+TbA2s5YrVsTttX1nih23stlOW69zgsFCVnvRZZIIUIZGiT5XvSw6NUazWlmVrYb1nYfeK39DJD65+w6nbWpjj4QAxHdXM1MjnPyGjnjIBMrfdydbIOixeS3W7zbIjOPrKWi2HrY07G4wDZHv7DJv0JCYm1DxPDpSVOTC0yFE6alqKMjc9ofzaLFu2ZhbsZ+IweakrzzkRUzKwcMIcLrODwXaBc17h42OdFsJ2gXVegOnMOg4Whf2D2bAq3saPvvfZc9Asz9lmM2Ip7jYOmlHnhAphTYMixm/cJsPl0JlZrzsnRvp6BFZF8zxjrDwbbT1HgMJ+zfCtiuf9zirfdxwHMxh36zIfTPRdWKyKEWPKX2jYmpbS9/A5V87xsJgvi55yNOSAyapo3AMLiDQdObklBrpCU2tV/PGjGDNHxmyTW4W9Q3+d0/DMq1WxbAn1qqDy3Xx/HBczGnHxz2AzYOgIrYq39TrNDNJGFrUYJCZN8sRvNMFmwschncF6C8ZoI8OkaS5JL23XYw5s14E45GBarIrdqr+pYK8PonEgeW2XLpsd42/by6WwOzApVsVhH9wHclzc6amu4fpls2bsDZklHmFYFc3ePPFfjPQMw+Coy20dkwPzYVVUp35GjBxTRMUb9r38p8Y52XAY/+X1jfZ72rcmL28cY4rIgo3yn2JDY1gN9Z57ZC6sikfQRFW6x1GR1FGDe4z67ym/zyL6HaSIdN/lVm3HsJ2D8nsyD1bFEmVPFukgxcR0ZZym9BLW7wmoVdHsJJiG28vI1nUebMg4mbqG9fQrz3l6UlVC/qbu8+Y4Igarv5R32totgY2IdZuHZb/Y5rIvjYLjpGr/502pnQAbk0yq33e5Uy1/eUc9rHOyUTCshrNiD3hz0qFCWILtBGj/CO7eGq5f6zkb0L+n6Us6c7K6YVyOyvcyp4PBpj/hZtHlPm7em9NCfC+L/aIs/fW2gifbquxca75q1bYBck5ruH4t9Nd0IxwpG90keIIopK0BTRVv2F39XopPtWHb3fvec2b+z9dw/dq9th3L9V2/u0vhmFGVftKUk96PSPM4jeztzHrd7OthntrDgv5KW6+31m3eWoP1a+uX5XJ75d38rvrdPRYpqxuSsxbokJxU3v/89NFQq71l3OjIOhb3MutWN0MxNxinCEX0W+W7VhGVvA1CpgofMCeXRX5XXP1oaRjP7KMFnVUxYkyJjWaqMKpE1US0asWPjJn2uzfkpDLkleecCPqFoV6cE82cDQatmuvewJmCNh2lyisj5oWhVL7nOOEs97mmTWuyZo0CuMKzIdjfhtbfgsJBUQ6oSwlvgolyDe/8NCmeQ5ZSdqGJEuhaAbYVaBud/lm1umgYslHCcw6qSwnhvBHyWcQPRdPY8u7ClcIuPJdCAmWApKRIRdLp39V1bwsMJEUJB8gvNfkrbMsA069xru6mpUHLcL1xqIoou9BoCnSspGgE2Fet6HTesCQoYWkhfPLa/TdRRA+4QTCnQ0GDHg6mVCVh2RTsL0lJSSXLAV11DH9PUiqOZIPCnyiiGopo95DcOFjO88Opro5DlFJ0DxXoHElJDuWQzuuGpJWwlAP5JKoq7S1RvbV9/hMS9KYvCvtrDpjHmoGEdDeRV3u1V5sDLYxxToZC5Le70+5mOOr+FOE3mb/aBE9qVaKdr0GOT1cqAnLeynv/KKEJppoPN/EF+VWucOlutBU82VZ511iD9Wttlq3aWpYGHGoN169V3TlW7OgY2eI9Lbs5L61pijMechoeB2EuSTvyaSsINEWUwkMFOFeSc2o5p/PaMfnQZAC6J/aPAyzlYjTQ7jKzbg3zW5cW60Vru6o7R6qtF7Xv7PKW8HFZ4N9lAi8P8JvcmWO9MgelutHO1yoNpytlARqEPgSkBBOwrZ2ntShzNBIW9nNZlstttbcMRgahNV67lvdMW7Q3ZeLAfH9jdKiEmfE5SIooupBwC3CspCSN0khntaObwRIcCUAnMd8imASTIvrG4TA9aTfxV16FvYO1IShhdTaPpb5dTnzGQ47DYTkuDEda4eODg5FSdWGpEOQZSdqppZ2uWpufLUWUhKhlrY5AUdFrXJAmhcTfKBgz2BquX+V7meaSQJmq8CkONHFQ57NQrVqd1q6vvVQPyIykqrSiREXFWA5Pl30Ale+m+4PjAptdCEt+rwzLhkVq27nrSjC+sPAfS8la09VrFEDOD/K0JBep5SJdtoyTKuIQeWpm1fJseJOnBjQHfDFfth2zITLUUt9uExgMwDe5spJ0ejDOD7StpCRdhPD0IT/wAfQflqgawVlLVdoH5ymz2hgvL8EGS7/x7B9GzrmkJ5uazJXyX0HukaQHtfSgy+bha03hecchorBfnEQzfRcIgZRg+oyF+ZKe3IbNOi5anzVDMccZc8jRdGasc8vhuTTir0rSh05rVi1d6Ozv+P0x14V4oIge5eg2KjFsVV7NVKWTkJ7si8duw6d2+RmMC+MlKqJZkWcHA1PFhiZKoHskJSXpJr3oonFsVXheIB6MazN1Ubflm0tVmgtqgZB5bksHjmQu2DotxCJ+KGyXCL23SK369sH8fGgCPDqt8t3ZbdGTulyWq6rUAtYCIdc4dBsPq7l1zTYFlrqU1di2bLuYoZkk0DWSkpJgqlaURSU86wA+hvbnWrTxYc/EQTHfDSl1fWcAE/ex+E8aS5vwDSZ8/LQVhJmZJEl3fiaacJ+uiOZrH5a8RVVpMbD13y+lo42NrWf55LCsl9sSPWrszmch/em8bk0enEXlG8tqk6pUcMIcGH+6d+s7A/jYMYYDB9d4mqzMJCCldWBKqQoHxZlpmjmiiK+GN6K3wseHjZE1W70mx7GglCTSTMKKzmpGLUbs6+RDU4FDImLUizgfVlT5zrg/Dk3Vlu/0sHHS74MxEavzMQiyReWinWlTIgtyBqeF/FZsrIwAgXp8qEDHSEpCIk0WldCUA5OG3ifHa4Mp7BMguomu9lPQyn43J4LqI4Mglqf7O1NEWTgIQnKRxpFO5Pw4REZm49Uarl/VICui5CJ9ZOzp/M9yXboMTAFQmQAHGR1NGL9omEvAres8IJY9RqeCZiYBoM7/rloAuIUAV2Cv8EzwRZI50AFykHoVG7NezKEg+sgA/Qfy7yzAMxzosqFu8odaV+b0fEBmEmjC/Z2GZZKMxoFuC6hGgFpDQfx3SKiUNK4E63+gTj8pJedrwoHKTRSoho5aa7NsAf0Wgd4FT5jTzxHV4O9YwoG6LUQqDlQNUWtVdw4O9x+g1s/8fqA3xHIoxPo5IISQdZKXpMBg5YGqvlFrSR40DvgbBnkbCHVWg5KEd/i5yM8OIRz9h49JyrEC1TjrY9as2gKPAvDpIIR75Dk0XXwNCCcKDA4OlFdGrFXaPTj0xGN4KpwLMp0dsEVKCoJDRQhnksk0h7q245TQar1n4VM5fCKK4aH2EoR0s58qLBwUEXlXWjiXSKvLYXK3aLW4zwqPDmGjD53Wr+hCaT8vCI4Ur9AiEeBfHg6TxX5RkOpGS5qMhmP0kbEwTj+5SD8bhNAkwP86bpS6pj/liPBUOBemwjf9rHVgoAmhWWKTCmCq2mch1N69PEdGFSbuo1tCeT5vGRRpvgThikRGeCFxmMxbS5oiNpWfxopw7cBeTU5vdVq3ogvX9HNPSLL4WiGEaxKyYULihcPkK64MldZ2KVwrEgT6apJMhGn5iTKhydRCaMBPI6kzCeHvXkUcJP8aP348aru7HC+eXx4xA+FZfsYTmk4ZQugikRUcaUAvOfPusAKnGhK98Fz0Bw4BJBMPO6sfLngKd4ZDPEqOPNJLQmSEZQLUej8eCcN8g+JRcDAwnn2oq3AsP+cJSZTI6+gpIQIcIzwXOEwmMILnAJ5pno+mdCmcCH4+NFGCXENHIVh+khe097VBCL0lRE9FHCbXeKpfDnfKedsxclIoGmWgfegl8MvP8p8PCg9fE0KwkPAGekcR4H1hYW4GXpOzBaVFpbO65USdN66tCss5oAbpoFDrKAQjCeGLCPSN8GLiUMei5qc+XR6sLzzHyu4f9/b+nCV4R6d31PnCAhAVng/fWV0I/aQNf9eqw6HyWHM+EHqYCBRz2TJdbfPWEqYnLRwCKC0qO+pwRBlqOjzAs4QQrCVE6YQCDpZf7GVxnpfdY7z44LDalnu1atwR1J6+oyWf/31AR0ST/e1LCBASwtc0+Tmgt36c4+Ew3mW43lZ9+/pYFiuOruH6dTWL9L70co0cEDgtKicUqS6axlaFFRyHiVKW/EQhwEgIb5vwYoC+7cct7+TCfyxLc6ut1MExJZ10Cau4ZyzL5fYdB/pw05FzHBo4LSon1NnfNbS+NmaoVo/wQgjytywhQEkIb4B71EGx+8vwXu6Mz3ExXpXyh3zCK793XdnYh9ptR9s6D7XWy1e/fdzoT3zU4j1tuzmvLWn29TDTfvcZnG6+Lyydgr3NiQI943ojCo5DDjeYyGX8HSPZw7ExiklOcpKPxfECfOORmxvxL4P9iEv2tw8hgEqI6wiOtabc2BnuLLhd3wv3qYzsqM8YgkXlFEITpSUHSkTFBUVGohCAJYS3TUWD1jWOsbjhja7h+pUAZDmLhwlNlCLOIYcbLKUXfk4kewxVe/tqUbcah3sS1YeR3gSqaOEGBglxHcHRMqCh3mqcMo8dgROluteeIVjhjyTRRVqGJAqN71ajOS/+YpwmdchPFAKM9Lt0SLIUGN2tRqOmNEmSdIdtvELgkxDHm97aOPTyr9b3qbY9aj2GwhLmsi9weuRpfIFCCFDS+dIVyNeldOf4VqODlvxe4eTo5+P8rEsIOGJDWkiypNB+qzlCW1/WaN36U2aC/ZyJXUIkBoVaFXpvNeXK3yibMjTv4wY5KSpTp54QApYYEuBbYflApCYZ/VbDdCIrJYoNiaTIa9MhITLimhJ4qxkW+1XMHouUa/uSEYIWCSGbJrUGYbea3QZSXNZsmIGOJ41o18YlkjPS/+rkVgNDd0WGj629nxVCUCUhfK0mvQoJt5oT7xh1qwHHquxc/0qDxloz8tqUSYjqAZ5VAfutBmqpqfb431Lna4M2lCAR8xgU563me8/JBs1CfS0EHKkVSRhICDyiMwadWa+7rUX4mF5sC0ZuI2ClDg387uYe030NIwQm0RmDzkBCFu5TidrIFoHOb6YCDvtRYdT0EVxCEYOC2sgavKJ2okStguTSQghsIjYG7a/jl0PXih4dg6G3FICWDPY/qJtw2kRuDDrcvldu3wCtkQ8PtaVAgEcie2JpE8Ux6KuVnyJc7Qjea4emUzOBABkYpVE0x6AvX24N1y+gegqsR7Xj/EwIDEhov3w14msU3TFoW4jJh/q7i9hLhkIS0dXSKMJj0BmOulOtD07z0BlwesmaCSzIaLs60QisVcTHoDcKS9eCcfXCuOsQaJDRTvhrhLccSEJSCIdQH4POms2VPz84mtIk0emwU30JAg8SndO+NiJYjiQbxBAOoT8GfcQFqEmrtWUBUcIRoLQU4JGMrA/VCWs5RgbuCSRk5nXgOJg9S4ARgy7p/YbrqGlwrMWgOmol4envtPwg2UJb4QiDiEF/ceE+lTVds9jvXIzKaFwUaSlAhYz23AfflHReb4KPTkgZ7IFwgGHEoOPsm/H7Z9zH7OsBm6UAlWS0VV1Zv0WxNNCN8TazDPZdlIyRxKDfuzjPy1AMdWKIvGR+NmA7kvC89LVQy9KGRE8NGeyvKAljiUFvpLg3Zu+T8FiYvGS4dPgSnqk+OhEtrUj0VND3kFSf4quN7GOZGI2/AtG1kUlCOysT2S0X8KE3BWWwdyI6uGJQsgwqi/ih4PCSDYrvSEa7f/qFlkv4EfEkOocFPgZqr1QdHoMKNUbjoqBg2y6BjsqScXoclevlJcrAkMNHeLBdqRU5Diaiq0Flt2fB7XAsE4NNEtoXCc/wPbb0QAIyyGgno8uYYtDHOvHJ6abdhG8ixngkA5N8dGJaOvGckvE0l8g+oTw43vQqpBhUVubAqAbfRIxOkmG//Axmde0hsqUj3RjEksFmg/1GOqxtisWgskbrlg5G45nyO/AmYnRKzG8Z+aJKw9bzwMckpQy2WuCkRVxTNAaV53BRrwLdRIxOMSGxksKj2EVFtOBe9DyQDArIYAeRHmQFBVoNCgwqK3JsDAZVzYPCLVEgpLTjkO6Xnnca8ze+jge+SF4JzxaBlMET6mI3qIx8RiIO7LUFcPTaOGTIb/xRPU+Q6OzGejDZ9Cq4DSrfBdVLhjKSC/S2sELimlCVTiqjt6aOb7ApG6SXgVkfJYShxaB7q8mgstznGtD1wVB+hKcWudA8xxzdDqqqSnUiSjoWHK7/iQJtDBpRDUgNKp+2uxC9ZFkCIb5Wk+fib9tGn6w+nSBQRFNGExUrhybKQFgPstocNpb1RhfuU1mz1cuh5r4zwfSS4VOaHsvCKuwbRuvy+Qen8j3heHQMcQyKzqCytDcbvGViCPvQVvl+PTiXFDGmxIpo9IicLXUV6B9e5gcs1zVEY1CJtn7BJb48NEsByqOqOm4SpbBP0/46ChES6VSlxfenZSJUXq5AG4M2LoPHoJIw5wMB1HNmPM70fZ6+0ZrCvrGsNimjN8c3vpTm/Yv97BBY8bUDTQw6gQX8myAlGGH+HgHcG+r1NPXq8r1fyqXRUmBJc/BbHaBfLQCh2Dyr34tTKQXCqHzH3o4Og2aIY9AUKnWHbQTOcOOHOBMU0X5nUvnmGZcut9TIPU7wxqBjdS6qNgJAqMwTZfbBPFHHb6/byTSBFNHQieqYQkd76fiL9NCm2OBo87UapHfkAs6O0FKkdvgiWarSSl0/WfMSEcegsXSpx2jPmcRadz3+LjI5shw+iN6RdWiipAmTEYMW4ozJE5nv/nMkjuqOVdjHswiwqnrNQwxapo6/EzjTywB++eMdqET15ma1Ok6vaA8apbLeC90Q0ssg5mxU8DqQyncTywF1xPlIKjTWdJQxWKPsKiDGwzNFyfrRiXJ2nMHAXoF4bJoAbeaVoww3Brr2FBhPSf7OJRxoGsuekvVaOTGIY9AzQJ5lqNOMclNO0793WHdsYJA8rH4DIAxNk77fSUECygzcdsEJuJqXdlJ3XHNYH7/45i+3Rqna+bkosy6AnPkXmSucKBvE30N73/FeemB8l66IM9hqBmgE3pPnFc6UVQXImAuMddPgboFKvacgq2oNDocaaVrqTvyGAiip98oxwugsSh6cOabMvBxIv3Ah0aSx7tggX4Pz08LsToivgOEoeVCUsbXNIRGWSxma686sCiwVg5WM9gXAHzXaXwf54ywdXKo7NtDT6oJaNf8CjSgjXRCXi3ICAaxx1pT8LNfqTh20Biz/TWpHvJcOzwSgpoL8XJTXBpZUSch0ue7YKYcmUkm/U+THoGkJ8C5dKS6X/gH2/8rQpe6YTYoevBtADJr5Wjmg1DSvEcLZt+CyaXUG16vunCnHlYE3LIf20m1+iPIz9j2hLrRn5X3Xs+6gtOhPb4YQg9arA+WI/ufn5Ay9606qF20lOGOIQdPYB24R5ZDeCK2lANQcGAZ1R1UPDIwoi7dBxKCZF9yUpX7o87z4EieVoeXPm+Yzqzu2TdSBQcSgWcz+InsuMsA76F9vo3Z+I4Z1h3lvqEeYFi2kDNwXixtlXO8ILQVFHBg12nh1rDsNTR4/ZZA0rAcDtY/V10cclg0De+nPmBfCqDs2LZlzw4hBp9xTHY9u9frWLMb4hARveKw0mLrzMvObcoAxaAuBlNzUi6zrepT+e9l+toXRS/ZD4H5j43oFVXfgdtWswo0jBhUdNykknmqU0f6rUVh5p6aM1ksGbb0TeHXHxhcCteujZbsCXOMuQlNptM5+s2OPJKGmv3tNWSD1koHzREGtO3bwqAAEYj4SNYkZx7RTj56amvp5Ad51gb1HWxmOGC8Zu2lAfw+47sze27cEGoMaOO3imgKc9g687tDtSi2COJofEikxRi1/zwrNFA/AcAND3anNGpeBGYMar7xVa0Cc9o6l7th2ICf79ZieaKzKzMsBGG6gqjsmq00NmFV2GKcGtyGWKoCv7pxmjTnIGHTKxnjtihBLFcBZd1BmfiyHmI9sZ3zXjgW4rDXqumMhTvbzvMEmeQ1MzRpDXO8EUN1RhMz5bm5UMaj3OzcTYqkCFNSdVZx+fCBj0HrwRb+JmHsqxJNRd5i36mjNTwyallAX3LVDoqUdvLrT6FkGriXgTbkxmoghjthBrDsOwmQ/kPlI6oQ1VR+ZpYVZdx5Ry8AdX14i8eo9LhbgUkeU1R3Ya36sUcageMdomqfn4qo7kYxS5CumTtk0jCzRWHdkGtAYdCByVZwXC3DHauh1Z5K38AOxMejgtgfgRja46g4lKgbtkDdZIlU9vhBiFYLY6k4lKwb1kBiDNsquAnAjG4R1x1IWgx72DU2ZNmUk1CV3x2p/jfDa6k6kLgbNMNDnzIoIdqyWwZ5prDsSXgyK7AHMOHbDKYNjx2qJzjiNdWdSGIMGx9p10BNugBtXjEWylYmE9qcbIpFGma8YtEVcS6pTbTLQx9IoKmPQouwsMnykdJcqICMHOhGCaBWhMWhlAmLQ6t9ZSPgeVjLYhX1FVndso2izq0GPwuKt7YPsUgVktIv3aDlSD0hi83qNuaH4FDPzmoL0kuGRDGzfY8sxMthDPCEayLFpuzRK7bvtIb38zFYyMPL+LCeSkU4OH9ApjkEnfOXoNLG+uO4Qs5+/hPbGh55KllO69hBKInuCy4eZAjIV0SsqT0ER9XsW/+RmWxrwIXJKaD8d5Gnwx6DUbYE65ewq1G9fJ4O9l5EmljYkPA1aIcvT1mvMaV7GIjEvB6KXDJdaSWTz/U2iWVrxBWpLZL+FFsjNR/78ZQK/dEz7FPI3q780XyCP5QJ/JJF9RjhYUyHygNDxmpjKBeRXIVh7MvdnuYSPjYQy2gmMWdvQRKoL0Z0AtCCCFqHxBOxBswrGCl62+nou3XKVUJ3gEp7xJV2C/Bj05/MSIZ5B/ti5RPZTBiZ9oqUHfhq5JbIrAiMgY9CUn80ApXaDeMgvP9ObGlHyXwepVr34bejTYVIJTwcZ7SvOHG7+gACfQyvEQzqD/KqUppzdIVrDMXXqO6lEJJDwLJXR/iE17lSAGYAAOYP8qpS2Kz1W776T+gFZJLJ9AieDtk8hKABJs4HNovsGlGse5DVl0XdSH+MpJeE5JXCSGBwsAFe2TGnfO0sFuNfvwZpFGxxuiSg9UddewKrvpDJR9KYMY3Ue7vmvb2D1Yf15FeG9SxI+pdlM+04a6O3OfnZeoh3PT28N0Krck5fFh2AsPBMxPl1rBaZ9J8054ahyI4UQRhGDxsa10zcX8nlHYgB1CVWtwbLvpL/9Yb/pIDtmHBvIe/r6nUTd6vX9rwJorxSDsyCt42PZd9KXdNx30kp4NwxslFoD4rKGN+T6sFTx5/1XJXBeMpTBZuUUpn0n/W9N1fXgjUE9HB4Vv2aTtN9Kj/ftG47WA81SMBDW+W/w+k56h2gDEJEJtKacIjv97UtnOb7H7Xugr+V/z1gBrg+WizNkGy3bvpOqStO19520eVCwTRl/DAowFO1xtBWiuMPWBUDrTCdx/ttFO1MJ/le0vssvxoU2BkVdayKt5bhlXHsK476T3utLQa4ui7L3mgdaZzrWae+s+076fPpM9oN4aePpeMlhp2YhnfbOvO+k0xgnmKp0SLdP65BYamcw9YUZQ53puUHh0QFA30l/Qd9nacT1hR0JcWo5jGihGaWlCmySA5WoqACqRyrD6nFDh3ycz5n16iDtO2mlhAyzEYNWbIN1WWvMfSet8J3VMceg5iDcaBEXC6jvpLgmzQDucQPmAiSxLnNGQd9JC+zSpO7nALfJV0hXvKCj76QN3l6gZdD2lSjIMlT1orz2MGIB9p0UwjJwWOMu5KoQj9SZB7TvpACWgaPTp0j8y0V4q9aA23dSupeBaxeXg1IDxmUi3biUsr6TtkzAG4NO+XcqotMPfZ4X6X4G5PWdtPA7DbL85IptquPcuBRR30mJjkGL04/PyKrOPd701rj6TkpDDEpVJ5w8df4eaRmVxPadtCg7y6jeVKsguYUQGF/OGGXfSUHEoAb01oIp7TE+aiRmVyG776SF3+lF+wWoVYgXxCXitBQg7jsp7THo4MkQzygmfGSlICGGTd9JiY9BWwTHW0tYZ3xNIsodzPD3nZT6GHS7alah/IwWcMrPrH0XjZj2nZT6GNQbXwjliPDyM5sD6Dsp+TFos/8qw1qxeYmEVyE42iv3Qug7Kf0xaAu2i4b1mN0RYzFqgKxwYPpOSn8MmnsXzFz5R/Kd1eneurIgIQNU30npj0G9jz5aFtHSeDMwlipggH0nbYn35TX//md1DuT7QrjBcUxcU+L6TmoAMWijz2ug2029qPsYjJsXUth3UiOIQTNfZMI6jM70lV6a8mLUCpIHhd53UgPIRza68kHG6sKvRo1r7ymX9GLUOnSfC7/vpAaxbWzis+U/bY0CZ9PoRpv8PJuUiLVGDXr7TgovH4k2KRnz99fa0++kRtLTuEsfL16jzBnQ3HdSaDEoBRiAUS6F8r6Ttg4Ol2Kj1gWGpoqH+L6TUlpOitFVKXGHbYQB9J20KD2RdmH+PfM0/gaj6DtpJZQxKGJrbIFJ6TvpHVYlOAZF/pf1Dg2o76S142KMTpNNb212+k7qaTxuI1NaSKrAuXbsiWYaWN9Ji9JzDera8RWMru+kJicGbZRdxRD7TmpeYtAWlQtMWN9Jf95AYtBmjcsYdt9JaXqXZYxeMlPXd9KxpueahhcMqJQwqHH0nRRrewuwWgrMYd9J7zA1i+qRJcL7TmoGY9DE9Nak953U/MWgGZVTzGjfScdK5ti0t14d09p30gI7zVDrTC9ITjMjfSctHNhLm2JeuRKxi5lLaL/60SjaYtABKYtB02x6axSQkS6WRtEXg35ndaLGFQnes1IG2/mcWmXGYtCs1CJz1HdSw3pPqeK8pvT3ndRXJzqWTGyyx4jeTSUtocAQ+k4qod1F1HdSsO+sR/877ud8zXXg7jupjLQRWjE5+Uhv1SLj6DupfzMh3kTvvCwlPsXsLMQu4g6Adi2koO+kPta3mWS0b8jSczXofy2NFpXrAqpKhoi+k0pIdcr7Tuq5SHyvq1bvIuFUJUNJ30klpDzGvpMS9uqSrr+Gr7ntOynLLVDxBJuAXqHBJPSdlFi7+nZlHx+geNmU9p209fMAv/Txfg2UvyUeU9J3UgqHbRLjUtykvpNuJtCByUwdHzQpat3bP1/Pvlo60oMMzPoLyv1acMtlm2xcXcLbEyYjbyU8/QawdOYUEfedFNSrOcLK5vQ63gLCC1SQwR5OoHMnYSwGSET+1zeAvpN66jSj5ozmNRsJhEh4LstA3WmsIZjlGIPtO+kdVgV0RPWWzBLaUZko5+D/ZX4mJ8hou1rh3TmSkgCk98p16W447OMdoI/5JpfFmkn3ZgR9J205DKbj+c2AvBz+z+MsUWCrZWDWh1sQ6E8GBvZhAD1F8zBz8Ht72kxAbw+GTzLai3u7RwsKPUvw1JeRa0bQd9IKb8/iD/7XDEh4QUIy2IUGR2VB4jllouhPCgOIQY8vr1edexRykR66C459PAnPnhFZ8PAxyCiDLf4mwRoK1jUs83uP3kiv0dBrTS4gvO+kQ3yAD5DKgkkP9yaDvTOCvpPW/a+BXR+Wyr2M78mhvCSdrYgMN+ASqhNWwqedROeWIfSd1BOeC3l7qT0ObLRJl9kX7X0nlYHzElFv+y3YdDJNoOxxH74xvNVhmYoJQcGxSb1Xd/zzynj7u5hEDQ/tBei1+vjIHBMCql0P20sT83Lrng5FfYWlQ+PGjZ82PBeKYg2g76RDfEA3xrvUFhYa+hhPSwntqsnpO+k3CIzIaM9loM89WqgY6bj/wrT0nTS/WGDkyCKzDOgYmp3Y99aH29B30sP/yWwLJz0/UvduQd9JJbTX19OPhZjhf8A3Ye47qTmoM7r7Bl3qhLaQ08Ovy8hTE9930sf7yez1f84kgO2XiWoS2TGT3nfSQ+ntECwyOLlPH8LQ+04angs4+066IRKeFp07CWORQn+/LoM9MNV9J308OAlGaEPTrcxy30n/WQZm/ZZFFH4aSa/n381w30m37de7sRLJIoyjeqQ9Q1yP+mai0x325EXpIt6VToQgFnUMP+ajzGvfSWW0Hx/gq5PWIpE9nsAnYe47qZEFmzLYs0hDCZk8J2Z3Qr06GI5wOkqO7JHKWloxHzFoxrUXAM8wxmWitBTck0UwR7UrMnAccUb6h+CqUlwuygkELrwtqHmJQb3PBrbvpIkor6191qjZiUFLJ9Q1gjMktF/jPktLM2YoBs080Vjq+04qkb26Hn+NuJZmzFIM6m1TBOgMhNfZM8l4mnftIZRlHPSMOAatV4foo8dzxUtmvmLQtEmw7ztpUGjgu46E52Nv22FpxpzFoJmvxXQxo6JH9wpsyGg3J6DdS2biYtApBwXbWNmtZk2JpcA4YlBS+07aDp+XLObDLePjGicjI+dMS99JZbAbMtC6oaUVI4pBKew7KSXXNqgY9E1MRt9J/znGhUmjhhaDktV3Ulq8ZIYXg1LUd1IavWTGko80/L6TbnWMH5LGgg6JPkUDZyS/vq+WCeATfS30/CSDVquPl5Dyz2lpxZBjUOPVQXyAL5DOMhVUu54+MIsYE7GRx6BnYpw6k10pa5kThh/zikaoIT5g4ywTwx5PYCRGJxnt+b0FakS1TA7P6WuhjIS27fEMTE8sA1XLWmaIruljHCxLmmE0EZ+cZZroeVc+Hr5IMRG7xTFo9w0aW+aLARrIaNfBikITsYnIR/4FOBGzPphJikEvHJZQWgr22DJ7bD+cGBStpcAU0o3xNnPMRhKdYByDZR4ZoMHuk6sLMuIEI/wdb/6CoZCuFmBC2Yz1X+OaSH3TuL/A0oxbHIPKaB9668cytWzrj20kbfpciWh2VJbpxV8jfIPhuCfPmei2vaJpXPGoLRPNt/+6RPaEnPSyC+GGmY1BW1EygWACG2OZcT68t60mI8tQ1jLrDCDRaf/I+PUXMrDyqC1zz0iRz1n55962wzL/dGN9n/h6/h2xi/iYLfeAnh/p0lBqeyLDDTcCyaCARGfNX2Azk8nIhpFa7gbfjmpY6ps+YJctd4TtRzN1catpyzGZ4GUs+ri3e7TcGvqT6PQFfulBZAttUa0Ka9rs6iMCnJEeZAI9W+4R2yojiyS0XzBHF2Sg8QFZ7hObDXDy6ic1MJgjI1zg+O1gjUlsm4/xNCxruV8UZv9kKzhnlLXcNF76AyS0X1DPcKsCEOajUt1rGl5wtwIQGWgtkd1huTjklvtaKGK5gzynbKEKq3YKb+SPbZzlNvIFEtnyIRjUdrL7A1huJZ/46yPRd/qQRGeODOSz3E+eU8jADL1i0CEktHW+QOWeLTeVA9rYL9oW181kX7RLDS33lntKvkrtpTMOLtFZu4e/UGi5wxRKSIpHkoFRBzicg3C81+v2fOmQ/Gksd5s9ruarkTU7iuFf6lFZbj+l/Fcp/1XKf5XyX6UAkgU=;" vertex="1" parent="b9N4R5i_NIoSZ153W1rB-34">
          <mxGeometry y="38" width="122" height="122" as="geometry" />
        </mxCell>
        <mxCell id="b9N4R5i_NIoSZ153W1rB-18" value="&lt;h1&gt;Redis&lt;/h1&gt;" style="text;html=1;align=center;verticalAlign=middle;whiteSpace=wrap;rounded=0;" vertex="1" parent="b9N4R5i_NIoSZ153W1rB-34">
          <mxGeometry x="11" width="100" height="50" as="geometry" />
        </mxCell>
        <mxCell id="b9N4R5i_NIoSZ153W1rB-75" value="Docker container" style="swimlane;whiteSpace=wrap;html=1;" vertex="1" parent="b9N4R5i_NIoSZ153W1rB-79">
          <mxGeometry width="390" height="210" as="geometry" />
        </mxCell>
        <mxCell id="b9N4R5i_NIoSZ153W1rB-76" value="Docker container" style="swimlane;whiteSpace=wrap;html=1;" vertex="1" parent="1">
          <mxGeometry x="850" y="180" width="390" height="220" as="geometry" />
        </mxCell>
        <mxCell id="b9N4R5i_NIoSZ153W1rB-12" value="&lt;b&gt;&lt;font style=&quot;font-size: 13px;&quot;&gt;Postgres Database&lt;/font&gt;&lt;/b&gt;" style="shape=cylinder3;whiteSpace=wrap;html=1;boundedLbl=1;backgroundOutline=1;size=15;" vertex="1" parent="b9N4R5i_NIoSZ153W1rB-76">
          <mxGeometry x="100" y="74.72999999999999" width="180" height="130" as="geometry" />
        </mxCell>
        <mxCell id="b9N4R5i_NIoSZ153W1rB-13" value="&lt;h1&gt;DataBase&lt;/h1&gt;" style="text;html=1;strokeColor=none;fillColor=none;align=center;verticalAlign=middle;whiteSpace=wrap;rounded=0;" vertex="1" parent="b9N4R5i_NIoSZ153W1rB-76">
          <mxGeometry x="160" y="34.72999999999999" width="60" height="30" as="geometry" />
        </mxCell>
        <mxCell id="b9N4R5i_NIoSZ153W1rB-86" value="Docker container" style="swimlane;whiteSpace=wrap;html=1;" vertex="1" parent="1">
          <mxGeometry x="-190" y="-240" width="370" height="280" as="geometry" />
        </mxCell>
        <mxCell id="b9N4R5i_NIoSZ153W1rB-89" value="" style="rounded=1;whiteSpace=wrap;html=1;" vertex="1" parent="b9N4R5i_NIoSZ153W1rB-86">
          <mxGeometry x="47.5" y="120" width="280" height="130" as="geometry" />
        </mxCell>
        <mxCell id="b9N4R5i_NIoSZ153W1rB-88" value="" style="shape=image;verticalLabelPosition=bottom;labelBackgroundColor=default;verticalAlign=top;aspect=fixed;imageAspect=0;image=data:image/png,iVBORw0KGgoAAAANSUhEUgAAATAAAAClCAMAAADs+VGFAAAAolBMVEX///8AljkAlDM3p1xKrmsAixoAlTfF4s4Aki2IwJXa7uEAlTYAkzEAkCaEvpEAkCgAiyHj8uj5/fvs9/Cez6y228EAihlsuYOk07KBwpTx+fRds3dGqWTZ7d+RyaEtoVF1vYoAhgXM59VjrnPB480enUgRm0Jltnx7v4+w2b0zpFdPp2Qrl0RFoFhPo1+ayqVvs30+nlIAewBbqWoilDx7w5NZ+l3CAAAG00lEQVR4nO2da3eqOhBAG9ogNaQBVOpbsa2trb2nvT33//+1qxYtgUnAJyXM/ugSJXvpTDJA5uoKQRAEQRAEQZBDCTqPZZ9Cpeg8cTqclX0WlaF1wxkhFr8Pyj6TStCacoussR13jMpy6TLHJjG2eMJQpmf2xHe61jA+bJZ9Tr8YfxO8ZFahrF/2ef1WetxN69qEMqtb9pn9SrpzxwZ8rZXx107ZZ/frmL1m/43J/+WNX/YZ/ir6A2qpdW2U0R5OMbYEPeboda1x5n/KPtFfQoeogpcM4xNcLV1djYa8kK6NMvpc91DWGvCc4CXjipdah7K2cAv/vL6xnXl9pxiLCd/P1gbGr+sZykbXupmXDosOWmWf/cXp9/YLXjKu2y57ABdmLIpNJVTYgi3KHsMFaUzEMba+lfHhqOxxXIjm4NDgJeOKaR1CWX+at2wsjO1w82vYi3mBZWNxZXzSKHtEZ6VBxEn+jT8wOjG3hu2fKHjJWHxqZg27PxZQBfp4bIeZWMPuusfNvLTK+Ny0y3Gj1+JFnENgfGBS4cd/PtlUQonLe8aEsp5zyqmECtshZoSyxyIF+9MoM6GGPdJePjs1VtVDWev5mCLOIbiiV/agDydoW/tWoI/HFk9VLfw8EqHXZR9oM+c4xieVLPwMqG5clkeF43Dq7Tv7dyl3HEG1icSiL2WPfn/GugscLHpb+K0Vze5XtFcSjd4a6+NGd5E2ONLqlbBfNQNylokKQ+u2+K+Mebt5Q+tdJ9q6KWPMR3GtFia+5LKf/0YL+nISwSl413g2Spj1T+bNf8JCwqhULQw0q3mjhEVAxe+2yG/MfZAP6ni1EGa9Q2//KHAdKUwtfIK/yp+YScI8eImsi0gxNH3F40F5jEnCKFzr63t5a07bSh9zp0yURglTXOdpqiNSLIykD7mttbCrRpQjzE4fUXNheZMLFJZBnypRWJZP3XIHhWUJlpoVKAoDaGrCGAqDaKiNoTCQrnJVicJgPlSVRxSm4E2hAYUpCJbwqhKFqfBDsGyDwpTAq0oUpmYBTS5QWEwfuBP6Dqj1oLCY2R1wOJAqUVhM81+gBgusKlFYTJN6wL0QfS+dKlFYTJOSCHgGZpYO/CgsZiUMuLa7WlWmjKGwmJUwIr6AjxjL63AUFrMWRmh+qkRhMRthJASefQ8+kx+CwmK+hZEIuANaut8EhcXEwmwPeDBhFqEwlTDClsAaqfOTKlFYzFZYXqpEYTE7YcSDUuXD9uouCov5EUZC6FaobapEYTEJYSQEV5UMhSVJCrND4Fmh+EYoFBaTFEbYXyhVRigsgSSMOMpUicJiZGHE+wA+7U6gsB0pYYQCqTJYuihsS1oYCYHrSv2/jKGwbzLCbA9Ilb6HwmIywlapEliHr1Jl+iUUtsWBStZ/wvQrKGwHh54QvU+/gMIS7yqyjzIKSxAVuAUDhSWBUmUKFJYETJUyKEwe9DLvO1CYjMjbTKGmj/8phRF6q/8OFJYmJ1WisAxCu4UmCsvAhC5VorAsLrgHQQwKAxAP4MdvQGHg+9WrShQGEio3UENhCmOq/dNQGAxzFamyJsLSd+XnCiPuEjb2UgthPL15XCe/WY8iVb6pt9wySBj7TL1TveXQD+EY+Apfvc2FScJIJMdwv9BmayGwqeGHepcLo4QxefL+qXyjbCwzHetoTBslbBWREnfoTIt27Am/5F8m+ExlhYXpdtkUn9t6vf9evMORG378KPMftLm1gsLuddvosOhrMWqOFg/RXjt7u5F11501m432W6TPFPy/sse/N339xsqWR+n+2wQT21kfR72cuMevyx7+AQRw2+7zYztORTsRjAb0gnvpb7H4tLp76s+ezts7JQvjw+rqWtO+SD+QLbaofkPYVu/8HWe2OLRtQnM7f3iZtiAWvzelUU/nAqHMsF7Dbfe8ocyE4CXTuqfnm5XZLjWwM+fs5lyhbBW8zOwx2Zkf30s4i81fTQpeEsE4OnnPRIdWtY1RIfpTcdJZmesaGLxkZpPThTJGb6q9DirGYp7TUasgq+BldgvmHcH4BC3uDO2Mq8C/OVaZa846qBiz6/zLt2oYH5g589Kx4IdOMWxBTGu6XIhg6hyyWrIdAl0GrwWHtJa3+Eu9gpdMY88pBuPX9QteMl1WPJTZ4smwIs4h9KcFpxi2y41fBxVjVKiGbfEBsHlpTckPZYwP6x68ZMb6UCbmRhdxDqF1rw5ljnOLwStLUxHKLP6MwQsGKvzYfFKTIs4hBGMuX46zHReDlxY5lFkYvPJp7GrYjOJUohCdzc2Lq+ClesYISdG/5YJbNapAH0+z28WpBIIgCIIgCIIczv92f3ouX5UleAAAAABJRU5ErkJggg==;clipPath=inset(5.21% 28.67% 6.44% 28.67%);" vertex="1" parent="b9N4R5i_NIoSZ153W1rB-86">
          <mxGeometry x="158.34" y="130" width="53.33" height="60" as="geometry" />
        </mxCell>
        <mxCell id="b9N4R5i_NIoSZ153W1rB-90" value="&lt;b&gt;&lt;font style=&quot;font-size: 16px;&quot;&gt;Nginx&lt;/font&gt;&lt;/b&gt;" style="text;html=1;strokeColor=none;fillColor=none;align=center;verticalAlign=middle;whiteSpace=wrap;rounded=0;" vertex="1" parent="b9N4R5i_NIoSZ153W1rB-86">
          <mxGeometry x="132.5" y="210" width="110" height="40" as="geometry" />
        </mxCell>
        <mxCell id="b9N4R5i_NIoSZ153W1rB-91" value="&lt;h1&gt;Web Server / Reverse Proxy&lt;/h1&gt;" style="text;html=1;strokeColor=none;fillColor=none;align=center;verticalAlign=middle;whiteSpace=wrap;rounded=0;" vertex="1" parent="b9N4R5i_NIoSZ153W1rB-86">
          <mxGeometry x="85" y="40" width="205" height="70" as="geometry" />
        </mxCell>
        <mxCell id="b9N4R5i_NIoSZ153W1rB-93" value="" style="endArrow=classic;startArrow=classic;html=1;rounded=0;exitX=1;exitY=0.5;exitDx=0;exitDy=0;entryX=0;entryY=0.5;entryDx=0;entryDy=0;" edge="1" parent="1" source="b9N4R5i_NIoSZ153W1rB-74" target="b9N4R5i_NIoSZ153W1rB-75">
          <mxGeometry width="50" height="50" relative="1" as="geometry">
            <mxPoint x="770" y="50" as="sourcePoint" />
            <mxPoint x="820" as="targetPoint" />
            <Array as="points" />
          </mxGeometry>
        </mxCell>
        <mxCell id="b9N4R5i_NIoSZ153W1rB-94" value="" style="endArrow=classic;startArrow=classic;html=1;rounded=0;" edge="1" parent="1">
          <mxGeometry width="50" height="50" relative="1" as="geometry">
            <mxPoint x="720" y="110" as="sourcePoint" />
            <mxPoint x="850" y="300" as="targetPoint" />
            <Array as="points" />
          </mxGeometry>
        </mxCell>
        <mxCell id="b9N4R5i_NIoSZ153W1rB-96" style="edgeStyle=orthogonalEdgeStyle;rounded=0;orthogonalLoop=1;jettySize=auto;html=1;" edge="1" parent="1" source="b9N4R5i_NIoSZ153W1rB-95">
          <mxGeometry relative="1" as="geometry">
            <mxPoint x="-190" y="-105" as="targetPoint" />
          </mxGeometry>
        </mxCell>
        <mxCell id="b9N4R5i_NIoSZ153W1rB-95" value="&lt;h1&gt;Internet&lt;/h1&gt;" style="ellipse;shape=cloud;whiteSpace=wrap;html=1;" vertex="1" parent="1">
          <mxGeometry x="-610" y="-210" width="300" height="210" as="geometry" />
        </mxCell>
        <mxCell id="b9N4R5i_NIoSZ153W1rB-97" value=":80" style="text;html=1;align=center;verticalAlign=middle;resizable=0;points=[];autosize=1;strokeColor=none;fillColor=none;" vertex="1" parent="1">
          <mxGeometry x="-280" y="-142" width="40" height="30" as="geometry" />
        </mxCell>
        <mxCell id="b9N4R5i_NIoSZ153W1rB-98" value="" style="endArrow=classic;startArrow=classic;html=1;rounded=0;" edge="1" parent="1">
          <mxGeometry width="50" height="50" relative="1" as="geometry">
            <mxPoint x="180" y="-92" as="sourcePoint" />
            <mxPoint x="240" y="-220" as="targetPoint" />
          </mxGeometry>
        </mxCell>
        <mxCell id="b9N4R5i_NIoSZ153W1rB-99" value="" style="endArrow=classic;startArrow=classic;html=1;rounded=0;entryX=0;entryY=0.5;entryDx=0;entryDy=0;" edge="1" parent="1" target="b9N4R5i_NIoSZ153W1rB-74">
          <mxGeometry width="50" height="50" relative="1" as="geometry">
            <mxPoint x="180" y="-60" as="sourcePoint" />
            <mxPoint x="280" y="40" as="targetPoint" />
          </mxGeometry>
        </mxCell>
      </root>
    </mxGraphModel>
  </diagram>
</mxfile>
